<?xml version="1.0" encoding="utf-8" standalone="no"?>
<!DOCTYPE svg PUBLIC "-//W3C//DTD SVG 1.1//EN"
  "http://www.w3.org/Graphics/SVG/1.1/DTD/svg11.dtd">
<svg xmlns:xlink="http://www.w3.org/1999/xlink" width="856.260625pt" height="280.474375pt" viewBox="0 0 856.260625 280.474375" xmlns="http://www.w3.org/2000/svg" version="1.1">
 <metadata>
  <rdf:RDF xmlns:dc="http://purl.org/dc/elements/1.1/" xmlns:cc="http://creativecommons.org/ns#" xmlns:rdf="http://www.w3.org/1999/02/22-rdf-syntax-ns#">
   <cc:Work>
    <dc:type rdf:resource="http://purl.org/dc/dcmitype/StillImage"/>
    <dc:date>2026-04-02T05:11:07.953593</dc:date>
    <dc:format>image/svg+xml</dc:format>
    <dc:creator>
     <cc:Agent>
      <dc:title>Matplotlib v3.10.8, https://matplotlib.org/</dc:title>
     </cc:Agent>
    </dc:creator>
   </cc:Work>
  </rdf:RDF>
 </metadata>
 <defs>
  <style type="text/css">*{stroke-linejoin: round; stroke-linecap: butt}</style>
 </defs>
 <g id="figure_1">
  <g id="patch_1">
   <path d="M 0 280.474375 
L 856.260625 280.474375 
L 856.260625 0 
L 0 0 
z
" style="fill: #ffffff"/>
  </g>
  <g id="axes_1">
   <g id="patch_2">
    <path d="M 59.690625 242.918125 
L 422.460625 242.918125 
L 422.460625 22.318125 
L 59.690625 22.318125 
z
" style="fill: #ffffff"/>
   </g>
   <g id="patch_3">
    <path d="M 76.18017 242.918125 
L 79.478079 242.918125 
L 79.478079 229.958961 
L 76.18017 229.958961 
z
" clip-path="url(#pa9c56eb34a)" style="fill: #1f77b4; stroke: #000000; stroke-linejoin: miter"/>
   </g>
   <g id="patch_4">
    <path d="M 79.478079 242.918125 
L 82.775988 242.918125 
L 82.775988 202.261146 
L 79.478079 202.261146 
z
" clip-path="url(#pa9c56eb34a)" style="fill: #1f77b4; stroke: #000000; stroke-linejoin: miter"/>
   </g>
   <g id="patch_5">
    <path d="M 82.775988 242.918125 
L 86.073897 242.918125 
L 86.073897 162.030846 
L 82.775988 162.030846 
z
" clip-path="url(#pa9c56eb34a)" style="fill: #1f77b4; stroke: #000000; stroke-linejoin: miter"/>
   </g>
   <g id="patch_6">
    <path d="M 86.073897 242.918125 
L 89.371806 242.918125 
L 89.371806 114.629677 
L 86.073897 114.629677 
z
" clip-path="url(#pa9c56eb34a)" style="fill: #1f77b4; stroke: #000000; stroke-linejoin: miter"/>
   </g>
   <g id="patch_7">
    <path d="M 89.371806 242.918125 
L 92.669716 242.918125 
L 92.669716 86.670562 
L 89.371806 86.670562 
z
" clip-path="url(#pa9c56eb34a)" style="fill: #1f77b4; stroke: #000000; stroke-linejoin: miter"/>
   </g>
   <g id="patch_8">
    <path d="M 92.669716 242.918125 
L 95.967624 242.918125 
L 95.967624 62.693793 
L 92.669716 62.693793 
z
" clip-path="url(#pa9c56eb34a)" style="fill: #1f77b4; stroke: #000000; stroke-linejoin: miter"/>
   </g>
   <g id="patch_9">
    <path d="M 95.967624 242.918125 
L 99.265532 242.918125 
L 99.265532 32.822887 
L 95.967624 32.822887 
z
" clip-path="url(#pa9c56eb34a)" style="fill: #1f77b4; stroke: #000000; stroke-linejoin: miter"/>
   </g>
   <g id="patch_10">
    <path d="M 99.265532 242.918125 
L 102.563442 242.918125 
L 102.563442 38.611181 
L 99.265532 38.611181 
z
" clip-path="url(#pa9c56eb34a)" style="fill: #1f77b4; stroke: #000000; stroke-linejoin: miter"/>
   </g>
   <g id="patch_11">
    <path d="M 102.563442 242.918125 
L 105.861352 242.918125 
L 105.861352 38.075351 
L 102.563442 38.075351 
z
" clip-path="url(#pa9c56eb34a)" style="fill: #1f77b4; stroke: #000000; stroke-linejoin: miter"/>
   </g>
   <g id="patch_12">
    <path d="M 105.861352 242.918125 
L 109.159261 242.918125 
L 109.159261 44.637623 
L 105.861352 44.637623 
z
" clip-path="url(#pa9c56eb34a)" style="fill: #1f77b4; stroke: #000000; stroke-linejoin: miter"/>
   </g>
   <g id="patch_13">
    <path d="M 109.159261 242.918125 
L 112.457168 242.918125 
L 112.457168 48.527356 
L 109.159261 48.527356 
z
" clip-path="url(#pa9c56eb34a)" style="fill: #1f77b4; stroke: #000000; stroke-linejoin: miter"/>
   </g>
   <g id="patch_14">
    <path d="M 112.457168 242.918125 
L 115.755078 242.918125 
L 115.755078 75.093973 
L 112.457168 75.093973 
z
" clip-path="url(#pa9c56eb34a)" style="fill: #1f77b4; stroke: #000000; stroke-linejoin: miter"/>
   </g>
   <g id="patch_15">
    <path d="M 115.755078 242.918125 
L 119.052987 242.918125 
L 119.052987 97.29787 
L 115.755078 97.29787 
z
" clip-path="url(#pa9c56eb34a)" style="fill: #1f77b4; stroke: #000000; stroke-linejoin: miter"/>
   </g>
   <g id="patch_16">
    <path d="M 119.052987 242.918125 
L 122.350894 242.918125 
L 122.350894 108.897612 
L 119.052987 108.897612 
z
" clip-path="url(#pa9c56eb34a)" style="fill: #1f77b4; stroke: #000000; stroke-linejoin: miter"/>
   </g>
   <g id="patch_17">
    <path d="M 122.350894 242.918125 
L 125.648804 242.918125 
L 125.648804 135.153315 
L 122.350894 135.153315 
z
" clip-path="url(#pa9c56eb34a)" style="fill: #1f77b4; stroke: #000000; stroke-linejoin: miter"/>
   </g>
   <g id="patch_18">
    <path d="M 125.648804 242.918125 
L 128.946713 242.918125 
L 128.946713 151.856679 
L 125.648804 151.856679 
z
" clip-path="url(#pa9c56eb34a)" style="fill: #1f77b4; stroke: #000000; stroke-linejoin: miter"/>
   </g>
   <g id="patch_19">
    <path d="M 128.946713 242.918125 
L 132.24462 242.918125 
L 132.24462 163.148814 
L 128.946713 163.148814 
z
" clip-path="url(#pa9c56eb34a)" style="fill: #1f77b4; stroke: #000000; stroke-linejoin: miter"/>
   </g>
   <g id="patch_20">
    <path d="M 132.24462 242.918125 
L 135.542533 242.918125 
L 135.542533 179.954713 
L 132.24462 179.954713 
z
" clip-path="url(#pa9c56eb34a)" style="fill: #1f77b4; stroke: #000000; stroke-linejoin: miter"/>
   </g>
   <g id="patch_21">
    <path d="M 135.542533 242.918125 
L 138.840439 242.918125 
L 138.840439 190.453025 
L 135.542533 190.453025 
z
" clip-path="url(#pa9c56eb34a)" style="fill: #1f77b4; stroke: #000000; stroke-linejoin: miter"/>
   </g>
   <g id="patch_22">
    <path d="M 138.840439 242.918125 
L 142.138352 242.918125 
L 142.138352 199.08916 
L 138.840439 199.08916 
z
" clip-path="url(#pa9c56eb34a)" style="fill: #1f77b4; stroke: #000000; stroke-linejoin: miter"/>
   </g>
   <g id="patch_23">
    <path d="M 142.138352 242.918125 
L 145.436259 242.918125 
L 145.436259 205.161908 
L 142.138352 205.161908 
z
" clip-path="url(#pa9c56eb34a)" style="fill: #1f77b4; stroke: #000000; stroke-linejoin: miter"/>
   </g>
   <g id="patch_24">
    <path d="M 145.436259 242.918125 
L 148.734166 242.918125 
L 148.734166 213.470591 
L 145.436259 213.470591 
z
" clip-path="url(#pa9c56eb34a)" style="fill: #1f77b4; stroke: #000000; stroke-linejoin: miter"/>
   </g>
   <g id="patch_25">
    <path d="M 148.734166 242.918125 
L 152.032078 242.918125 
L 152.032078 218.461755 
L 148.734166 218.461755 
z
" clip-path="url(#pa9c56eb34a)" style="fill: #1f77b4; stroke: #000000; stroke-linejoin: miter"/>
   </g>
   <g id="patch_26">
    <path d="M 152.032078 242.918125 
L 155.329985 242.918125 
L 155.329985 221.981038 
L 152.032078 221.981038 
z
" clip-path="url(#pa9c56eb34a)" style="fill: #1f77b4; stroke: #000000; stroke-linejoin: miter"/>
   </g>
   <g id="patch_27">
    <path d="M 155.329985 242.918125 
L 158.627892 242.918125 
L 158.627892 226.826667 
L 155.329985 226.826667 
z
" clip-path="url(#pa9c56eb34a)" style="fill: #1f77b4; stroke: #000000; stroke-linejoin: miter"/>
   </g>
   <g id="patch_28">
    <path d="M 158.627892 242.918125 
L 161.925804 242.918125 
L 161.925804 229.826657 
L 158.627892 229.826657 
z
" clip-path="url(#pa9c56eb34a)" style="fill: #1f77b4; stroke: #000000; stroke-linejoin: miter"/>
   </g>
   <g id="patch_29">
    <path d="M 161.925804 242.918125 
L 165.223711 242.918125 
L 165.223711 231.374612 
L 161.925804 231.374612 
z
" clip-path="url(#pa9c56eb34a)" style="fill: #1f77b4; stroke: #000000; stroke-linejoin: miter"/>
   </g>
   <g id="patch_30">
    <path d="M 165.223711 242.918125 
L 168.521618 242.918125 
L 168.521618 233.739544 
L 165.223711 233.739544 
z
" clip-path="url(#pa9c56eb34a)" style="fill: #1f77b4; stroke: #000000; stroke-linejoin: miter"/>
   </g>
   <g id="patch_31">
    <path d="M 168.521618 242.918125 
L 171.81953 242.918125 
L 171.81953 235.505801 
L 168.521618 235.505801 
z
" clip-path="url(#pa9c56eb34a)" style="fill: #1f77b4; stroke: #000000; stroke-linejoin: miter"/>
   </g>
   <g id="patch_32">
    <path d="M 171.81953 242.918125 
L 175.117437 242.918125 
L 175.117437 236.822224 
L 171.81953 236.822224 
z
" clip-path="url(#pa9c56eb34a)" style="fill: #1f77b4; stroke: #000000; stroke-linejoin: miter"/>
   </g>
   <g id="patch_33">
    <path d="M 175.117437 242.918125 
L 178.41535 242.918125 
L 178.41535 237.698737 
L 175.117437 237.698737 
z
" clip-path="url(#pa9c56eb34a)" style="fill: #1f77b4; stroke: #000000; stroke-linejoin: miter"/>
   </g>
   <g id="patch_34">
    <path d="M 178.41535 242.918125 
L 181.713256 242.918125 
L 181.713256 238.876242 
L 178.41535 238.876242 
z
" clip-path="url(#pa9c56eb34a)" style="fill: #1f77b4; stroke: #000000; stroke-linejoin: miter"/>
   </g>
   <g id="patch_35">
    <path d="M 181.713256 242.918125 
L 185.011163 242.918125 
L 185.011163 239.501378 
L 181.713256 239.501378 
z
" clip-path="url(#pa9c56eb34a)" style="fill: #1f77b4; stroke: #000000; stroke-linejoin: miter"/>
   </g>
   <g id="patch_36">
    <path d="M 185.011163 242.918125 
L 188.30907 242.918125 
L 188.30907 239.944596 
L 185.011163 239.944596 
z
" clip-path="url(#pa9c56eb34a)" style="fill: #1f77b4; stroke: #000000; stroke-linejoin: miter"/>
   </g>
   <g id="patch_37">
    <path d="M 188.30907 242.918125 
L 191.606989 242.918125 
L 191.606989 240.672267 
L 188.30907 240.672267 
z
" clip-path="url(#pa9c56eb34a)" style="fill: #1f77b4; stroke: #000000; stroke-linejoin: miter"/>
   </g>
   <g id="patch_38">
    <path d="M 191.606989 242.918125 
L 194.904895 242.918125 
L 194.904895 241.095639 
L 191.606989 241.095639 
z
" clip-path="url(#pa9c56eb34a)" style="fill: #1f77b4; stroke: #000000; stroke-linejoin: miter"/>
   </g>
   <g id="patch_39">
    <path d="M 194.904895 242.918125 
L 198.202802 242.918125 
L 198.202802 241.403246 
L 194.904895 241.403246 
z
" clip-path="url(#pa9c56eb34a)" style="fill: #1f77b4; stroke: #000000; stroke-linejoin: miter"/>
   </g>
   <g id="patch_40">
    <path d="M 198.202802 242.918125 
L 201.500708 242.918125 
L 201.500708 241.63147 
L 198.202802 241.63147 
z
" clip-path="url(#pa9c56eb34a)" style="fill: #1f77b4; stroke: #000000; stroke-linejoin: miter"/>
   </g>
   <g id="patch_41">
    <path d="M 201.500708 242.918125 
L 204.798615 242.918125 
L 204.798615 241.863002 
L 201.500708 241.863002 
z
" clip-path="url(#pa9c56eb34a)" style="fill: #1f77b4; stroke: #000000; stroke-linejoin: miter"/>
   </g>
   <g id="patch_42">
    <path d="M 204.798615 242.918125 
L 208.096534 242.918125 
L 208.096534 241.98869 
L 204.798615 241.98869 
z
" clip-path="url(#pa9c56eb34a)" style="fill: #1f77b4; stroke: #000000; stroke-linejoin: miter"/>
   </g>
   <g id="patch_43">
    <path d="M 208.096534 242.918125 
L 211.394441 242.918125 
L 211.394441 242.15407 
L 208.096534 242.15407 
z
" clip-path="url(#pa9c56eb34a)" style="fill: #1f77b4; stroke: #000000; stroke-linejoin: miter"/>
   </g>
   <g id="patch_44">
    <path d="M 211.394441 242.918125 
L 214.692347 242.918125 
L 214.692347 242.316142 
L 211.394441 242.316142 
z
" clip-path="url(#pa9c56eb34a)" style="fill: #1f77b4; stroke: #000000; stroke-linejoin: miter"/>
   </g>
   <g id="patch_45">
    <path d="M 214.692347 242.918125 
L 217.990254 242.918125 
L 217.990254 242.352526 
L 214.692347 242.352526 
z
" clip-path="url(#pa9c56eb34a)" style="fill: #1f77b4; stroke: #000000; stroke-linejoin: miter"/>
   </g>
   <g id="patch_46">
    <path d="M 217.990254 242.918125 
L 221.288161 242.918125 
L 221.288161 242.527829 
L 217.990254 242.527829 
z
" clip-path="url(#pa9c56eb34a)" style="fill: #1f77b4; stroke: #000000; stroke-linejoin: miter"/>
   </g>
   <g id="patch_47">
    <path d="M 221.288161 242.918125 
L 224.586067 242.918125 
L 224.586067 242.593981 
L 221.288161 242.593981 
z
" clip-path="url(#pa9c56eb34a)" style="fill: #1f77b4; stroke: #000000; stroke-linejoin: miter"/>
   </g>
   <g id="patch_48">
    <path d="M 224.586067 242.918125 
L 227.883986 242.918125 
L 227.883986 242.646902 
L 224.586067 242.646902 
z
" clip-path="url(#pa9c56eb34a)" style="fill: #1f77b4; stroke: #000000; stroke-linejoin: miter"/>
   </g>
   <g id="patch_49">
    <path d="M 227.883986 242.918125 
L 231.181893 242.918125 
L 231.181893 242.607211 
L 227.883986 242.607211 
z
" clip-path="url(#pa9c56eb34a)" style="fill: #1f77b4; stroke: #000000; stroke-linejoin: miter"/>
   </g>
   <g id="patch_50">
    <path d="M 231.181893 242.918125 
L 234.479799 242.918125 
L 234.479799 242.742822 
L 231.181893 242.742822 
z
" clip-path="url(#pa9c56eb34a)" style="fill: #1f77b4; stroke: #000000; stroke-linejoin: miter"/>
   </g>
   <g id="patch_51">
    <path d="M 234.479799 242.918125 
L 237.777706 242.918125 
L 237.777706 242.736207 
L 234.479799 242.736207 
z
" clip-path="url(#pa9c56eb34a)" style="fill: #1f77b4; stroke: #000000; stroke-linejoin: miter"/>
   </g>
   <g id="patch_52">
    <path d="M 237.777706 242.918125 
L 241.075613 242.918125 
L 241.075613 242.756053 
L 237.777706 242.756053 
z
" clip-path="url(#pa9c56eb34a)" style="fill: #1f77b4; stroke: #000000; stroke-linejoin: miter"/>
   </g>
   <g id="patch_53">
    <path d="M 241.075613 242.918125 
L 244.373532 242.918125 
L 244.373532 242.769283 
L 241.075613 242.769283 
z
" clip-path="url(#pa9c56eb34a)" style="fill: #1f77b4; stroke: #000000; stroke-linejoin: miter"/>
   </g>
   <g id="patch_54">
    <path d="M 244.373532 242.918125 
L 247.671438 242.918125 
L 247.671438 242.838743 
L 244.373532 242.838743 
z
" clip-path="url(#pa9c56eb34a)" style="fill: #1f77b4; stroke: #000000; stroke-linejoin: miter"/>
   </g>
   <g id="patch_55">
    <path d="M 247.671438 242.918125 
L 250.969345 242.918125 
L 250.969345 242.835435 
L 247.671438 242.835435 
z
" clip-path="url(#pa9c56eb34a)" style="fill: #1f77b4; stroke: #000000; stroke-linejoin: miter"/>
   </g>
   <g id="patch_56">
    <path d="M 250.969345 242.918125 
L 254.267251 242.918125 
L 254.267251 242.858588 
L 250.969345 242.858588 
z
" clip-path="url(#pa9c56eb34a)" style="fill: #1f77b4; stroke: #000000; stroke-linejoin: miter"/>
   </g>
   <g id="patch_57">
    <path d="M 254.267251 242.918125 
L 257.565158 242.918125 
L 257.565158 242.878434 
L 254.267251 242.878434 
z
" clip-path="url(#pa9c56eb34a)" style="fill: #1f77b4; stroke: #000000; stroke-linejoin: miter"/>
   </g>
   <g id="patch_58">
    <path d="M 257.565158 242.918125 
L 260.863065 242.918125 
L 260.863065 242.861896 
L 257.565158 242.861896 
z
" clip-path="url(#pa9c56eb34a)" style="fill: #1f77b4; stroke: #000000; stroke-linejoin: miter"/>
   </g>
   <g id="patch_59">
    <path d="M 260.863065 242.918125 
L 264.160984 242.918125 
L 264.160984 242.881741 
L 260.863065 242.881741 
z
" clip-path="url(#pa9c56eb34a)" style="fill: #1f77b4; stroke: #000000; stroke-linejoin: miter"/>
   </g>
   <g id="patch_60">
    <path d="M 264.160984 242.918125 
L 267.45889 242.918125 
L 267.45889 242.875126 
L 264.160984 242.875126 
z
" clip-path="url(#pa9c56eb34a)" style="fill: #1f77b4; stroke: #000000; stroke-linejoin: miter"/>
   </g>
   <g id="patch_61">
    <path d="M 267.45889 242.918125 
L 270.756797 242.918125 
L 270.756797 242.878434 
L 267.45889 242.878434 
z
" clip-path="url(#pa9c56eb34a)" style="fill: #1f77b4; stroke: #000000; stroke-linejoin: miter"/>
   </g>
   <g id="patch_62">
    <path d="M 270.756797 242.918125 
L 274.054704 242.918125 
L 274.054704 242.898279 
L 270.756797 242.898279 
z
" clip-path="url(#pa9c56eb34a)" style="fill: #1f77b4; stroke: #000000; stroke-linejoin: miter"/>
   </g>
   <g id="patch_63">
    <path d="M 274.054704 242.918125 
L 277.35261 242.918125 
L 277.35261 242.891664 
L 274.054704 242.891664 
z
" clip-path="url(#pa9c56eb34a)" style="fill: #1f77b4; stroke: #000000; stroke-linejoin: miter"/>
   </g>
   <g id="patch_64">
    <path d="M 277.35261 242.918125 
L 280.650529 242.918125 
L 280.650529 242.904895 
L 277.35261 242.904895 
z
" clip-path="url(#pa9c56eb34a)" style="fill: #1f77b4; stroke: #000000; stroke-linejoin: miter"/>
   </g>
   <g id="patch_65">
    <path d="M 280.650529 242.918125 
L 283.948423 242.918125 
L 283.948423 242.888357 
L 280.650529 242.888357 
z
" clip-path="url(#pa9c56eb34a)" style="fill: #1f77b4; stroke: #000000; stroke-linejoin: miter"/>
   </g>
   <g id="patch_66">
    <path d="M 283.948423 242.918125 
L 287.246342 242.918125 
L 287.246342 242.904895 
L 283.948423 242.904895 
z
" clip-path="url(#pa9c56eb34a)" style="fill: #1f77b4; stroke: #000000; stroke-linejoin: miter"/>
   </g>
   <g id="patch_67">
    <path d="M 287.246342 242.918125 
L 290.544261 242.918125 
L 290.544261 242.898279 
L 287.246342 242.898279 
z
" clip-path="url(#pa9c56eb34a)" style="fill: #1f77b4; stroke: #000000; stroke-linejoin: miter"/>
   </g>
   <g id="patch_68">
    <path d="M 290.544261 242.918125 
L 293.842156 242.918125 
L 293.842156 242.908202 
L 290.544261 242.908202 
z
" clip-path="url(#pa9c56eb34a)" style="fill: #1f77b4; stroke: #000000; stroke-linejoin: miter"/>
   </g>
   <g id="patch_69">
    <path d="M 293.842156 242.918125 
L 297.140075 242.918125 
L 297.140075 242.91151 
L 293.842156 242.91151 
z
" clip-path="url(#pa9c56eb34a)" style="fill: #1f77b4; stroke: #000000; stroke-linejoin: miter"/>
   </g>
   <g id="patch_70">
    <path d="M 297.140075 242.918125 
L 300.437969 242.918125 
L 300.437969 242.91151 
L 297.140075 242.91151 
z
" clip-path="url(#pa9c56eb34a)" style="fill: #1f77b4; stroke: #000000; stroke-linejoin: miter"/>
   </g>
   <g id="patch_71">
    <path d="M 300.437969 242.918125 
L 303.735888 242.918125 
L 303.735888 242.914817 
L 300.437969 242.914817 
z
" clip-path="url(#pa9c56eb34a)" style="fill: #1f77b4; stroke: #000000; stroke-linejoin: miter"/>
   </g>
   <g id="patch_72">
    <path d="M 303.735888 242.918125 
L 307.033807 242.918125 
L 307.033807 242.901587 
L 303.735888 242.901587 
z
" clip-path="url(#pa9c56eb34a)" style="fill: #1f77b4; stroke: #000000; stroke-linejoin: miter"/>
   </g>
   <g id="patch_73">
    <path d="M 307.033807 242.918125 
L 310.331701 242.918125 
L 310.331701 242.914817 
L 307.033807 242.914817 
z
" clip-path="url(#pa9c56eb34a)" style="fill: #1f77b4; stroke: #000000; stroke-linejoin: miter"/>
   </g>
   <g id="patch_74">
    <path d="M 310.331701 242.918125 
L 313.62962 242.918125 
L 313.62962 242.918125 
L 310.331701 242.918125 
z
" clip-path="url(#pa9c56eb34a)" style="fill: #1f77b4; stroke: #000000; stroke-linejoin: miter"/>
   </g>
   <g id="patch_75">
    <path d="M 313.62962 242.918125 
L 316.927514 242.918125 
L 316.927514 242.908202 
L 313.62962 242.908202 
z
" clip-path="url(#pa9c56eb34a)" style="fill: #1f77b4; stroke: #000000; stroke-linejoin: miter"/>
   </g>
   <g id="patch_76">
    <path d="M 316.927514 242.918125 
L 320.225433 242.918125 
L 320.225433 242.914817 
L 316.927514 242.914817 
z
" clip-path="url(#pa9c56eb34a)" style="fill: #1f77b4; stroke: #000000; stroke-linejoin: miter"/>
   </g>
   <g id="patch_77">
    <path d="M 320.225433 242.918125 
L 323.523352 242.918125 
L 323.523352 242.918125 
L 320.225433 242.918125 
z
" clip-path="url(#pa9c56eb34a)" style="fill: #1f77b4; stroke: #000000; stroke-linejoin: miter"/>
   </g>
   <g id="patch_78">
    <path d="M 323.523352 242.918125 
L 326.821247 242.918125 
L 326.821247 242.918125 
L 323.523352 242.918125 
z
" clip-path="url(#pa9c56eb34a)" style="fill: #1f77b4; stroke: #000000; stroke-linejoin: miter"/>
   </g>
   <g id="patch_79">
    <path d="M 326.821247 242.918125 
L 330.119166 242.918125 
L 330.119166 242.918125 
L 326.821247 242.918125 
z
" clip-path="url(#pa9c56eb34a)" style="fill: #1f77b4; stroke: #000000; stroke-linejoin: miter"/>
   </g>
   <g id="patch_80">
    <path d="M 330.119166 242.918125 
L 333.41706 242.918125 
L 333.41706 242.918125 
L 330.119166 242.918125 
z
" clip-path="url(#pa9c56eb34a)" style="fill: #1f77b4; stroke: #000000; stroke-linejoin: miter"/>
   </g>
   <g id="patch_81">
    <path d="M 333.41706 242.918125 
L 336.714979 242.918125 
L 336.714979 242.918125 
L 333.41706 242.918125 
z
" clip-path="url(#pa9c56eb34a)" style="fill: #1f77b4; stroke: #000000; stroke-linejoin: miter"/>
   </g>
   <g id="patch_82">
    <path d="M 336.714979 242.918125 
L 340.012898 242.918125 
L 340.012898 242.918125 
L 336.714979 242.918125 
z
" clip-path="url(#pa9c56eb34a)" style="fill: #1f77b4; stroke: #000000; stroke-linejoin: miter"/>
   </g>
   <g id="patch_83">
    <path d="M 340.012898 242.918125 
L 343.310792 242.918125 
L 343.310792 242.918125 
L 340.012898 242.918125 
z
" clip-path="url(#pa9c56eb34a)" style="fill: #1f77b4; stroke: #000000; stroke-linejoin: miter"/>
   </g>
   <g id="patch_84">
    <path d="M 343.310792 242.918125 
L 346.608711 242.918125 
L 346.608711 242.918125 
L 343.310792 242.918125 
z
" clip-path="url(#pa9c56eb34a)" style="fill: #1f77b4; stroke: #000000; stroke-linejoin: miter"/>
   </g>
   <g id="patch_85">
    <path d="M 346.608711 242.918125 
L 349.906605 242.918125 
L 349.906605 242.914817 
L 346.608711 242.914817 
z
" clip-path="url(#pa9c56eb34a)" style="fill: #1f77b4; stroke: #000000; stroke-linejoin: miter"/>
   </g>
   <g id="patch_86">
    <path d="M 349.906605 242.918125 
L 353.204524 242.918125 
L 353.204524 242.918125 
L 349.906605 242.918125 
z
" clip-path="url(#pa9c56eb34a)" style="fill: #1f77b4; stroke: #000000; stroke-linejoin: miter"/>
   </g>
   <g id="patch_87">
    <path d="M 353.204524 242.918125 
L 356.502418 242.918125 
L 356.502418 242.918125 
L 353.204524 242.918125 
z
" clip-path="url(#pa9c56eb34a)" style="fill: #1f77b4; stroke: #000000; stroke-linejoin: miter"/>
   </g>
   <g id="patch_88">
    <path d="M 356.502418 242.918125 
L 359.800337 242.918125 
L 359.800337 242.918125 
L 356.502418 242.918125 
z
" clip-path="url(#pa9c56eb34a)" style="fill: #1f77b4; stroke: #000000; stroke-linejoin: miter"/>
   </g>
   <g id="patch_89">
    <path d="M 359.800337 242.918125 
L 363.098256 242.918125 
L 363.098256 242.918125 
L 359.800337 242.918125 
z
" clip-path="url(#pa9c56eb34a)" style="fill: #1f77b4; stroke: #000000; stroke-linejoin: miter"/>
   </g>
   <g id="patch_90">
    <path d="M 363.098256 242.918125 
L 366.396151 242.918125 
L 366.396151 242.918125 
L 363.098256 242.918125 
z
" clip-path="url(#pa9c56eb34a)" style="fill: #1f77b4; stroke: #000000; stroke-linejoin: miter"/>
   </g>
   <g id="patch_91">
    <path d="M 366.396151 242.918125 
L 369.69407 242.918125 
L 369.69407 242.918125 
L 366.396151 242.918125 
z
" clip-path="url(#pa9c56eb34a)" style="fill: #1f77b4; stroke: #000000; stroke-linejoin: miter"/>
   </g>
   <g id="patch_92">
    <path d="M 369.69407 242.918125 
L 372.991964 242.918125 
L 372.991964 242.918125 
L 369.69407 242.918125 
z
" clip-path="url(#pa9c56eb34a)" style="fill: #1f77b4; stroke: #000000; stroke-linejoin: miter"/>
   </g>
   <g id="patch_93">
    <path d="M 372.991964 242.918125 
L 376.289883 242.918125 
L 376.289883 242.914817 
L 372.991964 242.914817 
z
" clip-path="url(#pa9c56eb34a)" style="fill: #1f77b4; stroke: #000000; stroke-linejoin: miter"/>
   </g>
   <g id="patch_94">
    <path d="M 376.289883 242.918125 
L 379.587802 242.918125 
L 379.587802 242.918125 
L 376.289883 242.918125 
z
" clip-path="url(#pa9c56eb34a)" style="fill: #1f77b4; stroke: #000000; stroke-linejoin: miter"/>
   </g>
   <g id="patch_95">
    <path d="M 379.587802 242.918125 
L 382.885696 242.918125 
L 382.885696 242.918125 
L 379.587802 242.918125 
z
" clip-path="url(#pa9c56eb34a)" style="fill: #1f77b4; stroke: #000000; stroke-linejoin: miter"/>
   </g>
   <g id="patch_96">
    <path d="M 382.885696 242.918125 
L 386.183615 242.918125 
L 386.183615 242.918125 
L 382.885696 242.918125 
z
" clip-path="url(#pa9c56eb34a)" style="fill: #1f77b4; stroke: #000000; stroke-linejoin: miter"/>
   </g>
   <g id="patch_97">
    <path d="M 386.183615 242.918125 
L 389.481509 242.918125 
L 389.481509 242.918125 
L 386.183615 242.918125 
z
" clip-path="url(#pa9c56eb34a)" style="fill: #1f77b4; stroke: #000000; stroke-linejoin: miter"/>
   </g>
   <g id="patch_98">
    <path d="M 389.481509 242.918125 
L 392.779428 242.918125 
L 392.779428 242.918125 
L 389.481509 242.918125 
z
" clip-path="url(#pa9c56eb34a)" style="fill: #1f77b4; stroke: #000000; stroke-linejoin: miter"/>
   </g>
   <g id="patch_99">
    <path d="M 392.779428 242.918125 
L 396.077347 242.918125 
L 396.077347 242.914817 
L 392.779428 242.914817 
z
" clip-path="url(#pa9c56eb34a)" style="fill: #1f77b4; stroke: #000000; stroke-linejoin: miter"/>
   </g>
   <g id="patch_100">
    <path d="M 396.077347 242.918125 
L 399.375242 242.918125 
L 399.375242 242.918125 
L 396.077347 242.918125 
z
" clip-path="url(#pa9c56eb34a)" style="fill: #1f77b4; stroke: #000000; stroke-linejoin: miter"/>
   </g>
   <g id="patch_101">
    <path d="M 399.375242 242.918125 
L 402.673161 242.918125 
L 402.673161 242.918125 
L 399.375242 242.918125 
z
" clip-path="url(#pa9c56eb34a)" style="fill: #1f77b4; stroke: #000000; stroke-linejoin: miter"/>
   </g>
   <g id="patch_102">
    <path d="M 402.673161 242.918125 
L 405.97108 242.918125 
L 405.97108 242.914817 
L 402.673161 242.914817 
z
" clip-path="url(#pa9c56eb34a)" style="fill: #1f77b4; stroke: #000000; stroke-linejoin: miter"/>
   </g>
   <g id="matplotlib.axis_1">
    <g id="xtick_1">
     <g id="line2d_1">
      <defs>
       <path id="md1e5ccc5f0" d="M 0 0 
L 0 3.5 
" style="stroke: #000000; stroke-width: 0.8"/>
      </defs>
      <g>
       <use xlink:href="#md1e5ccc5f0" x="76.18017" y="242.918125" style="stroke: #000000; stroke-width: 0.8"/>
      </g>
     </g>
     <g id="text_1">
      <!-- 0 -->
      <g transform="translate(72.99892 257.516563) scale(0.1 -0.1)">
       <defs>
        <path id="DejaVuSans-30" d="M 2034 4250 
Q 1547 4250 1301 3770 
Q 1056 3291 1056 2328 
Q 1056 1369 1301 889 
Q 1547 409 2034 409 
Q 2525 409 2770 889 
Q 3016 1369 3016 2328 
Q 3016 3291 2770 3770 
Q 2525 4250 2034 4250 
z
M 2034 4750 
Q 2819 4750 3233 4129 
Q 3647 3509 3647 2328 
Q 3647 1150 3233 529 
Q 2819 -91 2034 -91 
Q 1250 -91 836 529 
Q 422 1150 422 2328 
Q 422 3509 836 4129 
Q 1250 4750 2034 4750 
z
" transform="scale(0.015625)"/>
       </defs>
       <use xlink:href="#DejaVuSans-30"/>
      </g>
     </g>
    </g>
    <g id="xtick_2">
     <g id="line2d_2">
      <g>
       <use xlink:href="#md1e5ccc5f0" x="116.645313" y="242.918125" style="stroke: #000000; stroke-width: 0.8"/>
      </g>
     </g>
     <g id="text_2">
      <!-- 200 -->
      <g transform="translate(107.101563 257.516563) scale(0.1 -0.1)">
       <defs>
        <path id="DejaVuSans-32" d="M 1228 531 
L 3431 531 
L 3431 0 
L 469 0 
L 469 531 
Q 828 903 1448 1529 
Q 2069 2156 2228 2338 
Q 2531 2678 2651 2914 
Q 2772 3150 2772 3378 
Q 2772 3750 2511 3984 
Q 2250 4219 1831 4219 
Q 1534 4219 1204 4116 
Q 875 4013 500 3803 
L 500 4441 
Q 881 4594 1212 4672 
Q 1544 4750 1819 4750 
Q 2544 4750 2975 4387 
Q 3406 4025 3406 3419 
Q 3406 3131 3298 2873 
Q 3191 2616 2906 2266 
Q 2828 2175 2409 1742 
Q 1991 1309 1228 531 
z
" transform="scale(0.015625)"/>
       </defs>
       <use xlink:href="#DejaVuSans-32"/>
       <use xlink:href="#DejaVuSans-30" transform="translate(63.623047 0)"/>
       <use xlink:href="#DejaVuSans-30" transform="translate(127.246094 0)"/>
      </g>
     </g>
    </g>
    <g id="xtick_3">
     <g id="line2d_3">
      <g>
       <use xlink:href="#md1e5ccc5f0" x="157.110455" y="242.918125" style="stroke: #000000; stroke-width: 0.8"/>
      </g>
     </g>
     <g id="text_3">
      <!-- 400 -->
      <g transform="translate(147.566705 257.516563) scale(0.1 -0.1)">
       <defs>
        <path id="DejaVuSans-34" d="M 2419 4116 
L 825 1625 
L 2419 1625 
L 2419 4116 
z
M 2253 4666 
L 3047 4666 
L 3047 1625 
L 3713 1625 
L 3713 1100 
L 3047 1100 
L 3047 0 
L 2419 0 
L 2419 1100 
L 313 1100 
L 313 1709 
L 2253 4666 
z
" transform="scale(0.015625)"/>
       </defs>
       <use xlink:href="#DejaVuSans-34"/>
       <use xlink:href="#DejaVuSans-30" transform="translate(63.623047 0)"/>
       <use xlink:href="#DejaVuSans-30" transform="translate(127.246094 0)"/>
      </g>
     </g>
    </g>
    <g id="xtick_4">
     <g id="line2d_4">
      <g>
       <use xlink:href="#md1e5ccc5f0" x="197.575597" y="242.918125" style="stroke: #000000; stroke-width: 0.8"/>
      </g>
     </g>
     <g id="text_4">
      <!-- 600 -->
      <g transform="translate(188.031847 257.516563) scale(0.1 -0.1)">
       <defs>
        <path id="DejaVuSans-36" d="M 2113 2584 
Q 1688 2584 1439 2293 
Q 1191 2003 1191 1497 
Q 1191 994 1439 701 
Q 1688 409 2113 409 
Q 2538 409 2786 701 
Q 3034 994 3034 1497 
Q 3034 2003 2786 2293 
Q 2538 2584 2113 2584 
z
M 3366 4563 
L 3366 3988 
Q 3128 4100 2886 4159 
Q 2644 4219 2406 4219 
Q 1781 4219 1451 3797 
Q 1122 3375 1075 2522 
Q 1259 2794 1537 2939 
Q 1816 3084 2150 3084 
Q 2853 3084 3261 2657 
Q 3669 2231 3669 1497 
Q 3669 778 3244 343 
Q 2819 -91 2113 -91 
Q 1303 -91 875 529 
Q 447 1150 447 2328 
Q 447 3434 972 4092 
Q 1497 4750 2381 4750 
Q 2619 4750 2861 4703 
Q 3103 4656 3366 4563 
z
" transform="scale(0.015625)"/>
       </defs>
       <use xlink:href="#DejaVuSans-36"/>
       <use xlink:href="#DejaVuSans-30" transform="translate(63.623047 0)"/>
       <use xlink:href="#DejaVuSans-30" transform="translate(127.246094 0)"/>
      </g>
     </g>
    </g>
    <g id="xtick_5">
     <g id="line2d_5">
      <g>
       <use xlink:href="#md1e5ccc5f0" x="238.040739" y="242.918125" style="stroke: #000000; stroke-width: 0.8"/>
      </g>
     </g>
     <g id="text_5">
      <!-- 800 -->
      <g transform="translate(228.496989 257.516563) scale(0.1 -0.1)">
       <defs>
        <path id="DejaVuSans-38" d="M 2034 2216 
Q 1584 2216 1326 1975 
Q 1069 1734 1069 1313 
Q 1069 891 1326 650 
Q 1584 409 2034 409 
Q 2484 409 2743 651 
Q 3003 894 3003 1313 
Q 3003 1734 2745 1975 
Q 2488 2216 2034 2216 
z
M 1403 2484 
Q 997 2584 770 2862 
Q 544 3141 544 3541 
Q 544 4100 942 4425 
Q 1341 4750 2034 4750 
Q 2731 4750 3128 4425 
Q 3525 4100 3525 3541 
Q 3525 3141 3298 2862 
Q 3072 2584 2669 2484 
Q 3125 2378 3379 2068 
Q 3634 1759 3634 1313 
Q 3634 634 3220 271 
Q 2806 -91 2034 -91 
Q 1263 -91 848 271 
Q 434 634 434 1313 
Q 434 1759 690 2068 
Q 947 2378 1403 2484 
z
M 1172 3481 
Q 1172 3119 1398 2916 
Q 1625 2713 2034 2713 
Q 2441 2713 2670 2916 
Q 2900 3119 2900 3481 
Q 2900 3844 2670 4047 
Q 2441 4250 2034 4250 
Q 1625 4250 1398 4047 
Q 1172 3844 1172 3481 
z
" transform="scale(0.015625)"/>
       </defs>
       <use xlink:href="#DejaVuSans-38"/>
       <use xlink:href="#DejaVuSans-30" transform="translate(63.623047 0)"/>
       <use xlink:href="#DejaVuSans-30" transform="translate(127.246094 0)"/>
      </g>
     </g>
    </g>
    <g id="xtick_6">
     <g id="line2d_6">
      <g>
       <use xlink:href="#md1e5ccc5f0" x="278.505882" y="242.918125" style="stroke: #000000; stroke-width: 0.8"/>
      </g>
     </g>
     <g id="text_6">
      <!-- 1000 -->
      <g transform="translate(265.780882 257.516563) scale(0.1 -0.1)">
       <defs>
        <path id="DejaVuSans-31" d="M 794 531 
L 1825 531 
L 1825 4091 
L 703 3866 
L 703 4441 
L 1819 4666 
L 2450 4666 
L 2450 531 
L 3481 531 
L 3481 0 
L 794 0 
L 794 531 
z
" transform="scale(0.015625)"/>
       </defs>
       <use xlink:href="#DejaVuSans-31"/>
       <use xlink:href="#DejaVuSans-30" transform="translate(63.623047 0)"/>
       <use xlink:href="#DejaVuSans-30" transform="translate(127.246094 0)"/>
       <use xlink:href="#DejaVuSans-30" transform="translate(190.869141 0)"/>
      </g>
     </g>
    </g>
    <g id="xtick_7">
     <g id="line2d_7">
      <g>
       <use xlink:href="#md1e5ccc5f0" x="318.971024" y="242.918125" style="stroke: #000000; stroke-width: 0.8"/>
      </g>
     </g>
     <g id="text_7">
      <!-- 1200 -->
      <g transform="translate(306.246024 257.516563) scale(0.1 -0.1)">
       <use xlink:href="#DejaVuSans-31"/>
       <use xlink:href="#DejaVuSans-32" transform="translate(63.623047 0)"/>
       <use xlink:href="#DejaVuSans-30" transform="translate(127.246094 0)"/>
       <use xlink:href="#DejaVuSans-30" transform="translate(190.869141 0)"/>
      </g>
     </g>
    </g>
    <g id="xtick_8">
     <g id="line2d_8">
      <g>
       <use xlink:href="#md1e5ccc5f0" x="359.436166" y="242.918125" style="stroke: #000000; stroke-width: 0.8"/>
      </g>
     </g>
     <g id="text_8">
      <!-- 1400 -->
      <g transform="translate(346.711166 257.516563) scale(0.1 -0.1)">
       <use xlink:href="#DejaVuSans-31"/>
       <use xlink:href="#DejaVuSans-34" transform="translate(63.623047 0)"/>
       <use xlink:href="#DejaVuSans-30" transform="translate(127.246094 0)"/>
       <use xlink:href="#DejaVuSans-30" transform="translate(190.869141 0)"/>
      </g>
     </g>
    </g>
    <g id="xtick_9">
     <g id="line2d_9">
      <g>
       <use xlink:href="#md1e5ccc5f0" x="399.901308" y="242.918125" style="stroke: #000000; stroke-width: 0.8"/>
      </g>
     </g>
     <g id="text_9">
      <!-- 1600 -->
      <g transform="translate(387.176308 257.516563) scale(0.1 -0.1)">
       <use xlink:href="#DejaVuSans-31"/>
       <use xlink:href="#DejaVuSans-36" transform="translate(63.623047 0)"/>
       <use xlink:href="#DejaVuSans-30" transform="translate(127.246094 0)"/>
       <use xlink:href="#DejaVuSans-30" transform="translate(190.869141 0)"/>
      </g>
     </g>
    </g>
    <g id="text_10">
     <!-- Total counts -->
     <g transform="translate(211.099063 271.194687) scale(0.1 -0.1)">
      <defs>
       <path id="DejaVuSans-54" d="M -19 4666 
L 3928 4666 
L 3928 4134 
L 2272 4134 
L 2272 0 
L 1638 0 
L 1638 4134 
L -19 4134 
L -19 4666 
z
" transform="scale(0.015625)"/>
       <path id="DejaVuSans-6f" d="M 1959 3097 
Q 1497 3097 1228 2736 
Q 959 2375 959 1747 
Q 959 1119 1226 758 
Q 1494 397 1959 397 
Q 2419 397 2687 759 
Q 2956 1122 2956 1747 
Q 2956 2369 2687 2733 
Q 2419 3097 1959 3097 
z
M 1959 3584 
Q 2709 3584 3137 3096 
Q 3566 2609 3566 1747 
Q 3566 888 3137 398 
Q 2709 -91 1959 -91 
Q 1206 -91 779 398 
Q 353 888 353 1747 
Q 353 2609 779 3096 
Q 1206 3584 1959 3584 
z
" transform="scale(0.015625)"/>
       <path id="DejaVuSans-74" d="M 1172 4494 
L 1172 3500 
L 2356 3500 
L 2356 3053 
L 1172 3053 
L 1172 1153 
Q 1172 725 1289 603 
Q 1406 481 1766 481 
L 2356 481 
L 2356 0 
L 1766 0 
Q 1100 0 847 248 
Q 594 497 594 1153 
L 594 3053 
L 172 3053 
L 172 3500 
L 594 3500 
L 594 4494 
L 1172 4494 
z
" transform="scale(0.015625)"/>
       <path id="DejaVuSans-61" d="M 2194 1759 
Q 1497 1759 1228 1600 
Q 959 1441 959 1056 
Q 959 750 1161 570 
Q 1363 391 1709 391 
Q 2188 391 2477 730 
Q 2766 1069 2766 1631 
L 2766 1759 
L 2194 1759 
z
M 3341 1997 
L 3341 0 
L 2766 0 
L 2766 531 
Q 2569 213 2275 61 
Q 1981 -91 1556 -91 
Q 1019 -91 701 211 
Q 384 513 384 1019 
Q 384 1609 779 1909 
Q 1175 2209 1959 2209 
L 2766 2209 
L 2766 2266 
Q 2766 2663 2505 2880 
Q 2244 3097 1772 3097 
Q 1472 3097 1187 3025 
Q 903 2953 641 2809 
L 641 3341 
Q 956 3463 1253 3523 
Q 1550 3584 1831 3584 
Q 2591 3584 2966 3190 
Q 3341 2797 3341 1997 
z
" transform="scale(0.015625)"/>
       <path id="DejaVuSans-6c" d="M 603 4863 
L 1178 4863 
L 1178 0 
L 603 0 
L 603 4863 
z
" transform="scale(0.015625)"/>
       <path id="DejaVuSans-20" transform="scale(0.015625)"/>
       <path id="DejaVuSans-63" d="M 3122 3366 
L 3122 2828 
Q 2878 2963 2633 3030 
Q 2388 3097 2138 3097 
Q 1578 3097 1268 2742 
Q 959 2388 959 1747 
Q 959 1106 1268 751 
Q 1578 397 2138 397 
Q 2388 397 2633 464 
Q 2878 531 3122 666 
L 3122 134 
Q 2881 22 2623 -34 
Q 2366 -91 2075 -91 
Q 1284 -91 818 406 
Q 353 903 353 1747 
Q 353 2603 823 3093 
Q 1294 3584 2113 3584 
Q 2378 3584 2631 3529 
Q 2884 3475 3122 3366 
z
" transform="scale(0.015625)"/>
       <path id="DejaVuSans-75" d="M 544 1381 
L 544 3500 
L 1119 3500 
L 1119 1403 
Q 1119 906 1312 657 
Q 1506 409 1894 409 
Q 2359 409 2629 706 
Q 2900 1003 2900 1516 
L 2900 3500 
L 3475 3500 
L 3475 0 
L 2900 0 
L 2900 538 
Q 2691 219 2414 64 
Q 2138 -91 1772 -91 
Q 1169 -91 856 284 
Q 544 659 544 1381 
z
M 1991 3584 
L 1991 3584 
z
" transform="scale(0.015625)"/>
       <path id="DejaVuSans-6e" d="M 3513 2113 
L 3513 0 
L 2938 0 
L 2938 2094 
Q 2938 2591 2744 2837 
Q 2550 3084 2163 3084 
Q 1697 3084 1428 2787 
Q 1159 2491 1159 1978 
L 1159 0 
L 581 0 
L 581 3500 
L 1159 3500 
L 1159 2956 
Q 1366 3272 1645 3428 
Q 1925 3584 2291 3584 
Q 2894 3584 3203 3211 
Q 3513 2838 3513 2113 
z
" transform="scale(0.015625)"/>
       <path id="DejaVuSans-73" d="M 2834 3397 
L 2834 2853 
Q 2591 2978 2328 3040 
Q 2066 3103 1784 3103 
Q 1356 3103 1142 2972 
Q 928 2841 928 2578 
Q 928 2378 1081 2264 
Q 1234 2150 1697 2047 
L 1894 2003 
Q 2506 1872 2764 1633 
Q 3022 1394 3022 966 
Q 3022 478 2636 193 
Q 2250 -91 1575 -91 
Q 1294 -91 989 -36 
Q 684 19 347 128 
L 347 722 
Q 666 556 975 473 
Q 1284 391 1588 391 
Q 1994 391 2212 530 
Q 2431 669 2431 922 
Q 2431 1156 2273 1281 
Q 2116 1406 1581 1522 
L 1381 1569 
Q 847 1681 609 1914 
Q 372 2147 372 2553 
Q 372 3047 722 3315 
Q 1072 3584 1716 3584 
Q 2034 3584 2315 3537 
Q 2597 3491 2834 3397 
z
" transform="scale(0.015625)"/>
      </defs>
      <use xlink:href="#DejaVuSans-54"/>
      <use xlink:href="#DejaVuSans-6f" transform="translate(44.083984 0)"/>
      <use xlink:href="#DejaVuSans-74" transform="translate(105.265625 0)"/>
      <use xlink:href="#DejaVuSans-61" transform="translate(144.474609 0)"/>
      <use xlink:href="#DejaVuSans-6c" transform="translate(205.753906 0)"/>
      <use xlink:href="#DejaVuSans-20" transform="translate(233.537109 0)"/>
      <use xlink:href="#DejaVuSans-63" transform="translate(265.324219 0)"/>
      <use xlink:href="#DejaVuSans-6f" transform="translate(320.304688 0)"/>
      <use xlink:href="#DejaVuSans-75" transform="translate(381.486328 0)"/>
      <use xlink:href="#DejaVuSans-6e" transform="translate(444.865234 0)"/>
      <use xlink:href="#DejaVuSans-74" transform="translate(508.244141 0)"/>
      <use xlink:href="#DejaVuSans-73" transform="translate(547.453125 0)"/>
     </g>
    </g>
   </g>
   <g id="matplotlib.axis_2">
    <g id="ytick_1">
     <g id="line2d_10">
      <defs>
       <path id="mc610546560" d="M 0 0 
L -3.5 0 
" style="stroke: #000000; stroke-width: 0.8"/>
      </defs>
      <g>
       <use xlink:href="#mc610546560" x="59.690625" y="242.918125" style="stroke: #000000; stroke-width: 0.8"/>
      </g>
     </g>
     <g id="text_11">
      <!-- 0 -->
      <g transform="translate(46.328125 246.717344) scale(0.1 -0.1)">
       <use xlink:href="#DejaVuSans-30"/>
      </g>
     </g>
    </g>
    <g id="ytick_2">
     <g id="line2d_11">
      <g>
       <use xlink:href="#mc610546560" x="59.690625" y="209.842157" style="stroke: #000000; stroke-width: 0.8"/>
      </g>
     </g>
     <g id="text_12">
      <!-- 10000 -->
      <g transform="translate(20.878125 213.641376) scale(0.1 -0.1)">
       <use xlink:href="#DejaVuSans-31"/>
       <use xlink:href="#DejaVuSans-30" transform="translate(63.623047 0)"/>
       <use xlink:href="#DejaVuSans-30" transform="translate(127.246094 0)"/>
       <use xlink:href="#DejaVuSans-30" transform="translate(190.869141 0)"/>
       <use xlink:href="#DejaVuSans-30" transform="translate(254.492188 0)"/>
      </g>
     </g>
    </g>
    <g id="ytick_3">
     <g id="line2d_12">
      <g>
       <use xlink:href="#mc610546560" x="59.690625" y="176.76619" style="stroke: #000000; stroke-width: 0.8"/>
      </g>
     </g>
     <g id="text_13">
      <!-- 20000 -->
      <g transform="translate(20.878125 180.565409) scale(0.1 -0.1)">
       <use xlink:href="#DejaVuSans-32"/>
       <use xlink:href="#DejaVuSans-30" transform="translate(63.623047 0)"/>
       <use xlink:href="#DejaVuSans-30" transform="translate(127.246094 0)"/>
       <use xlink:href="#DejaVuSans-30" transform="translate(190.869141 0)"/>
       <use xlink:href="#DejaVuSans-30" transform="translate(254.492188 0)"/>
      </g>
     </g>
    </g>
    <g id="ytick_4">
     <g id="line2d_13">
      <g>
       <use xlink:href="#mc610546560" x="59.690625" y="143.690222" style="stroke: #000000; stroke-width: 0.8"/>
      </g>
     </g>
     <g id="text_14">
      <!-- 30000 -->
      <g transform="translate(20.878125 147.489441) scale(0.1 -0.1)">
       <defs>
        <path id="DejaVuSans-33" d="M 2597 2516 
Q 3050 2419 3304 2112 
Q 3559 1806 3559 1356 
Q 3559 666 3084 287 
Q 2609 -91 1734 -91 
Q 1441 -91 1130 -33 
Q 819 25 488 141 
L 488 750 
Q 750 597 1062 519 
Q 1375 441 1716 441 
Q 2309 441 2620 675 
Q 2931 909 2931 1356 
Q 2931 1769 2642 2001 
Q 2353 2234 1838 2234 
L 1294 2234 
L 1294 2753 
L 1863 2753 
Q 2328 2753 2575 2939 
Q 2822 3125 2822 3475 
Q 2822 3834 2567 4026 
Q 2313 4219 1838 4219 
Q 1578 4219 1281 4162 
Q 984 4106 628 3988 
L 628 4550 
Q 988 4650 1302 4700 
Q 1616 4750 1894 4750 
Q 2613 4750 3031 4423 
Q 3450 4097 3450 3541 
Q 3450 3153 3228 2886 
Q 3006 2619 2597 2516 
z
" transform="scale(0.015625)"/>
       </defs>
       <use xlink:href="#DejaVuSans-33"/>
       <use xlink:href="#DejaVuSans-30" transform="translate(63.623047 0)"/>
       <use xlink:href="#DejaVuSans-30" transform="translate(127.246094 0)"/>
       <use xlink:href="#DejaVuSans-30" transform="translate(190.869141 0)"/>
       <use xlink:href="#DejaVuSans-30" transform="translate(254.492188 0)"/>
      </g>
     </g>
    </g>
    <g id="ytick_5">
     <g id="line2d_14">
      <g>
       <use xlink:href="#mc610546560" x="59.690625" y="110.614255" style="stroke: #000000; stroke-width: 0.8"/>
      </g>
     </g>
     <g id="text_15">
      <!-- 40000 -->
      <g transform="translate(20.878125 114.413474) scale(0.1 -0.1)">
       <use xlink:href="#DejaVuSans-34"/>
       <use xlink:href="#DejaVuSans-30" transform="translate(63.623047 0)"/>
       <use xlink:href="#DejaVuSans-30" transform="translate(127.246094 0)"/>
       <use xlink:href="#DejaVuSans-30" transform="translate(190.869141 0)"/>
       <use xlink:href="#DejaVuSans-30" transform="translate(254.492188 0)"/>
      </g>
     </g>
    </g>
    <g id="ytick_6">
     <g id="line2d_15">
      <g>
       <use xlink:href="#mc610546560" x="59.690625" y="77.538287" style="stroke: #000000; stroke-width: 0.8"/>
      </g>
     </g>
     <g id="text_16">
      <!-- 50000 -->
      <g transform="translate(20.878125 81.337506) scale(0.1 -0.1)">
       <defs>
        <path id="DejaVuSans-35" d="M 691 4666 
L 3169 4666 
L 3169 4134 
L 1269 4134 
L 1269 2991 
Q 1406 3038 1543 3061 
Q 1681 3084 1819 3084 
Q 2600 3084 3056 2656 
Q 3513 2228 3513 1497 
Q 3513 744 3044 326 
Q 2575 -91 1722 -91 
Q 1428 -91 1123 -41 
Q 819 9 494 109 
L 494 744 
Q 775 591 1075 516 
Q 1375 441 1709 441 
Q 2250 441 2565 725 
Q 2881 1009 2881 1497 
Q 2881 1984 2565 2268 
Q 2250 2553 1709 2553 
Q 1456 2553 1204 2497 
Q 953 2441 691 2322 
L 691 4666 
z
" transform="scale(0.015625)"/>
       </defs>
       <use xlink:href="#DejaVuSans-35"/>
       <use xlink:href="#DejaVuSans-30" transform="translate(63.623047 0)"/>
       <use xlink:href="#DejaVuSans-30" transform="translate(127.246094 0)"/>
       <use xlink:href="#DejaVuSans-30" transform="translate(190.869141 0)"/>
       <use xlink:href="#DejaVuSans-30" transform="translate(254.492188 0)"/>
      </g>
     </g>
    </g>
    <g id="ytick_7">
     <g id="line2d_16">
      <g>
       <use xlink:href="#mc610546560" x="59.690625" y="44.46232" style="stroke: #000000; stroke-width: 0.8"/>
      </g>
     </g>
     <g id="text_17">
      <!-- 60000 -->
      <g transform="translate(20.878125 48.261539) scale(0.1 -0.1)">
       <use xlink:href="#DejaVuSans-36"/>
       <use xlink:href="#DejaVuSans-30" transform="translate(63.623047 0)"/>
       <use xlink:href="#DejaVuSans-30" transform="translate(127.246094 0)"/>
       <use xlink:href="#DejaVuSans-30" transform="translate(190.869141 0)"/>
       <use xlink:href="#DejaVuSans-30" transform="translate(254.492188 0)"/>
      </g>
     </g>
    </g>
    <g id="text_18">
     <!-- Number of cells -->
     <g transform="translate(14.798438 171.910313) rotate(-90) scale(0.1 -0.1)">
      <defs>
       <path id="DejaVuSans-4e" d="M 628 4666 
L 1478 4666 
L 3547 763 
L 3547 4666 
L 4159 4666 
L 4159 0 
L 3309 0 
L 1241 3903 
L 1241 0 
L 628 0 
L 628 4666 
z
" transform="scale(0.015625)"/>
       <path id="DejaVuSans-6d" d="M 3328 2828 
Q 3544 3216 3844 3400 
Q 4144 3584 4550 3584 
Q 5097 3584 5394 3201 
Q 5691 2819 5691 2113 
L 5691 0 
L 5113 0 
L 5113 2094 
Q 5113 2597 4934 2840 
Q 4756 3084 4391 3084 
Q 3944 3084 3684 2787 
Q 3425 2491 3425 1978 
L 3425 0 
L 2847 0 
L 2847 2094 
Q 2847 2600 2669 2842 
Q 2491 3084 2119 3084 
Q 1678 3084 1418 2786 
Q 1159 2488 1159 1978 
L 1159 0 
L 581 0 
L 581 3500 
L 1159 3500 
L 1159 2956 
Q 1356 3278 1631 3431 
Q 1906 3584 2284 3584 
Q 2666 3584 2933 3390 
Q 3200 3197 3328 2828 
z
" transform="scale(0.015625)"/>
       <path id="DejaVuSans-62" d="M 3116 1747 
Q 3116 2381 2855 2742 
Q 2594 3103 2138 3103 
Q 1681 3103 1420 2742 
Q 1159 2381 1159 1747 
Q 1159 1113 1420 752 
Q 1681 391 2138 391 
Q 2594 391 2855 752 
Q 3116 1113 3116 1747 
z
M 1159 2969 
Q 1341 3281 1617 3432 
Q 1894 3584 2278 3584 
Q 2916 3584 3314 3078 
Q 3713 2572 3713 1747 
Q 3713 922 3314 415 
Q 2916 -91 2278 -91 
Q 1894 -91 1617 61 
Q 1341 213 1159 525 
L 1159 0 
L 581 0 
L 581 4863 
L 1159 4863 
L 1159 2969 
z
" transform="scale(0.015625)"/>
       <path id="DejaVuSans-65" d="M 3597 1894 
L 3597 1613 
L 953 1613 
Q 991 1019 1311 708 
Q 1631 397 2203 397 
Q 2534 397 2845 478 
Q 3156 559 3463 722 
L 3463 178 
Q 3153 47 2828 -22 
Q 2503 -91 2169 -91 
Q 1331 -91 842 396 
Q 353 884 353 1716 
Q 353 2575 817 3079 
Q 1281 3584 2069 3584 
Q 2775 3584 3186 3129 
Q 3597 2675 3597 1894 
z
M 3022 2063 
Q 3016 2534 2758 2815 
Q 2500 3097 2075 3097 
Q 1594 3097 1305 2825 
Q 1016 2553 972 2059 
L 3022 2063 
z
" transform="scale(0.015625)"/>
       <path id="DejaVuSans-72" d="M 2631 2963 
Q 2534 3019 2420 3045 
Q 2306 3072 2169 3072 
Q 1681 3072 1420 2755 
Q 1159 2438 1159 1844 
L 1159 0 
L 581 0 
L 581 3500 
L 1159 3500 
L 1159 2956 
Q 1341 3275 1631 3429 
Q 1922 3584 2338 3584 
Q 2397 3584 2469 3576 
Q 2541 3569 2628 3553 
L 2631 2963 
z
" transform="scale(0.015625)"/>
       <path id="DejaVuSans-66" d="M 2375 4863 
L 2375 4384 
L 1825 4384 
Q 1516 4384 1395 4259 
Q 1275 4134 1275 3809 
L 1275 3500 
L 2222 3500 
L 2222 3053 
L 1275 3053 
L 1275 0 
L 697 0 
L 697 3053 
L 147 3053 
L 147 3500 
L 697 3500 
L 697 3744 
Q 697 4328 969 4595 
Q 1241 4863 1831 4863 
L 2375 4863 
z
" transform="scale(0.015625)"/>
      </defs>
      <use xlink:href="#DejaVuSans-4e"/>
      <use xlink:href="#DejaVuSans-75" transform="translate(74.804688 0)"/>
      <use xlink:href="#DejaVuSans-6d" transform="translate(138.183594 0)"/>
      <use xlink:href="#DejaVuSans-62" transform="translate(235.595703 0)"/>
      <use xlink:href="#DejaVuSans-65" transform="translate(299.072266 0)"/>
      <use xlink:href="#DejaVuSans-72" transform="translate(360.595703 0)"/>
      <use xlink:href="#DejaVuSans-20" transform="translate(401.708984 0)"/>
      <use xlink:href="#DejaVuSans-6f" transform="translate(433.496094 0)"/>
      <use xlink:href="#DejaVuSans-66" transform="translate(494.677734 0)"/>
      <use xlink:href="#DejaVuSans-20" transform="translate(529.882812 0)"/>
      <use xlink:href="#DejaVuSans-63" transform="translate(561.669922 0)"/>
      <use xlink:href="#DejaVuSans-65" transform="translate(616.650391 0)"/>
      <use xlink:href="#DejaVuSans-6c" transform="translate(678.173828 0)"/>
      <use xlink:href="#DejaVuSans-6c" transform="translate(705.957031 0)"/>
      <use xlink:href="#DejaVuSans-73" transform="translate(733.740234 0)"/>
     </g>
    </g>
   </g>
   <g id="patch_103">
    <path d="M 59.690625 242.918125 
L 59.690625 22.318125 
" style="fill: none; stroke: #000000; stroke-width: 0.8; stroke-linejoin: miter; stroke-linecap: square"/>
   </g>
   <g id="patch_104">
    <path d="M 422.460625 242.918125 
L 422.460625 22.318125 
" style="fill: none; stroke: #000000; stroke-width: 0.8; stroke-linejoin: miter; stroke-linecap: square"/>
   </g>
   <g id="patch_105">
    <path d="M 59.690625 242.918125 
L 422.460625 242.918125 
" style="fill: none; stroke: #000000; stroke-width: 0.8; stroke-linejoin: miter; stroke-linecap: square"/>
   </g>
   <g id="patch_106">
    <path d="M 59.690625 22.318125 
L 422.460625 22.318125 
" style="fill: none; stroke: #000000; stroke-width: 0.8; stroke-linejoin: miter; stroke-linecap: square"/>
   </g>
   <g id="text_19">
    <!-- human_gbm - Total counts per cell -->
    <g transform="translate(137.628125 16.318125) scale(0.12 -0.12)">
     <defs>
      <path id="DejaVuSans-68" d="M 3513 2113 
L 3513 0 
L 2938 0 
L 2938 2094 
Q 2938 2591 2744 2837 
Q 2550 3084 2163 3084 
Q 1697 3084 1428 2787 
Q 1159 2491 1159 1978 
L 1159 0 
L 581 0 
L 581 4863 
L 1159 4863 
L 1159 2956 
Q 1366 3272 1645 3428 
Q 1925 3584 2291 3584 
Q 2894 3584 3203 3211 
Q 3513 2838 3513 2113 
z
" transform="scale(0.015625)"/>
      <path id="DejaVuSans-5f" d="M 3263 -1063 
L 3263 -1509 
L -63 -1509 
L -63 -1063 
L 3263 -1063 
z
" transform="scale(0.015625)"/>
      <path id="DejaVuSans-67" d="M 2906 1791 
Q 2906 2416 2648 2759 
Q 2391 3103 1925 3103 
Q 1463 3103 1205 2759 
Q 947 2416 947 1791 
Q 947 1169 1205 825 
Q 1463 481 1925 481 
Q 2391 481 2648 825 
Q 2906 1169 2906 1791 
z
M 3481 434 
Q 3481 -459 3084 -895 
Q 2688 -1331 1869 -1331 
Q 1566 -1331 1297 -1286 
Q 1028 -1241 775 -1147 
L 775 -588 
Q 1028 -725 1275 -790 
Q 1522 -856 1778 -856 
Q 2344 -856 2625 -561 
Q 2906 -266 2906 331 
L 2906 616 
Q 2728 306 2450 153 
Q 2172 0 1784 0 
Q 1141 0 747 490 
Q 353 981 353 1791 
Q 353 2603 747 3093 
Q 1141 3584 1784 3584 
Q 2172 3584 2450 3431 
Q 2728 3278 2906 2969 
L 2906 3500 
L 3481 3500 
L 3481 434 
z
" transform="scale(0.015625)"/>
      <path id="DejaVuSans-2d" d="M 313 2009 
L 1997 2009 
L 1997 1497 
L 313 1497 
L 313 2009 
z
" transform="scale(0.015625)"/>
      <path id="DejaVuSans-70" d="M 1159 525 
L 1159 -1331 
L 581 -1331 
L 581 3500 
L 1159 3500 
L 1159 2969 
Q 1341 3281 1617 3432 
Q 1894 3584 2278 3584 
Q 2916 3584 3314 3078 
Q 3713 2572 3713 1747 
Q 3713 922 3314 415 
Q 2916 -91 2278 -91 
Q 1894 -91 1617 61 
Q 1341 213 1159 525 
z
M 3116 1747 
Q 3116 2381 2855 2742 
Q 2594 3103 2138 3103 
Q 1681 3103 1420 2742 
Q 1159 2381 1159 1747 
Q 1159 1113 1420 752 
Q 1681 391 2138 391 
Q 2594 391 2855 752 
Q 3116 1113 3116 1747 
z
" transform="scale(0.015625)"/>
     </defs>
     <use xlink:href="#DejaVuSans-68"/>
     <use xlink:href="#DejaVuSans-75" transform="translate(63.378906 0)"/>
     <use xlink:href="#DejaVuSans-6d" transform="translate(126.757812 0)"/>
     <use xlink:href="#DejaVuSans-61" transform="translate(224.169922 0)"/>
     <use xlink:href="#DejaVuSans-6e" transform="translate(285.449219 0)"/>
     <use xlink:href="#DejaVuSans-5f" transform="translate(348.828125 0)"/>
     <use xlink:href="#DejaVuSans-67" transform="translate(398.828125 0)"/>
     <use xlink:href="#DejaVuSans-62" transform="translate(462.304688 0)"/>
     <use xlink:href="#DejaVuSans-6d" transform="translate(525.78125 0)"/>
     <use xlink:href="#DejaVuSans-20" transform="translate(623.193359 0)"/>
     <use xlink:href="#DejaVuSans-2d" transform="translate(654.980469 0)"/>
     <use xlink:href="#DejaVuSans-20" transform="translate(691.064453 0)"/>
     <use xlink:href="#DejaVuSans-54" transform="translate(722.851562 0)"/>
     <use xlink:href="#DejaVuSans-6f" transform="translate(766.935547 0)"/>
     <use xlink:href="#DejaVuSans-74" transform="translate(828.117188 0)"/>
     <use xlink:href="#DejaVuSans-61" transform="translate(867.326172 0)"/>
     <use xlink:href="#DejaVuSans-6c" transform="translate(928.605469 0)"/>
     <use xlink:href="#DejaVuSans-20" transform="translate(956.388672 0)"/>
     <use xlink:href="#DejaVuSans-63" transform="translate(988.175781 0)"/>
     <use xlink:href="#DejaVuSans-6f" transform="translate(1043.15625 0)"/>
     <use xlink:href="#DejaVuSans-75" transform="translate(1104.337891 0)"/>
     <use xlink:href="#DejaVuSans-6e" transform="translate(1167.716797 0)"/>
     <use xlink:href="#DejaVuSans-74" transform="translate(1231.095703 0)"/>
     <use xlink:href="#DejaVuSans-73" transform="translate(1270.304688 0)"/>
     <use xlink:href="#DejaVuSans-20" transform="translate(1322.404297 0)"/>
     <use xlink:href="#DejaVuSans-70" transform="translate(1354.191406 0)"/>
     <use xlink:href="#DejaVuSans-65" transform="translate(1417.667969 0)"/>
     <use xlink:href="#DejaVuSans-72" transform="translate(1479.191406 0)"/>
     <use xlink:href="#DejaVuSans-20" transform="translate(1520.304688 0)"/>
     <use xlink:href="#DejaVuSans-63" transform="translate(1552.091797 0)"/>
     <use xlink:href="#DejaVuSans-65" transform="translate(1607.072266 0)"/>
     <use xlink:href="#DejaVuSans-6c" transform="translate(1668.595703 0)"/>
     <use xlink:href="#DejaVuSans-6c" transform="translate(1696.378906 0)"/>
    </g>
   </g>
  </g>
  <g id="axes_2">
   <g id="patch_107">
    <path d="M 486.290625 242.918125 
L 849.060625 242.918125 
L 849.060625 22.318125 
L 486.290625 22.318125 
z
" style="fill: #ffffff"/>
   </g>
   <g id="patch_108">
    <path d="M 502.78017 242.918125 
L 506.07808 242.918125 
L 506.07808 238.827704 
L 502.78017 238.827704 
z
" clip-path="url(#p7f41b774e8)" style="fill: #1f77b4; stroke: #000000; stroke-linejoin: miter"/>
   </g>
   <g id="patch_109">
    <path d="M 506.07808 242.918125 
L 509.375989 242.918125 
L 509.375989 240.879598 
L 506.07808 240.879598 
z
" clip-path="url(#p7f41b774e8)" style="fill: #1f77b4; stroke: #000000; stroke-linejoin: miter"/>
   </g>
   <g id="patch_110">
    <path d="M 509.375989 242.918125 
L 512.673898 242.918125 
L 512.673898 240.511995 
L 509.375989 240.511995 
z
" clip-path="url(#p7f41b774e8)" style="fill: #1f77b4; stroke: #000000; stroke-linejoin: miter"/>
   </g>
   <g id="patch_111">
    <path d="M 512.673898 242.918125 
L 515.971807 242.918125 
L 515.971807 239.382451 
L 512.673898 239.382451 
z
" clip-path="url(#p7f41b774e8)" style="fill: #1f77b4; stroke: #000000; stroke-linejoin: miter"/>
   </g>
   <g id="patch_112">
    <path d="M 515.971807 242.918125 
L 519.269716 242.918125 
L 519.269716 238.139284 
L 515.971807 238.139284 
z
" clip-path="url(#p7f41b774e8)" style="fill: #1f77b4; stroke: #000000; stroke-linejoin: miter"/>
   </g>
   <g id="patch_113">
    <path d="M 519.269716 242.918125 
L 522.567625 242.918125 
L 522.567625 236.495095 
L 519.269716 236.495095 
z
" clip-path="url(#p7f41b774e8)" style="fill: #1f77b4; stroke: #000000; stroke-linejoin: miter"/>
   </g>
   <g id="patch_114">
    <path d="M 522.567625 242.918125 
L 525.865534 242.918125 
L 525.865534 233.200034 
L 522.567625 233.200034 
z
" clip-path="url(#p7f41b774e8)" style="fill: #1f77b4; stroke: #000000; stroke-linejoin: miter"/>
   </g>
   <g id="patch_115">
    <path d="M 525.865534 242.918125 
L 529.163443 242.918125 
L 529.163443 230.199055 
L 525.865534 230.199055 
z
" clip-path="url(#p7f41b774e8)" style="fill: #1f77b4; stroke: #000000; stroke-linejoin: miter"/>
   </g>
   <g id="patch_116">
    <path d="M 529.163443 242.918125 
L 532.461352 242.918125 
L 532.461352 226.456187 
L 529.163443 226.456187 
z
" clip-path="url(#p7f41b774e8)" style="fill: #1f77b4; stroke: #000000; stroke-linejoin: miter"/>
   </g>
   <g id="patch_117">
    <path d="M 532.461352 242.918125 
L 535.759261 242.918125 
L 535.759261 221.376579 
L 532.461352 221.376579 
z
" clip-path="url(#p7f41b774e8)" style="fill: #1f77b4; stroke: #000000; stroke-linejoin: miter"/>
   </g>
   <g id="patch_118">
    <path d="M 535.759261 242.918125 
L 539.05717 242.918125 
L 539.05717 216.444013 
L 535.759261 216.444013 
z
" clip-path="url(#p7f41b774e8)" style="fill: #1f77b4; stroke: #000000; stroke-linejoin: miter"/>
   </g>
   <g id="patch_119">
    <path d="M 539.05717 242.918125 
L 542.35508 242.918125 
L 542.35508 208.844653 
L 539.05717 208.844653 
z
" clip-path="url(#p7f41b774e8)" style="fill: #1f77b4; stroke: #000000; stroke-linejoin: miter"/>
   </g>
   <g id="patch_120">
    <path d="M 542.35508 242.918125 
L 545.652989 242.918125 
L 545.652989 203.61132 
L 542.35508 203.61132 
z
" clip-path="url(#p7f41b774e8)" style="fill: #1f77b4; stroke: #000000; stroke-linejoin: miter"/>
   </g>
   <g id="patch_121">
    <path d="M 545.652989 242.918125 
L 548.950898 242.918125 
L 548.950898 194.822263 
L 545.652989 194.822263 
z
" clip-path="url(#p7f41b774e8)" style="fill: #1f77b4; stroke: #000000; stroke-linejoin: miter"/>
   </g>
   <g id="patch_122">
    <path d="M 548.950898 242.918125 
L 552.248807 242.918125 
L 552.248807 186.507747 
L 548.950898 186.507747 
z
" clip-path="url(#p7f41b774e8)" style="fill: #1f77b4; stroke: #000000; stroke-linejoin: miter"/>
   </g>
   <g id="patch_123">
    <path d="M 552.248807 242.918125 
L 555.546716 242.918125 
L 555.546716 176.094552 
L 552.248807 176.094552 
z
" clip-path="url(#p7f41b774e8)" style="fill: #1f77b4; stroke: #000000; stroke-linejoin: miter"/>
   </g>
   <g id="patch_124">
    <path d="M 555.546716 242.918125 
L 558.844625 242.918125 
L 558.844625 167.78672 
L 555.546716 167.78672 
z
" clip-path="url(#p7f41b774e8)" style="fill: #1f77b4; stroke: #000000; stroke-linejoin: miter"/>
   </g>
   <g id="patch_125">
    <path d="M 558.844625 242.918125 
L 562.142534 242.918125 
L 562.142534 156.203879 
L 558.844625 156.203879 
z
" clip-path="url(#p7f41b774e8)" style="fill: #1f77b4; stroke: #000000; stroke-linejoin: miter"/>
   </g>
   <g id="patch_126">
    <path d="M 562.142534 242.918125 
L 565.440443 242.918125 
L 565.440443 143.899198 
L 562.142534 143.899198 
z
" clip-path="url(#p7f41b774e8)" style="fill: #1f77b4; stroke: #000000; stroke-linejoin: miter"/>
   </g>
   <g id="patch_127">
    <path d="M 565.440443 242.918125 
L 568.738352 242.918125 
L 568.738352 133.018144 
L 565.440443 133.018144 
z
" clip-path="url(#p7f41b774e8)" style="fill: #1f77b4; stroke: #000000; stroke-linejoin: miter"/>
   </g>
   <g id="patch_128">
    <path d="M 568.738352 242.918125 
L 572.036261 242.918125 
L 572.036261 55.614284 
L 568.738352 55.614284 
z
" clip-path="url(#p7f41b774e8)" style="fill: #1f77b4; stroke: #000000; stroke-linejoin: miter"/>
   </g>
   <g id="patch_129">
    <path d="M 572.036261 242.918125 
L 575.33417 242.918125 
L 575.33417 103.817085 
L 572.036261 103.817085 
z
" clip-path="url(#p7f41b774e8)" style="fill: #1f77b4; stroke: #000000; stroke-linejoin: miter"/>
   </g>
   <g id="patch_130">
    <path d="M 575.33417 242.918125 
L 578.63208 242.918125 
L 578.63208 93.263532 
L 575.33417 93.263532 
z
" clip-path="url(#p7f41b774e8)" style="fill: #1f77b4; stroke: #000000; stroke-linejoin: miter"/>
   </g>
   <g id="patch_131">
    <path d="M 578.63208 242.918125 
L 581.929989 242.918125 
L 581.929989 80.029818 
L 578.63208 80.029818 
z
" clip-path="url(#p7f41b774e8)" style="fill: #1f77b4; stroke: #000000; stroke-linejoin: miter"/>
   </g>
   <g id="patch_132">
    <path d="M 581.929989 242.918125 
L 585.227898 242.918125 
L 585.227898 70.345145 
L 581.929989 70.345145 
z
" clip-path="url(#p7f41b774e8)" style="fill: #1f77b4; stroke: #000000; stroke-linejoin: miter"/>
   </g>
   <g id="patch_133">
    <path d="M 585.227898 242.918125 
L 588.525807 242.918125 
L 588.525807 61.061494 
L 585.227898 61.061494 
z
" clip-path="url(#p7f41b774e8)" style="fill: #1f77b4; stroke: #000000; stroke-linejoin: miter"/>
   </g>
   <g id="patch_134">
    <path d="M 588.525807 242.918125 
L 591.823716 242.918125 
L 591.823716 50.554727 
L 588.525807 50.554727 
z
" clip-path="url(#p7f41b774e8)" style="fill: #1f77b4; stroke: #000000; stroke-linejoin: miter"/>
   </g>
   <g id="patch_135">
    <path d="M 591.823716 242.918125 
L 595.121625 242.918125 
L 595.121625 44.619607 
L 591.823716 44.619607 
z
" clip-path="url(#p7f41b774e8)" style="fill: #1f77b4; stroke: #000000; stroke-linejoin: miter"/>
   </g>
   <g id="patch_136">
    <path d="M 595.121625 242.918125 
L 598.419534 242.918125 
L 598.419534 39.159029 
L 595.121625 39.159029 
z
" clip-path="url(#p7f41b774e8)" style="fill: #1f77b4; stroke: #000000; stroke-linejoin: miter"/>
   </g>
   <g id="patch_137">
    <path d="M 598.419534 242.918125 
L 601.717443 242.918125 
L 601.717443 35.523099 
L 598.419534 35.523099 
z
" clip-path="url(#p7f41b774e8)" style="fill: #1f77b4; stroke: #000000; stroke-linejoin: miter"/>
   </g>
   <g id="patch_138">
    <path d="M 601.717443 242.918125 
L 605.015352 242.918125 
L 605.015352 32.822887 
L 601.717443 32.822887 
z
" clip-path="url(#p7f41b774e8)" style="fill: #1f77b4; stroke: #000000; stroke-linejoin: miter"/>
   </g>
   <g id="patch_139">
    <path d="M 605.015352 242.918125 
L 608.313261 242.918125 
L 608.313261 34.453708 
L 605.015352 34.453708 
z
" clip-path="url(#p7f41b774e8)" style="fill: #1f77b4; stroke: #000000; stroke-linejoin: miter"/>
   </g>
   <g id="patch_140">
    <path d="M 608.313261 242.918125 
L 611.61117 242.918125 
L 611.61117 36.438765 
L 608.313261 36.438765 
z
" clip-path="url(#p7f41b774e8)" style="fill: #1f77b4; stroke: #000000; stroke-linejoin: miter"/>
   </g>
   <g id="patch_141">
    <path d="M 611.61117 242.918125 
L 614.90908 242.918125 
L 614.90908 40.53587 
L 611.61117 40.53587 
z
" clip-path="url(#p7f41b774e8)" style="fill: #1f77b4; stroke: #000000; stroke-linejoin: miter"/>
   </g>
   <g id="patch_142">
    <path d="M 614.90908 242.918125 
L 618.206989 242.918125 
L 618.206989 45.795937 
L 614.90908 45.795937 
z
" clip-path="url(#p7f41b774e8)" style="fill: #1f77b4; stroke: #000000; stroke-linejoin: miter"/>
   </g>
   <g id="patch_143">
    <path d="M 618.206989 242.918125 
L 621.504898 242.918125 
L 621.504898 54.772138 
L 618.206989 54.772138 
z
" clip-path="url(#p7f41b774e8)" style="fill: #1f77b4; stroke: #000000; stroke-linejoin: miter"/>
   </g>
   <g id="patch_144">
    <path d="M 621.504898 242.918125 
L 624.802807 242.918125 
L 624.802807 63.267113 
L 621.504898 63.267113 
z
" clip-path="url(#p7f41b774e8)" style="fill: #1f77b4; stroke: #000000; stroke-linejoin: miter"/>
   </g>
   <g id="patch_145">
    <path d="M 624.802807 242.918125 
L 628.100716 242.918125 
L 628.100716 76.039652 
L 624.802807 76.039652 
z
" clip-path="url(#p7f41b774e8)" style="fill: #1f77b4; stroke: #000000; stroke-linejoin: miter"/>
   </g>
   <g id="patch_146">
    <path d="M 628.100716 242.918125 
L 631.398625 242.918125 
L 631.398625 85.336671 
L 628.100716 85.336671 
z
" clip-path="url(#p7f41b774e8)" style="fill: #1f77b4; stroke: #000000; stroke-linejoin: miter"/>
   </g>
   <g id="patch_147">
    <path d="M 631.398625 242.918125 
L 634.696534 242.918125 
L 634.696534 96.558593 
L 631.398625 96.558593 
z
" clip-path="url(#p7f41b774e8)" style="fill: #1f77b4; stroke: #000000; stroke-linejoin: miter"/>
   </g>
   <g id="patch_148">
    <path d="M 634.696534 242.918125 
L 637.994443 242.918125 
L 637.994443 45.809304 
L 634.696534 45.809304 
z
" clip-path="url(#p7f41b774e8)" style="fill: #1f77b4; stroke: #000000; stroke-linejoin: miter"/>
   </g>
   <g id="patch_149">
    <path d="M 637.994443 242.918125 
L 641.292352 242.918125 
L 641.292352 125.879959 
L 637.994443 125.879959 
z
" clip-path="url(#p7f41b774e8)" style="fill: #1f77b4; stroke: #000000; stroke-linejoin: miter"/>
   </g>
   <g id="patch_150">
    <path d="M 641.292352 242.918125 
L 644.590261 242.918125 
L 644.590261 138.933213 
L 641.292352 138.933213 
z
" clip-path="url(#p7f41b774e8)" style="fill: #1f77b4; stroke: #000000; stroke-linejoin: miter"/>
   </g>
   <g id="patch_151">
    <path d="M 644.590261 242.918125 
L 647.88817 242.918125 
L 647.88817 148.82508 
L 644.590261 148.82508 
z
" clip-path="url(#p7f41b774e8)" style="fill: #1f77b4; stroke: #000000; stroke-linejoin: miter"/>
   </g>
   <g id="patch_152">
    <path d="M 647.88817 242.918125 
L 651.18608 242.918125 
L 651.18608 161.644406 
L 647.88817 161.644406 
z
" clip-path="url(#p7f41b774e8)" style="fill: #1f77b4; stroke: #000000; stroke-linejoin: miter"/>
   </g>
   <g id="patch_153">
    <path d="M 651.18608 242.918125 
L 654.483989 242.918125 
L 654.483989 171.055047 
L 651.18608 171.055047 
z
" clip-path="url(#p7f41b774e8)" style="fill: #1f77b4; stroke: #000000; stroke-linejoin: miter"/>
   </g>
   <g id="patch_154">
    <path d="M 654.483989 242.918125 
L 657.781898 242.918125 
L 657.781898 178.821499 
L 654.483989 178.821499 
z
" clip-path="url(#p7f41b774e8)" style="fill: #1f77b4; stroke: #000000; stroke-linejoin: miter"/>
   </g>
   <g id="patch_155">
    <path d="M 657.781898 242.918125 
L 661.079807 242.918125 
L 661.079807 187.603873 
L 657.781898 187.603873 
z
" clip-path="url(#p7f41b774e8)" style="fill: #1f77b4; stroke: #000000; stroke-linejoin: miter"/>
   </g>
   <g id="patch_156">
    <path d="M 661.079807 242.918125 
L 664.377716 242.918125 
L 664.377716 195.557469 
L 661.079807 195.557469 
z
" clip-path="url(#p7f41b774e8)" style="fill: #1f77b4; stroke: #000000; stroke-linejoin: miter"/>
   </g>
   <g id="patch_157">
    <path d="M 664.377716 242.918125 
L 667.675625 242.918125 
L 667.675625 202.876114 
L 664.377716 202.876114 
z
" clip-path="url(#p7f41b774e8)" style="fill: #1f77b4; stroke: #000000; stroke-linejoin: miter"/>
   </g>
   <g id="patch_158">
    <path d="M 667.675625 242.918125 
L 670.973534 242.918125 
L 670.973534 208.376794 
L 667.675625 208.376794 
z
" clip-path="url(#p7f41b774e8)" style="fill: #1f77b4; stroke: #000000; stroke-linejoin: miter"/>
   </g>
   <g id="patch_159">
    <path d="M 670.973534 242.918125 
L 674.271443 242.918125 
L 674.271443 214.318598 
L 670.973534 214.318598 
z
" clip-path="url(#p7f41b774e8)" style="fill: #1f77b4; stroke: #000000; stroke-linejoin: miter"/>
   </g>
   <g id="patch_160">
    <path d="M 674.271443 242.918125 
L 677.569352 242.918125 
L 677.569352 217.987946 
L 674.271443 217.987946 
z
" clip-path="url(#p7f41b774e8)" style="fill: #1f77b4; stroke: #000000; stroke-linejoin: miter"/>
   </g>
   <g id="patch_161">
    <path d="M 677.569352 242.918125 
L 680.867261 242.918125 
L 680.867261 223.328218 
L 677.569352 223.328218 
z
" clip-path="url(#p7f41b774e8)" style="fill: #1f77b4; stroke: #000000; stroke-linejoin: miter"/>
   </g>
   <g id="patch_162">
    <path d="M 680.867261 242.918125 
L 684.16517 242.918125 
L 684.16517 226.088583 
L 680.867261 226.088583 
z
" clip-path="url(#p7f41b774e8)" style="fill: #1f77b4; stroke: #000000; stroke-linejoin: miter"/>
   </g>
   <g id="patch_163">
    <path d="M 684.16517 242.918125 
L 687.46308 242.918125 
L 687.46308 228.427876 
L 684.16517 228.427876 
z
" clip-path="url(#p7f41b774e8)" style="fill: #1f77b4; stroke: #000000; stroke-linejoin: miter"/>
   </g>
   <g id="patch_164">
    <path d="M 687.46308 242.918125 
L 690.760989 242.918125 
L 690.760989 230.753802 
L 687.46308 230.753802 
z
" clip-path="url(#p7f41b774e8)" style="fill: #1f77b4; stroke: #000000; stroke-linejoin: miter"/>
   </g>
   <g id="patch_165">
    <path d="M 690.760989 242.918125 
L 694.058898 242.918125 
L 694.058898 232.899268 
L 690.760989 232.899268 
z
" clip-path="url(#p7f41b774e8)" style="fill: #1f77b4; stroke: #000000; stroke-linejoin: miter"/>
   </g>
   <g id="patch_166">
    <path d="M 694.058898 242.918125 
L 697.356807 242.918125 
L 697.356807 234.596926 
L 694.058898 234.596926 
z
" clip-path="url(#p7f41b774e8)" style="fill: #1f77b4; stroke: #000000; stroke-linejoin: miter"/>
   </g>
   <g id="patch_167">
    <path d="M 697.356807 242.918125 
L 700.654716 242.918125 
L 700.654716 236.495095 
L 697.356807 236.495095 
z
" clip-path="url(#p7f41b774e8)" style="fill: #1f77b4; stroke: #000000; stroke-linejoin: miter"/>
   </g>
   <g id="patch_168">
    <path d="M 700.654716 242.918125 
L 703.952625 242.918125 
L 703.952625 235.65295 
L 700.654716 235.65295 
z
" clip-path="url(#p7f41b774e8)" style="fill: #1f77b4; stroke: #000000; stroke-linejoin: miter"/>
   </g>
   <g id="patch_169">
    <path d="M 703.952625 242.918125 
L 707.250534 242.918125 
L 707.250534 239.081685 
L 703.952625 239.081685 
z
" clip-path="url(#p7f41b774e8)" style="fill: #1f77b4; stroke: #000000; stroke-linejoin: miter"/>
   </g>
   <g id="patch_170">
    <path d="M 707.250534 242.918125 
L 710.548443 242.918125 
L 710.548443 239.963932 
L 707.250534 239.963932 
z
" clip-path="url(#p7f41b774e8)" style="fill: #1f77b4; stroke: #000000; stroke-linejoin: miter"/>
   </g>
   <g id="patch_171">
    <path d="M 710.548443 242.918125 
L 713.846352 242.918125 
L 713.846352 240.558781 
L 710.548443 240.558781 
z
" clip-path="url(#p7f41b774e8)" style="fill: #1f77b4; stroke: #000000; stroke-linejoin: miter"/>
   </g>
   <g id="patch_172">
    <path d="M 713.846352 242.918125 
L 717.144261 242.918125 
L 717.144261 240.745924 
L 713.846352 240.745924 
z
" clip-path="url(#p7f41b774e8)" style="fill: #1f77b4; stroke: #000000; stroke-linejoin: miter"/>
   </g>
   <g id="patch_173">
    <path d="M 717.144261 242.918125 
L 720.44217 242.918125 
L 720.44217 241.146946 
L 717.144261 241.146946 
z
" clip-path="url(#p7f41b774e8)" style="fill: #1f77b4; stroke: #000000; stroke-linejoin: miter"/>
   </g>
   <g id="patch_174">
    <path d="M 720.44217 242.918125 
L 723.74008 242.918125 
L 723.74008 241.40761 
L 720.44217 241.40761 
z
" clip-path="url(#p7f41b774e8)" style="fill: #1f77b4; stroke: #000000; stroke-linejoin: miter"/>
   </g>
   <g id="patch_175">
    <path d="M 723.74008 242.918125 
L 727.037989 242.918125 
L 727.037989 241.654907 
L 723.74008 241.654907 
z
" clip-path="url(#p7f41b774e8)" style="fill: #1f77b4; stroke: #000000; stroke-linejoin: miter"/>
   </g>
   <g id="patch_176">
    <path d="M 727.037989 242.918125 
L 730.335898 242.918125 
L 730.335898 241.975724 
L 727.037989 241.975724 
z
" clip-path="url(#p7f41b774e8)" style="fill: #1f77b4; stroke: #000000; stroke-linejoin: miter"/>
   </g>
   <g id="patch_177">
    <path d="M 730.335898 242.918125 
L 733.633807 242.918125 
L 733.633807 242.316593 
L 730.335898 242.316593 
z
" clip-path="url(#p7f41b774e8)" style="fill: #1f77b4; stroke: #000000; stroke-linejoin: miter"/>
   </g>
   <g id="patch_178">
    <path d="M 733.633807 242.918125 
L 736.931716 242.918125 
L 736.931716 242.376746 
L 733.633807 242.376746 
z
" clip-path="url(#p7f41b774e8)" style="fill: #1f77b4; stroke: #000000; stroke-linejoin: miter"/>
   </g>
   <g id="patch_179">
    <path d="M 736.931716 242.918125 
L 740.229625 242.918125 
L 740.229625 242.51042 
L 736.931716 242.51042 
z
" clip-path="url(#p7f41b774e8)" style="fill: #1f77b4; stroke: #000000; stroke-linejoin: miter"/>
   </g>
   <g id="patch_180">
    <path d="M 740.229625 242.918125 
L 743.527534 242.918125 
L 743.527534 242.550522 
L 740.229625 242.550522 
z
" clip-path="url(#p7f41b774e8)" style="fill: #1f77b4; stroke: #000000; stroke-linejoin: miter"/>
   </g>
   <g id="patch_181">
    <path d="M 743.527534 242.918125 
L 746.825443 242.918125 
L 746.825443 242.644094 
L 743.527534 242.644094 
z
" clip-path="url(#p7f41b774e8)" style="fill: #1f77b4; stroke: #000000; stroke-linejoin: miter"/>
   </g>
   <g id="patch_182">
    <path d="M 746.825443 242.918125 
L 750.123352 242.918125 
L 750.123352 242.771084 
L 746.825443 242.771084 
z
" clip-path="url(#p7f41b774e8)" style="fill: #1f77b4; stroke: #000000; stroke-linejoin: miter"/>
   </g>
   <g id="patch_183">
    <path d="M 750.123352 242.918125 
L 753.421261 242.918125 
L 753.421261 242.7644 
L 750.123352 242.7644 
z
" clip-path="url(#p7f41b774e8)" style="fill: #1f77b4; stroke: #000000; stroke-linejoin: miter"/>
   </g>
   <g id="patch_184">
    <path d="M 753.421261 242.918125 
L 756.71917 242.918125 
L 756.71917 242.89139 
L 753.421261 242.89139 
z
" clip-path="url(#p7f41b774e8)" style="fill: #1f77b4; stroke: #000000; stroke-linejoin: miter"/>
   </g>
   <g id="patch_185">
    <path d="M 756.71917 242.918125 
L 760.01708 242.918125 
L 760.01708 242.81787 
L 756.71917 242.81787 
z
" clip-path="url(#p7f41b774e8)" style="fill: #1f77b4; stroke: #000000; stroke-linejoin: miter"/>
   </g>
   <g id="patch_186">
    <path d="M 760.01708 242.918125 
L 763.314989 242.918125 
L 763.314989 242.844604 
L 760.01708 242.844604 
z
" clip-path="url(#p7f41b774e8)" style="fill: #1f77b4; stroke: #000000; stroke-linejoin: miter"/>
   </g>
   <g id="patch_187">
    <path d="M 763.314989 242.918125 
L 766.612898 242.918125 
L 766.612898 242.844604 
L 763.314989 242.844604 
z
" clip-path="url(#p7f41b774e8)" style="fill: #1f77b4; stroke: #000000; stroke-linejoin: miter"/>
   </g>
   <g id="patch_188">
    <path d="M 766.612898 242.918125 
L 769.910807 242.918125 
L 769.910807 242.864655 
L 766.612898 242.864655 
z
" clip-path="url(#p7f41b774e8)" style="fill: #1f77b4; stroke: #000000; stroke-linejoin: miter"/>
   </g>
   <g id="patch_189">
    <path d="M 769.910807 242.918125 
L 773.208716 242.918125 
L 773.208716 242.911441 
L 769.910807 242.911441 
z
" clip-path="url(#p7f41b774e8)" style="fill: #1f77b4; stroke: #000000; stroke-linejoin: miter"/>
   </g>
   <g id="patch_190">
    <path d="M 773.208716 242.918125 
L 776.506625 242.918125 
L 776.506625 242.904758 
L 773.208716 242.904758 
z
" clip-path="url(#p7f41b774e8)" style="fill: #1f77b4; stroke: #000000; stroke-linejoin: miter"/>
   </g>
   <g id="patch_191">
    <path d="M 776.506625 242.918125 
L 779.804534 242.918125 
L 779.804534 242.911441 
L 776.506625 242.911441 
z
" clip-path="url(#p7f41b774e8)" style="fill: #1f77b4; stroke: #000000; stroke-linejoin: miter"/>
   </g>
   <g id="patch_192">
    <path d="M 779.804534 242.918125 
L 783.102443 242.918125 
L 783.102443 242.918125 
L 779.804534 242.918125 
z
" clip-path="url(#p7f41b774e8)" style="fill: #1f77b4; stroke: #000000; stroke-linejoin: miter"/>
   </g>
   <g id="patch_193">
    <path d="M 783.102443 242.918125 
L 786.400352 242.918125 
L 786.400352 242.911441 
L 783.102443 242.911441 
z
" clip-path="url(#p7f41b774e8)" style="fill: #1f77b4; stroke: #000000; stroke-linejoin: miter"/>
   </g>
   <g id="patch_194">
    <path d="M 786.400352 242.918125 
L 789.698261 242.918125 
L 789.698261 242.918125 
L 786.400352 242.918125 
z
" clip-path="url(#p7f41b774e8)" style="fill: #1f77b4; stroke: #000000; stroke-linejoin: miter"/>
   </g>
   <g id="patch_195">
    <path d="M 789.698261 242.918125 
L 792.99617 242.918125 
L 792.99617 242.918125 
L 789.698261 242.918125 
z
" clip-path="url(#p7f41b774e8)" style="fill: #1f77b4; stroke: #000000; stroke-linejoin: miter"/>
   </g>
   <g id="patch_196">
    <path d="M 792.99617 242.918125 
L 796.29408 242.918125 
L 796.29408 242.918125 
L 792.99617 242.918125 
z
" clip-path="url(#p7f41b774e8)" style="fill: #1f77b4; stroke: #000000; stroke-linejoin: miter"/>
   </g>
   <g id="patch_197">
    <path d="M 796.29408 242.918125 
L 799.591989 242.918125 
L 799.591989 242.918125 
L 796.29408 242.918125 
z
" clip-path="url(#p7f41b774e8)" style="fill: #1f77b4; stroke: #000000; stroke-linejoin: miter"/>
   </g>
   <g id="patch_198">
    <path d="M 799.591989 242.918125 
L 802.889898 242.918125 
L 802.889898 242.918125 
L 799.591989 242.918125 
z
" clip-path="url(#p7f41b774e8)" style="fill: #1f77b4; stroke: #000000; stroke-linejoin: miter"/>
   </g>
   <g id="patch_199">
    <path d="M 802.889898 242.918125 
L 806.187807 242.918125 
L 806.187807 242.918125 
L 802.889898 242.918125 
z
" clip-path="url(#p7f41b774e8)" style="fill: #1f77b4; stroke: #000000; stroke-linejoin: miter"/>
   </g>
   <g id="patch_200">
    <path d="M 806.187807 242.918125 
L 809.485716 242.918125 
L 809.485716 242.918125 
L 806.187807 242.918125 
z
" clip-path="url(#p7f41b774e8)" style="fill: #1f77b4; stroke: #000000; stroke-linejoin: miter"/>
   </g>
   <g id="patch_201">
    <path d="M 809.485716 242.918125 
L 812.783625 242.918125 
L 812.783625 242.918125 
L 809.485716 242.918125 
z
" clip-path="url(#p7f41b774e8)" style="fill: #1f77b4; stroke: #000000; stroke-linejoin: miter"/>
   </g>
   <g id="patch_202">
    <path d="M 812.783625 242.918125 
L 816.081534 242.918125 
L 816.081534 242.918125 
L 812.783625 242.918125 
z
" clip-path="url(#p7f41b774e8)" style="fill: #1f77b4; stroke: #000000; stroke-linejoin: miter"/>
   </g>
   <g id="patch_203">
    <path d="M 816.081534 242.918125 
L 819.379443 242.918125 
L 819.379443 242.918125 
L 816.081534 242.918125 
z
" clip-path="url(#p7f41b774e8)" style="fill: #1f77b4; stroke: #000000; stroke-linejoin: miter"/>
   </g>
   <g id="patch_204">
    <path d="M 819.379443 242.918125 
L 822.677352 242.918125 
L 822.677352 242.918125 
L 819.379443 242.918125 
z
" clip-path="url(#p7f41b774e8)" style="fill: #1f77b4; stroke: #000000; stroke-linejoin: miter"/>
   </g>
   <g id="patch_205">
    <path d="M 822.677352 242.918125 
L 825.975261 242.918125 
L 825.975261 242.918125 
L 822.677352 242.918125 
z
" clip-path="url(#p7f41b774e8)" style="fill: #1f77b4; stroke: #000000; stroke-linejoin: miter"/>
   </g>
   <g id="patch_206">
    <path d="M 825.975261 242.918125 
L 829.27317 242.918125 
L 829.27317 242.918125 
L 825.975261 242.918125 
z
" clip-path="url(#p7f41b774e8)" style="fill: #1f77b4; stroke: #000000; stroke-linejoin: miter"/>
   </g>
   <g id="patch_207">
    <path d="M 829.27317 242.918125 
L 832.57108 242.918125 
L 832.57108 242.911441 
L 829.27317 242.911441 
z
" clip-path="url(#p7f41b774e8)" style="fill: #1f77b4; stroke: #000000; stroke-linejoin: miter"/>
   </g>
   <g id="matplotlib.axis_3">
    <g id="xtick_10">
     <g id="line2d_17">
      <g>
       <use xlink:href="#md1e5ccc5f0" x="502.78017" y="242.918125" style="stroke: #000000; stroke-width: 0.8"/>
      </g>
     </g>
     <g id="text_20">
      <!-- 0 -->
      <g transform="translate(499.59892 257.516563) scale(0.1 -0.1)">
       <use xlink:href="#DejaVuSans-30"/>
      </g>
     </g>
    </g>
    <g id="xtick_11">
     <g id="line2d_18">
      <g>
       <use xlink:href="#md1e5ccc5f0" x="583.216978" y="242.918125" style="stroke: #000000; stroke-width: 0.8"/>
      </g>
     </g>
     <g id="text_21">
      <!-- 50 -->
      <g transform="translate(576.854478 257.516563) scale(0.1 -0.1)">
       <use xlink:href="#DejaVuSans-35"/>
       <use xlink:href="#DejaVuSans-30" transform="translate(63.623047 0)"/>
      </g>
     </g>
    </g>
    <g id="xtick_12">
     <g id="line2d_19">
      <g>
       <use xlink:href="#md1e5ccc5f0" x="663.653785" y="242.918125" style="stroke: #000000; stroke-width: 0.8"/>
      </g>
     </g>
     <g id="text_22">
      <!-- 100 -->
      <g transform="translate(654.110035 257.516563) scale(0.1 -0.1)">
       <use xlink:href="#DejaVuSans-31"/>
       <use xlink:href="#DejaVuSans-30" transform="translate(63.623047 0)"/>
       <use xlink:href="#DejaVuSans-30" transform="translate(127.246094 0)"/>
      </g>
     </g>
    </g>
    <g id="xtick_13">
     <g id="line2d_20">
      <g>
       <use xlink:href="#md1e5ccc5f0" x="744.090592" y="242.918125" style="stroke: #000000; stroke-width: 0.8"/>
      </g>
     </g>
     <g id="text_23">
      <!-- 150 -->
      <g transform="translate(734.546842 257.516563) scale(0.1 -0.1)">
       <use xlink:href="#DejaVuSans-31"/>
       <use xlink:href="#DejaVuSans-35" transform="translate(63.623047 0)"/>
       <use xlink:href="#DejaVuSans-30" transform="translate(127.246094 0)"/>
      </g>
     </g>
    </g>
    <g id="xtick_14">
     <g id="line2d_21">
      <g>
       <use xlink:href="#md1e5ccc5f0" x="824.527399" y="242.918125" style="stroke: #000000; stroke-width: 0.8"/>
      </g>
     </g>
     <g id="text_24">
      <!-- 200 -->
      <g transform="translate(814.983649 257.516563) scale(0.1 -0.1)">
       <use xlink:href="#DejaVuSans-32"/>
       <use xlink:href="#DejaVuSans-30" transform="translate(63.623047 0)"/>
       <use xlink:href="#DejaVuSans-30" transform="translate(127.246094 0)"/>
      </g>
     </g>
    </g>
    <g id="text_25">
     <!-- Number of genes -->
     <g transform="translate(624.49125 271.194687) scale(0.1 -0.1)">
      <use xlink:href="#DejaVuSans-4e"/>
      <use xlink:href="#DejaVuSans-75" transform="translate(74.804688 0)"/>
      <use xlink:href="#DejaVuSans-6d" transform="translate(138.183594 0)"/>
      <use xlink:href="#DejaVuSans-62" transform="translate(235.595703 0)"/>
      <use xlink:href="#DejaVuSans-65" transform="translate(299.072266 0)"/>
      <use xlink:href="#DejaVuSans-72" transform="translate(360.595703 0)"/>
      <use xlink:href="#DejaVuSans-20" transform="translate(401.708984 0)"/>
      <use xlink:href="#DejaVuSans-6f" transform="translate(433.496094 0)"/>
      <use xlink:href="#DejaVuSans-66" transform="translate(494.677734 0)"/>
      <use xlink:href="#DejaVuSans-20" transform="translate(529.882812 0)"/>
      <use xlink:href="#DejaVuSans-67" transform="translate(561.669922 0)"/>
      <use xlink:href="#DejaVuSans-65" transform="translate(625.146484 0)"/>
      <use xlink:href="#DejaVuSans-6e" transform="translate(686.669922 0)"/>
      <use xlink:href="#DejaVuSans-65" transform="translate(750.048828 0)"/>
      <use xlink:href="#DejaVuSans-73" transform="translate(811.572266 0)"/>
     </g>
    </g>
   </g>
   <g id="matplotlib.axis_4">
    <g id="ytick_8">
     <g id="line2d_22">
      <g>
       <use xlink:href="#mc610546560" x="486.290625" y="242.918125" style="stroke: #000000; stroke-width: 0.8"/>
      </g>
     </g>
     <g id="text_26">
      <!-- 0 -->
      <g transform="translate(472.928125 246.717344) scale(0.1 -0.1)">
       <use xlink:href="#DejaVuSans-30"/>
      </g>
     </g>
    </g>
    <g id="ytick_9">
     <g id="line2d_23">
      <g>
       <use xlink:href="#mc610546560" x="486.290625" y="209.499655" style="stroke: #000000; stroke-width: 0.8"/>
      </g>
     </g>
     <g id="text_27">
      <!-- 5000 -->
      <g transform="translate(453.840625 213.298874) scale(0.1 -0.1)">
       <use xlink:href="#DejaVuSans-35"/>
       <use xlink:href="#DejaVuSans-30" transform="translate(63.623047 0)"/>
       <use xlink:href="#DejaVuSans-30" transform="translate(127.246094 0)"/>
       <use xlink:href="#DejaVuSans-30" transform="translate(190.869141 0)"/>
      </g>
     </g>
    </g>
    <g id="ytick_10">
     <g id="line2d_24">
      <g>
       <use xlink:href="#mc610546560" x="486.290625" y="176.081185" style="stroke: #000000; stroke-width: 0.8"/>
      </g>
     </g>
     <g id="text_28">
      <!-- 10000 -->
      <g transform="translate(447.478125 179.880403) scale(0.1 -0.1)">
       <use xlink:href="#DejaVuSans-31"/>
       <use xlink:href="#DejaVuSans-30" transform="translate(63.623047 0)"/>
       <use xlink:href="#DejaVuSans-30" transform="translate(127.246094 0)"/>
       <use xlink:href="#DejaVuSans-30" transform="translate(190.869141 0)"/>
       <use xlink:href="#DejaVuSans-30" transform="translate(254.492188 0)"/>
      </g>
     </g>
    </g>
    <g id="ytick_11">
     <g id="line2d_25">
      <g>
       <use xlink:href="#mc610546560" x="486.290625" y="142.662715" style="stroke: #000000; stroke-width: 0.8"/>
      </g>
     </g>
     <g id="text_29">
      <!-- 15000 -->
      <g transform="translate(447.478125 146.461933) scale(0.1 -0.1)">
       <use xlink:href="#DejaVuSans-31"/>
       <use xlink:href="#DejaVuSans-35" transform="translate(63.623047 0)"/>
       <use xlink:href="#DejaVuSans-30" transform="translate(127.246094 0)"/>
       <use xlink:href="#DejaVuSans-30" transform="translate(190.869141 0)"/>
       <use xlink:href="#DejaVuSans-30" transform="translate(254.492188 0)"/>
      </g>
     </g>
    </g>
    <g id="ytick_12">
     <g id="line2d_26">
      <g>
       <use xlink:href="#mc610546560" x="486.290625" y="109.244244" style="stroke: #000000; stroke-width: 0.8"/>
      </g>
     </g>
     <g id="text_30">
      <!-- 20000 -->
      <g transform="translate(447.478125 113.043463) scale(0.1 -0.1)">
       <use xlink:href="#DejaVuSans-32"/>
       <use xlink:href="#DejaVuSans-30" transform="translate(63.623047 0)"/>
       <use xlink:href="#DejaVuSans-30" transform="translate(127.246094 0)"/>
       <use xlink:href="#DejaVuSans-30" transform="translate(190.869141 0)"/>
       <use xlink:href="#DejaVuSans-30" transform="translate(254.492188 0)"/>
      </g>
     </g>
    </g>
    <g id="ytick_13">
     <g id="line2d_27">
      <g>
       <use xlink:href="#mc610546560" x="486.290625" y="75.825774" style="stroke: #000000; stroke-width: 0.8"/>
      </g>
     </g>
     <g id="text_31">
      <!-- 25000 -->
      <g transform="translate(447.478125 79.624993) scale(0.1 -0.1)">
       <use xlink:href="#DejaVuSans-32"/>
       <use xlink:href="#DejaVuSans-35" transform="translate(63.623047 0)"/>
       <use xlink:href="#DejaVuSans-30" transform="translate(127.246094 0)"/>
       <use xlink:href="#DejaVuSans-30" transform="translate(190.869141 0)"/>
       <use xlink:href="#DejaVuSans-30" transform="translate(254.492188 0)"/>
      </g>
     </g>
    </g>
    <g id="ytick_14">
     <g id="line2d_28">
      <g>
       <use xlink:href="#mc610546560" x="486.290625" y="42.407304" style="stroke: #000000; stroke-width: 0.8"/>
      </g>
     </g>
     <g id="text_32">
      <!-- 30000 -->
      <g transform="translate(447.478125 46.206523) scale(0.1 -0.1)">
       <use xlink:href="#DejaVuSans-33"/>
       <use xlink:href="#DejaVuSans-30" transform="translate(63.623047 0)"/>
       <use xlink:href="#DejaVuSans-30" transform="translate(127.246094 0)"/>
       <use xlink:href="#DejaVuSans-30" transform="translate(190.869141 0)"/>
       <use xlink:href="#DejaVuSans-30" transform="translate(254.492188 0)"/>
      </g>
     </g>
    </g>
    <g id="text_33">
     <!-- Number of cells -->
     <g transform="translate(441.398438 171.910313) rotate(-90) scale(0.1 -0.1)">
      <use xlink:href="#DejaVuSans-4e"/>
      <use xlink:href="#DejaVuSans-75" transform="translate(74.804688 0)"/>
      <use xlink:href="#DejaVuSans-6d" transform="translate(138.183594 0)"/>
      <use xlink:href="#DejaVuSans-62" transform="translate(235.595703 0)"/>
      <use xlink:href="#DejaVuSans-65" transform="translate(299.072266 0)"/>
      <use xlink:href="#DejaVuSans-72" transform="translate(360.595703 0)"/>
      <use xlink:href="#DejaVuSans-20" transform="translate(401.708984 0)"/>
      <use xlink:href="#DejaVuSans-6f" transform="translate(433.496094 0)"/>
      <use xlink:href="#DejaVuSans-66" transform="translate(494.677734 0)"/>
      <use xlink:href="#DejaVuSans-20" transform="translate(529.882812 0)"/>
      <use xlink:href="#DejaVuSans-63" transform="translate(561.669922 0)"/>
      <use xlink:href="#DejaVuSans-65" transform="translate(616.650391 0)"/>
      <use xlink:href="#DejaVuSans-6c" transform="translate(678.173828 0)"/>
      <use xlink:href="#DejaVuSans-6c" transform="translate(705.957031 0)"/>
      <use xlink:href="#DejaVuSans-73" transform="translate(733.740234 0)"/>
     </g>
    </g>
   </g>
   <g id="patch_208">
    <path d="M 486.290625 242.918125 
L 486.290625 22.318125 
" style="fill: none; stroke: #000000; stroke-width: 0.8; stroke-linejoin: miter; stroke-linecap: square"/>
   </g>
   <g id="patch_209">
    <path d="M 849.060625 242.918125 
L 849.060625 22.318125 
" style="fill: none; stroke: #000000; stroke-width: 0.8; stroke-linejoin: miter; stroke-linecap: square"/>
   </g>
   <g id="patch_210">
    <path d="M 486.290625 242.918125 
L 849.060625 242.918125 
" style="fill: none; stroke: #000000; stroke-width: 0.8; stroke-linejoin: miter; stroke-linecap: square"/>
   </g>
   <g id="patch_211">
    <path d="M 486.290625 22.318125 
L 849.060625 22.318125 
" style="fill: none; stroke: #000000; stroke-width: 0.8; stroke-linejoin: miter; stroke-linecap: square"/>
   </g>
   <g id="text_34">
    <!-- human_gbm - Genes detected per cell -->
    <g transform="translate(552.635 16.318125) scale(0.12 -0.12)">
     <defs>
      <path id="DejaVuSans-47" d="M 3809 666 
L 3809 1919 
L 2778 1919 
L 2778 2438 
L 4434 2438 
L 4434 434 
Q 4069 175 3628 42 
Q 3188 -91 2688 -91 
Q 1594 -91 976 548 
Q 359 1188 359 2328 
Q 359 3472 976 4111 
Q 1594 4750 2688 4750 
Q 3144 4750 3555 4637 
Q 3966 4525 4313 4306 
L 4313 3634 
Q 3963 3931 3569 4081 
Q 3175 4231 2741 4231 
Q 1884 4231 1454 3753 
Q 1025 3275 1025 2328 
Q 1025 1384 1454 906 
Q 1884 428 2741 428 
Q 3075 428 3337 486 
Q 3600 544 3809 666 
z
" transform="scale(0.015625)"/>
      <path id="DejaVuSans-64" d="M 2906 2969 
L 2906 4863 
L 3481 4863 
L 3481 0 
L 2906 0 
L 2906 525 
Q 2725 213 2448 61 
Q 2172 -91 1784 -91 
Q 1150 -91 751 415 
Q 353 922 353 1747 
Q 353 2572 751 3078 
Q 1150 3584 1784 3584 
Q 2172 3584 2448 3432 
Q 2725 3281 2906 2969 
z
M 947 1747 
Q 947 1113 1208 752 
Q 1469 391 1925 391 
Q 2381 391 2643 752 
Q 2906 1113 2906 1747 
Q 2906 2381 2643 2742 
Q 2381 3103 1925 3103 
Q 1469 3103 1208 2742 
Q 947 2381 947 1747 
z
" transform="scale(0.015625)"/>
     </defs>
     <use xlink:href="#DejaVuSans-68"/>
     <use xlink:href="#DejaVuSans-75" transform="translate(63.378906 0)"/>
     <use xlink:href="#DejaVuSans-6d" transform="translate(126.757812 0)"/>
     <use xlink:href="#DejaVuSans-61" transform="translate(224.169922 0)"/>
     <use xlink:href="#DejaVuSans-6e" transform="translate(285.449219 0)"/>
     <use xlink:href="#DejaVuSans-5f" transform="translate(348.828125 0)"/>
     <use xlink:href="#DejaVuSans-67" transform="translate(398.828125 0)"/>
     <use xlink:href="#DejaVuSans-62" transform="translate(462.304688 0)"/>
     <use xlink:href="#DejaVuSans-6d" transform="translate(525.78125 0)"/>
     <use xlink:href="#DejaVuSans-20" transform="translate(623.193359 0)"/>
     <use xlink:href="#DejaVuSans-2d" transform="translate(654.980469 0)"/>
     <use xlink:href="#DejaVuSans-20" transform="translate(691.064453 0)"/>
     <use xlink:href="#DejaVuSans-47" transform="translate(722.851562 0)"/>
     <use xlink:href="#DejaVuSans-65" transform="translate(800.341797 0)"/>
     <use xlink:href="#DejaVuSans-6e" transform="translate(861.865234 0)"/>
     <use xlink:href="#DejaVuSans-65" transform="translate(925.244141 0)"/>
     <use xlink:href="#DejaVuSans-73" transform="translate(986.767578 0)"/>
     <use xlink:href="#DejaVuSans-20" transform="translate(1038.867188 0)"/>
     <use xlink:href="#DejaVuSans-64" transform="translate(1070.654297 0)"/>
     <use xlink:href="#DejaVuSans-65" transform="translate(1134.130859 0)"/>
     <use xlink:href="#DejaVuSans-74" transform="translate(1195.654297 0)"/>
     <use xlink:href="#DejaVuSans-65" transform="translate(1234.863281 0)"/>
     <use xlink:href="#DejaVuSans-63" transform="translate(1296.386719 0)"/>
     <use xlink:href="#DejaVuSans-74" transform="translate(1351.367188 0)"/>
     <use xlink:href="#DejaVuSans-65" transform="translate(1390.576172 0)"/>
     <use xlink:href="#DejaVuSans-64" transform="translate(1452.099609 0)"/>
     <use xlink:href="#DejaVuSans-20" transform="translate(1515.576172 0)"/>
     <use xlink:href="#DejaVuSans-70" transform="translate(1547.363281 0)"/>
     <use xlink:href="#DejaVuSans-65" transform="translate(1610.839844 0)"/>
     <use xlink:href="#DejaVuSans-72" transform="translate(1672.363281 0)"/>
     <use xlink:href="#DejaVuSans-20" transform="translate(1713.476562 0)"/>
     <use xlink:href="#DejaVuSans-63" transform="translate(1745.263672 0)"/>
     <use xlink:href="#DejaVuSans-65" transform="translate(1800.244141 0)"/>
     <use xlink:href="#DejaVuSans-6c" transform="translate(1861.767578 0)"/>
     <use xlink:href="#DejaVuSans-6c" transform="translate(1889.550781 0)"/>
    </g>
   </g>
  </g>
 </g>
 <defs>
  <clipPath id="pa9c56eb34a">
   <rect x="59.690625" y="22.318125" width="362.77" height="220.6"/>
  </clipPath>
  <clipPath id="p7f41b774e8">
   <rect x="486.290625" y="22.318125" width="362.77" height="220.6"/>
  </clipPath>
 </defs>
</svg>
