<?xml version="1.0" encoding="utf-8" standalone="no"?>
<!DOCTYPE svg PUBLIC "-//W3C//DTD SVG 1.1//EN"
  "http://www.w3.org/Graphics/SVG/1.1/DTD/svg11.dtd">
<svg xmlns:xlink="http://www.w3.org/1999/xlink" width="855.297452pt" height="280.474375pt" viewBox="0 0 855.297452 280.474375" xmlns="http://www.w3.org/2000/svg" version="1.1">
 <metadata>
  <rdf:RDF xmlns:dc="http://purl.org/dc/elements/1.1/" xmlns:cc="http://creativecommons.org/ns#" xmlns:rdf="http://www.w3.org/1999/02/22-rdf-syntax-ns#">
   <cc:Work>
    <dc:type rdf:resource="http://purl.org/dc/dcmitype/StillImage"/>
    <dc:date>2026-03-31T07:39:14.624963</dc:date>
    <dc:format>image/svg+xml</dc:format>
    <dc:creator>
     <cc:Agent>
      <dc:title>Matplotlib v3.10.8, https://matplotlib.org/</dc:title>
     </cc:Agent>
    </dc:creator>
   </cc:Work>
  </rdf:RDF>
 </metadata>
 <defs>
  <style type="text/css">*{stroke-linejoin: round; stroke-linecap: butt}</style>
 </defs>
 <g id="figure_1">
  <g id="patch_1">
   <path d="M 0 280.474375 
L 855.297452 280.474375 
L 855.297452 0 
L 0 0 
z
" style="fill: #ffffff"/>
  </g>
  <g id="axes_1">
   <g id="patch_2">
    <path d="M 53.328125 242.918125 
L 418.442022 242.918125 
L 418.442022 22.318125 
L 53.328125 22.318125 
z
" style="fill: #ffffff"/>
   </g>
   <g id="patch_3">
    <path d="M 69.924211 242.918125 
L 73.243429 242.918125 
L 73.243429 209.673922 
L 69.924211 209.673922 
z
" clip-path="url(#p36d9ab5d04)" style="fill: #1f77b4; stroke: #000000; stroke-linejoin: miter"/>
   </g>
   <g id="patch_4">
    <path d="M 73.243429 242.918125 
L 76.562646 242.918125 
L 76.562646 130.930525 
L 73.243429 130.930525 
z
" clip-path="url(#p36d9ab5d04)" style="fill: #1f77b4; stroke: #000000; stroke-linejoin: miter"/>
   </g>
   <g id="patch_5">
    <path d="M 76.562646 242.918125 
L 79.881864 242.918125 
L 79.881864 87.191716 
L 76.562646 87.191716 
z
" clip-path="url(#p36d9ab5d04)" style="fill: #1f77b4; stroke: #000000; stroke-linejoin: miter"/>
   </g>
   <g id="patch_6">
    <path d="M 79.881864 242.918125 
L 83.201081 242.918125 
L 83.201081 62.74944 
L 79.881864 62.74944 
z
" clip-path="url(#p36d9ab5d04)" style="fill: #1f77b4; stroke: #000000; stroke-linejoin: miter"/>
   </g>
   <g id="patch_7">
    <path d="M 83.201081 242.918125 
L 86.520297 242.918125 
L 86.520297 60.785933 
L 83.201081 60.785933 
z
" clip-path="url(#p36d9ab5d04)" style="fill: #1f77b4; stroke: #000000; stroke-linejoin: miter"/>
   </g>
   <g id="patch_8">
    <path d="M 86.520297 242.918125 
L 89.839517 242.918125 
L 89.839517 45.958071 
L 86.520297 45.958071 
z
" clip-path="url(#p36d9ab5d04)" style="fill: #1f77b4; stroke: #000000; stroke-linejoin: miter"/>
   </g>
   <g id="patch_9">
    <path d="M 89.839517 242.918125 
L 93.158733 242.918125 
L 93.158733 43.452907 
L 89.839517 43.452907 
z
" clip-path="url(#p36d9ab5d04)" style="fill: #1f77b4; stroke: #000000; stroke-linejoin: miter"/>
   </g>
   <g id="patch_10">
    <path d="M 93.158733 242.918125 
L 96.47795 242.918125 
L 96.47795 32.822887 
L 93.158733 32.822887 
z
" clip-path="url(#p36d9ab5d04)" style="fill: #1f77b4; stroke: #000000; stroke-linejoin: miter"/>
   </g>
   <g id="patch_11">
    <path d="M 96.47795 242.918125 
L 99.797167 242.918125 
L 99.797167 39.525893 
L 96.47795 39.525893 
z
" clip-path="url(#p36d9ab5d04)" style="fill: #1f77b4; stroke: #000000; stroke-linejoin: miter"/>
   </g>
   <g id="patch_12">
    <path d="M 99.797167 242.918125 
L 103.116384 242.918125 
L 103.116384 45.687242 
L 99.797167 45.687242 
z
" clip-path="url(#p36d9ab5d04)" style="fill: #1f77b4; stroke: #000000; stroke-linejoin: miter"/>
   </g>
   <g id="patch_13">
    <path d="M 103.116384 242.918125 
L 106.435603 242.918125 
L 106.435603 54.692291 
L 103.116384 54.692291 
z
" clip-path="url(#p36d9ab5d04)" style="fill: #1f77b4; stroke: #000000; stroke-linejoin: miter"/>
   </g>
   <g id="patch_14">
    <path d="M 106.435603 242.918125 
L 109.754822 242.918125 
L 109.754822 76.020039 
L 106.435603 76.020039 
z
" clip-path="url(#p36d9ab5d04)" style="fill: #1f77b4; stroke: #000000; stroke-linejoin: miter"/>
   </g>
   <g id="patch_15">
    <path d="M 109.754822 242.918125 
L 113.074036 242.918125 
L 113.074036 84.144895 
L 109.754822 84.144895 
z
" clip-path="url(#p36d9ab5d04)" style="fill: #1f77b4; stroke: #000000; stroke-linejoin: miter"/>
   </g>
   <g id="patch_16">
    <path d="M 113.074036 242.918125 
L 116.393256 242.918125 
L 116.393256 109.738192 
L 113.074036 109.738192 
z
" clip-path="url(#p36d9ab5d04)" style="fill: #1f77b4; stroke: #000000; stroke-linejoin: miter"/>
   </g>
   <g id="patch_17">
    <path d="M 116.393256 242.918125 
L 119.71247 242.918125 
L 119.71247 118.540119 
L 116.393256 118.540119 
z
" clip-path="url(#p36d9ab5d04)" style="fill: #1f77b4; stroke: #000000; stroke-linejoin: miter"/>
   </g>
   <g id="patch_18">
    <path d="M 119.71247 242.918125 
L 123.031689 242.918125 
L 123.031689 122.06089 
L 119.71247 122.06089 
z
" clip-path="url(#p36d9ab5d04)" style="fill: #1f77b4; stroke: #000000; stroke-linejoin: miter"/>
   </g>
   <g id="patch_19">
    <path d="M 123.031689 242.918125 
L 126.350908 242.918125 
L 126.350908 128.696189 
L 123.031689 128.696189 
z
" clip-path="url(#p36d9ab5d04)" style="fill: #1f77b4; stroke: #000000; stroke-linejoin: miter"/>
   </g>
   <g id="patch_20">
    <path d="M 126.350908 242.918125 
L 129.670123 242.918125 
L 129.670123 140.070988 
L 126.350908 140.070988 
z
" clip-path="url(#p36d9ab5d04)" style="fill: #1f77b4; stroke: #000000; stroke-linejoin: miter"/>
   </g>
   <g id="patch_21">
    <path d="M 129.670123 242.918125 
L 132.989342 242.918125 
L 132.989342 147.992723 
L 129.670123 147.992723 
z
" clip-path="url(#p36d9ab5d04)" style="fill: #1f77b4; stroke: #000000; stroke-linejoin: miter"/>
   </g>
   <g id="patch_22">
    <path d="M 132.989342 242.918125 
L 136.308556 242.918125 
L 136.308556 146.909408 
L 132.989342 146.909408 
z
" clip-path="url(#p36d9ab5d04)" style="fill: #1f77b4; stroke: #000000; stroke-linejoin: miter"/>
   </g>
   <g id="patch_23">
    <path d="M 136.308556 242.918125 
L 139.627775 242.918125 
L 139.627775 153.070758 
L 136.308556 153.070758 
z
" clip-path="url(#p36d9ab5d04)" style="fill: #1f77b4; stroke: #000000; stroke-linejoin: miter"/>
   </g>
   <g id="patch_24">
    <path d="M 139.627775 242.918125 
L 142.946994 242.918125 
L 142.946994 158.148793 
L 139.627775 158.148793 
z
" clip-path="url(#p36d9ab5d04)" style="fill: #1f77b4; stroke: #000000; stroke-linejoin: miter"/>
   </g>
   <g id="patch_25">
    <path d="M 142.946994 242.918125 
L 146.266209 242.918125 
L 146.266209 159.435228 
L 142.946994 159.435228 
z
" clip-path="url(#p36d9ab5d04)" style="fill: #1f77b4; stroke: #000000; stroke-linejoin: miter"/>
   </g>
   <g id="patch_26">
    <path d="M 146.266209 242.918125 
L 149.585433 242.918125 
L 149.585433 162.752878 
L 146.266209 162.752878 
z
" clip-path="url(#p36d9ab5d04)" style="fill: #1f77b4; stroke: #000000; stroke-linejoin: miter"/>
   </g>
   <g id="patch_27">
    <path d="M 149.585433 242.918125 
L 152.904642 242.918125 
L 152.904642 166.544477 
L 149.585433 166.544477 
z
" clip-path="url(#p36d9ab5d04)" style="fill: #1f77b4; stroke: #000000; stroke-linejoin: miter"/>
   </g>
   <g id="patch_28">
    <path d="M 152.904642 242.918125 
L 156.223862 242.918125 
L 156.223862 166.883013 
L 152.904642 166.883013 
z
" clip-path="url(#p36d9ab5d04)" style="fill: #1f77b4; stroke: #000000; stroke-linejoin: miter"/>
   </g>
   <g id="patch_29">
    <path d="M 156.223862 242.918125 
L 159.543081 242.918125 
L 159.543081 174.466212 
L 156.223862 174.466212 
z
" clip-path="url(#p36d9ab5d04)" style="fill: #1f77b4; stroke: #000000; stroke-linejoin: miter"/>
   </g>
   <g id="patch_30">
    <path d="M 159.543081 242.918125 
L 162.8623 242.918125 
L 162.8623 178.867176 
L 159.543081 178.867176 
z
" clip-path="url(#p36d9ab5d04)" style="fill: #1f77b4; stroke: #000000; stroke-linejoin: miter"/>
   </g>
   <g id="patch_31">
    <path d="M 162.8623 242.918125 
L 166.181519 242.918125 
L 166.181519 180.89839 
L 162.8623 180.89839 
z
" clip-path="url(#p36d9ab5d04)" style="fill: #1f77b4; stroke: #000000; stroke-linejoin: miter"/>
   </g>
   <g id="patch_32">
    <path d="M 166.181519 242.918125 
L 169.500729 242.918125 
L 169.500729 183.065018 
L 166.181519 183.065018 
z
" clip-path="url(#p36d9ab5d04)" style="fill: #1f77b4; stroke: #000000; stroke-linejoin: miter"/>
   </g>
   <g id="patch_33">
    <path d="M 169.500729 242.918125 
L 172.819948 242.918125 
L 172.819948 188.075346 
L 169.500729 188.075346 
z
" clip-path="url(#p36d9ab5d04)" style="fill: #1f77b4; stroke: #000000; stroke-linejoin: miter"/>
   </g>
   <g id="patch_34">
    <path d="M 172.819948 242.918125 
L 176.139167 242.918125 
L 176.139167 191.460703 
L 172.819948 191.460703 
z
" clip-path="url(#p36d9ab5d04)" style="fill: #1f77b4; stroke: #000000; stroke-linejoin: miter"/>
   </g>
   <g id="patch_35">
    <path d="M 176.139167 242.918125 
L 179.458386 242.918125 
L 179.458386 196.064788 
L 176.139167 196.064788 
z
" clip-path="url(#p36d9ab5d04)" style="fill: #1f77b4; stroke: #000000; stroke-linejoin: miter"/>
   </g>
   <g id="patch_36">
    <path d="M 179.458386 242.918125 
L 182.777605 242.918125 
L 182.777605 203.783401 
L 179.458386 203.783401 
z
" clip-path="url(#p36d9ab5d04)" style="fill: #1f77b4; stroke: #000000; stroke-linejoin: miter"/>
   </g>
   <g id="patch_37">
    <path d="M 182.777605 242.918125 
L 186.096815 242.918125 
L 186.096815 201.819894 
L 182.777605 201.819894 
z
" clip-path="url(#p36d9ab5d04)" style="fill: #1f77b4; stroke: #000000; stroke-linejoin: miter"/>
   </g>
   <g id="patch_38">
    <path d="M 186.096815 242.918125 
L 189.416034 242.918125 
L 189.416034 209.944751 
L 186.096815 209.944751 
z
" clip-path="url(#p36d9ab5d04)" style="fill: #1f77b4; stroke: #000000; stroke-linejoin: miter"/>
   </g>
   <g id="patch_39">
    <path d="M 189.416034 242.918125 
L 192.735253 242.918125 
L 192.735253 211.095772 
L 189.416034 211.095772 
z
" clip-path="url(#p36d9ab5d04)" style="fill: #1f77b4; stroke: #000000; stroke-linejoin: miter"/>
   </g>
   <g id="patch_40">
    <path d="M 192.735253 242.918125 
L 196.054472 242.918125 
L 196.054472 215.090493 
L 192.735253 215.090493 
z
" clip-path="url(#p36d9ab5d04)" style="fill: #1f77b4; stroke: #000000; stroke-linejoin: miter"/>
   </g>
   <g id="patch_41">
    <path d="M 196.054472 242.918125 
L 199.373691 242.918125 
L 199.373691 220.033114 
L 196.054472 220.033114 
z
" clip-path="url(#p36d9ab5d04)" style="fill: #1f77b4; stroke: #000000; stroke-linejoin: miter"/>
   </g>
   <g id="patch_42">
    <path d="M 199.373691 242.918125 
L 202.692901 242.918125 
L 202.692901 220.371649 
L 199.373691 220.371649 
z
" clip-path="url(#p36d9ab5d04)" style="fill: #1f77b4; stroke: #000000; stroke-linejoin: miter"/>
   </g>
   <g id="patch_43">
    <path d="M 202.692901 242.918125 
L 206.01212 242.918125 
L 206.01212 221.99662 
L 202.692901 221.99662 
z
" clip-path="url(#p36d9ab5d04)" style="fill: #1f77b4; stroke: #000000; stroke-linejoin: miter"/>
   </g>
   <g id="patch_44">
    <path d="M 206.01212 242.918125 
L 209.331339 242.918125 
L 209.331339 224.434077 
L 206.01212 224.434077 
z
" clip-path="url(#p36d9ab5d04)" style="fill: #1f77b4; stroke: #000000; stroke-linejoin: miter"/>
   </g>
   <g id="patch_45">
    <path d="M 209.331339 242.918125 
L 212.650559 242.918125 
L 212.650559 226.397584 
L 209.331339 226.397584 
z
" clip-path="url(#p36d9ab5d04)" style="fill: #1f77b4; stroke: #000000; stroke-linejoin: miter"/>
   </g>
   <g id="patch_46">
    <path d="M 212.650559 242.918125 
L 215.969778 242.918125 
L 215.969778 228.090263 
L 212.650559 228.090263 
z
" clip-path="url(#p36d9ab5d04)" style="fill: #1f77b4; stroke: #000000; stroke-linejoin: miter"/>
   </g>
   <g id="patch_47">
    <path d="M 215.969778 242.918125 
L 219.288997 242.918125 
L 219.288997 230.595427 
L 215.969778 230.595427 
z
" clip-path="url(#p36d9ab5d04)" style="fill: #1f77b4; stroke: #000000; stroke-linejoin: miter"/>
   </g>
   <g id="patch_48">
    <path d="M 219.288997 242.918125 
L 222.608207 242.918125 
L 222.608207 231.340205 
L 219.288997 231.340205 
z
" clip-path="url(#p36d9ab5d04)" style="fill: #1f77b4; stroke: #000000; stroke-linejoin: miter"/>
   </g>
   <g id="patch_49">
    <path d="M 222.608207 242.918125 
L 225.927426 242.918125 
L 225.927426 231.069376 
L 222.608207 231.069376 
z
" clip-path="url(#p36d9ab5d04)" style="fill: #1f77b4; stroke: #000000; stroke-linejoin: miter"/>
   </g>
   <g id="patch_50">
    <path d="M 225.927426 242.918125 
L 229.246654 242.918125 
L 229.246654 232.762055 
L 225.927426 232.762055 
z
" clip-path="url(#p36d9ab5d04)" style="fill: #1f77b4; stroke: #000000; stroke-linejoin: miter"/>
   </g>
   <g id="patch_51">
    <path d="M 229.246654 242.918125 
L 232.565864 242.918125 
L 232.565864 235.808876 
L 229.246654 235.808876 
z
" clip-path="url(#p36d9ab5d04)" style="fill: #1f77b4; stroke: #000000; stroke-linejoin: miter"/>
   </g>
   <g id="patch_52">
    <path d="M 232.565864 242.918125 
L 235.885074 242.918125 
L 235.885074 235.47034 
L 232.565864 235.47034 
z
" clip-path="url(#p36d9ab5d04)" style="fill: #1f77b4; stroke: #000000; stroke-linejoin: miter"/>
   </g>
   <g id="patch_53">
    <path d="M 235.885074 242.918125 
L 239.204302 242.918125 
L 239.204302 235.741169 
L 235.885074 235.741169 
z
" clip-path="url(#p36d9ab5d04)" style="fill: #1f77b4; stroke: #000000; stroke-linejoin: miter"/>
   </g>
   <g id="patch_54">
    <path d="M 239.204302 242.918125 
L 242.523512 242.918125 
L 242.523512 236.89219 
L 239.204302 236.89219 
z
" clip-path="url(#p36d9ab5d04)" style="fill: #1f77b4; stroke: #000000; stroke-linejoin: miter"/>
   </g>
   <g id="patch_55">
    <path d="M 242.523512 242.918125 
L 245.842741 242.918125 
L 245.842741 237.772383 
L 242.523512 237.772383 
z
" clip-path="url(#p36d9ab5d04)" style="fill: #1f77b4; stroke: #000000; stroke-linejoin: miter"/>
   </g>
   <g id="patch_56">
    <path d="M 245.842741 242.918125 
L 249.16195 242.918125 
L 249.16195 238.31404 
L 245.842741 238.31404 
z
" clip-path="url(#p36d9ab5d04)" style="fill: #1f77b4; stroke: #000000; stroke-linejoin: miter"/>
   </g>
   <g id="patch_57">
    <path d="M 249.16195 242.918125 
L 252.48116 242.918125 
L 252.48116 238.991111 
L 249.16195 238.991111 
z
" clip-path="url(#p36d9ab5d04)" style="fill: #1f77b4; stroke: #000000; stroke-linejoin: miter"/>
   </g>
   <g id="patch_58">
    <path d="M 252.48116 242.918125 
L 255.800388 242.918125 
L 255.800388 238.720283 
L 252.48116 238.720283 
z
" clip-path="url(#p36d9ab5d04)" style="fill: #1f77b4; stroke: #000000; stroke-linejoin: miter"/>
   </g>
   <g id="patch_59">
    <path d="M 255.800388 242.918125 
L 259.119598 242.918125 
L 259.119598 240.006718 
L 255.800388 240.006718 
z
" clip-path="url(#p36d9ab5d04)" style="fill: #1f77b4; stroke: #000000; stroke-linejoin: miter"/>
   </g>
   <g id="patch_60">
    <path d="M 259.119598 242.918125 
L 262.438827 242.918125 
L 262.438827 240.074425 
L 259.119598 240.074425 
z
" clip-path="url(#p36d9ab5d04)" style="fill: #1f77b4; stroke: #000000; stroke-linejoin: miter"/>
   </g>
   <g id="patch_61">
    <path d="M 262.438827 242.918125 
L 265.758036 242.918125 
L 265.758036 240.074425 
L 262.438827 240.074425 
z
" clip-path="url(#p36d9ab5d04)" style="fill: #1f77b4; stroke: #000000; stroke-linejoin: miter"/>
   </g>
   <g id="patch_62">
    <path d="M 265.758036 242.918125 
L 269.077246 242.918125 
L 269.077246 241.15774 
L 265.758036 241.15774 
z
" clip-path="url(#p36d9ab5d04)" style="fill: #1f77b4; stroke: #000000; stroke-linejoin: miter"/>
   </g>
   <g id="patch_63">
    <path d="M 269.077246 242.918125 
L 272.396475 242.918125 
L 272.396475 240.68379 
L 269.077246 240.68379 
z
" clip-path="url(#p36d9ab5d04)" style="fill: #1f77b4; stroke: #000000; stroke-linejoin: miter"/>
   </g>
   <g id="patch_64">
    <path d="M 272.396475 242.918125 
L 275.715684 242.918125 
L 275.715684 241.293154 
L 272.396475 241.293154 
z
" clip-path="url(#p36d9ab5d04)" style="fill: #1f77b4; stroke: #000000; stroke-linejoin: miter"/>
   </g>
   <g id="patch_65">
    <path d="M 275.715684 242.918125 
L 279.034913 242.918125 
L 279.034913 241.15774 
L 275.715684 241.15774 
z
" clip-path="url(#p36d9ab5d04)" style="fill: #1f77b4; stroke: #000000; stroke-linejoin: miter"/>
   </g>
   <g id="patch_66">
    <path d="M 279.034913 242.918125 
L 282.354123 242.918125 
L 282.354123 240.886911 
L 279.034913 240.886911 
z
" clip-path="url(#p36d9ab5d04)" style="fill: #1f77b4; stroke: #000000; stroke-linejoin: miter"/>
   </g>
   <g id="patch_67">
    <path d="M 282.354123 242.918125 
L 285.673332 242.918125 
L 285.673332 241.496275 
L 282.354123 241.496275 
z
" clip-path="url(#p36d9ab5d04)" style="fill: #1f77b4; stroke: #000000; stroke-linejoin: miter"/>
   </g>
   <g id="patch_68">
    <path d="M 285.673332 242.918125 
L 288.992561 242.918125 
L 288.992561 241.902518 
L 285.673332 241.902518 
z
" clip-path="url(#p36d9ab5d04)" style="fill: #1f77b4; stroke: #000000; stroke-linejoin: miter"/>
   </g>
   <g id="patch_69">
    <path d="M 288.992561 242.918125 
L 292.311771 242.918125 
L 292.311771 242.173347 
L 288.992561 242.173347 
z
" clip-path="url(#p36d9ab5d04)" style="fill: #1f77b4; stroke: #000000; stroke-linejoin: miter"/>
   </g>
   <g id="patch_70">
    <path d="M 292.311771 242.918125 
L 295.630999 242.918125 
L 295.630999 242.105639 
L 292.311771 242.105639 
z
" clip-path="url(#p36d9ab5d04)" style="fill: #1f77b4; stroke: #000000; stroke-linejoin: miter"/>
   </g>
   <g id="patch_71">
    <path d="M 295.630999 242.918125 
L 298.950209 242.918125 
L 298.950209 242.037932 
L 295.630999 242.037932 
z
" clip-path="url(#p36d9ab5d04)" style="fill: #1f77b4; stroke: #000000; stroke-linejoin: miter"/>
   </g>
   <g id="patch_72">
    <path d="M 298.950209 242.918125 
L 302.269419 242.918125 
L 302.269419 242.715004 
L 298.950209 242.715004 
z
" clip-path="url(#p36d9ab5d04)" style="fill: #1f77b4; stroke: #000000; stroke-linejoin: miter"/>
   </g>
   <g id="patch_73">
    <path d="M 302.269419 242.918125 
L 305.588647 242.918125 
L 305.588647 242.308761 
L 302.269419 242.308761 
z
" clip-path="url(#p36d9ab5d04)" style="fill: #1f77b4; stroke: #000000; stroke-linejoin: miter"/>
   </g>
   <g id="patch_74">
    <path d="M 305.588647 242.918125 
L 308.907857 242.918125 
L 308.907857 242.511882 
L 305.588647 242.511882 
z
" clip-path="url(#p36d9ab5d04)" style="fill: #1f77b4; stroke: #000000; stroke-linejoin: miter"/>
   </g>
   <g id="patch_75">
    <path d="M 308.907857 242.918125 
L 312.227085 242.918125 
L 312.227085 242.376468 
L 308.907857 242.376468 
z
" clip-path="url(#p36d9ab5d04)" style="fill: #1f77b4; stroke: #000000; stroke-linejoin: miter"/>
   </g>
   <g id="patch_76">
    <path d="M 312.227085 242.918125 
L 315.546295 242.918125 
L 315.546295 242.579589 
L 312.227085 242.579589 
z
" clip-path="url(#p36d9ab5d04)" style="fill: #1f77b4; stroke: #000000; stroke-linejoin: miter"/>
   </g>
   <g id="patch_77">
    <path d="M 315.546295 242.918125 
L 318.865505 242.918125 
L 318.865505 242.647296 
L 315.546295 242.647296 
z
" clip-path="url(#p36d9ab5d04)" style="fill: #1f77b4; stroke: #000000; stroke-linejoin: miter"/>
   </g>
   <g id="patch_78">
    <path d="M 318.865505 242.918125 
L 322.184733 242.918125 
L 322.184733 242.647296 
L 318.865505 242.647296 
z
" clip-path="url(#p36d9ab5d04)" style="fill: #1f77b4; stroke: #000000; stroke-linejoin: miter"/>
   </g>
   <g id="patch_79">
    <path d="M 322.184733 242.918125 
L 325.503943 242.918125 
L 325.503943 242.647296 
L 322.184733 242.647296 
z
" clip-path="url(#p36d9ab5d04)" style="fill: #1f77b4; stroke: #000000; stroke-linejoin: miter"/>
   </g>
   <g id="patch_80">
    <path d="M 325.503943 242.918125 
L 328.823172 242.918125 
L 328.823172 242.715004 
L 325.503943 242.715004 
z
" clip-path="url(#p36d9ab5d04)" style="fill: #1f77b4; stroke: #000000; stroke-linejoin: miter"/>
   </g>
   <g id="patch_81">
    <path d="M 328.823172 242.918125 
L 332.142381 242.918125 
L 332.142381 242.715004 
L 328.823172 242.715004 
z
" clip-path="url(#p36d9ab5d04)" style="fill: #1f77b4; stroke: #000000; stroke-linejoin: miter"/>
   </g>
   <g id="patch_82">
    <path d="M 332.142381 242.918125 
L 335.461591 242.918125 
L 335.461591 242.850418 
L 332.142381 242.850418 
z
" clip-path="url(#p36d9ab5d04)" style="fill: #1f77b4; stroke: #000000; stroke-linejoin: miter"/>
   </g>
   <g id="patch_83">
    <path d="M 335.461591 242.918125 
L 338.78082 242.918125 
L 338.78082 242.782711 
L 335.461591 242.782711 
z
" clip-path="url(#p36d9ab5d04)" style="fill: #1f77b4; stroke: #000000; stroke-linejoin: miter"/>
   </g>
   <g id="patch_84">
    <path d="M 338.78082 242.918125 
L 342.100029 242.918125 
L 342.100029 242.715004 
L 338.78082 242.715004 
z
" clip-path="url(#p36d9ab5d04)" style="fill: #1f77b4; stroke: #000000; stroke-linejoin: miter"/>
   </g>
   <g id="patch_85">
    <path d="M 342.100029 242.918125 
L 345.419258 242.918125 
L 345.419258 242.715004 
L 342.100029 242.715004 
z
" clip-path="url(#p36d9ab5d04)" style="fill: #1f77b4; stroke: #000000; stroke-linejoin: miter"/>
   </g>
   <g id="patch_86">
    <path d="M 345.419258 242.918125 
L 348.738468 242.918125 
L 348.738468 242.782711 
L 345.419258 242.782711 
z
" clip-path="url(#p36d9ab5d04)" style="fill: #1f77b4; stroke: #000000; stroke-linejoin: miter"/>
   </g>
   <g id="patch_87">
    <path d="M 348.738468 242.918125 
L 352.057696 242.918125 
L 352.057696 242.782711 
L 348.738468 242.782711 
z
" clip-path="url(#p36d9ab5d04)" style="fill: #1f77b4; stroke: #000000; stroke-linejoin: miter"/>
   </g>
   <g id="patch_88">
    <path d="M 352.057696 242.918125 
L 355.376906 242.918125 
L 355.376906 242.918125 
L 352.057696 242.918125 
z
" clip-path="url(#p36d9ab5d04)" style="fill: #1f77b4; stroke: #000000; stroke-linejoin: miter"/>
   </g>
   <g id="patch_89">
    <path d="M 355.376906 242.918125 
L 358.696116 242.918125 
L 358.696116 242.782711 
L 355.376906 242.782711 
z
" clip-path="url(#p36d9ab5d04)" style="fill: #1f77b4; stroke: #000000; stroke-linejoin: miter"/>
   </g>
   <g id="patch_90">
    <path d="M 358.696116 242.918125 
L 362.015344 242.918125 
L 362.015344 242.782711 
L 358.696116 242.782711 
z
" clip-path="url(#p36d9ab5d04)" style="fill: #1f77b4; stroke: #000000; stroke-linejoin: miter"/>
   </g>
   <g id="patch_91">
    <path d="M 362.015344 242.918125 
L 365.334554 242.918125 
L 365.334554 242.782711 
L 362.015344 242.782711 
z
" clip-path="url(#p36d9ab5d04)" style="fill: #1f77b4; stroke: #000000; stroke-linejoin: miter"/>
   </g>
   <g id="patch_92">
    <path d="M 365.334554 242.918125 
L 368.653783 242.918125 
L 368.653783 242.918125 
L 365.334554 242.918125 
z
" clip-path="url(#p36d9ab5d04)" style="fill: #1f77b4; stroke: #000000; stroke-linejoin: miter"/>
   </g>
   <g id="patch_93">
    <path d="M 368.653783 242.918125 
L 371.972992 242.918125 
L 371.972992 242.782711 
L 368.653783 242.782711 
z
" clip-path="url(#p36d9ab5d04)" style="fill: #1f77b4; stroke: #000000; stroke-linejoin: miter"/>
   </g>
   <g id="patch_94">
    <path d="M 371.972992 242.918125 
L 375.292202 242.918125 
L 375.292202 242.850418 
L 371.972992 242.850418 
z
" clip-path="url(#p36d9ab5d04)" style="fill: #1f77b4; stroke: #000000; stroke-linejoin: miter"/>
   </g>
   <g id="patch_95">
    <path d="M 375.292202 242.918125 
L 378.61143 242.918125 
L 378.61143 242.918125 
L 375.292202 242.918125 
z
" clip-path="url(#p36d9ab5d04)" style="fill: #1f77b4; stroke: #000000; stroke-linejoin: miter"/>
   </g>
   <g id="patch_96">
    <path d="M 378.61143 242.918125 
L 381.93064 242.918125 
L 381.93064 242.918125 
L 378.61143 242.918125 
z
" clip-path="url(#p36d9ab5d04)" style="fill: #1f77b4; stroke: #000000; stroke-linejoin: miter"/>
   </g>
   <g id="patch_97">
    <path d="M 381.93064 242.918125 
L 385.249869 242.918125 
L 385.249869 242.918125 
L 381.93064 242.918125 
z
" clip-path="url(#p36d9ab5d04)" style="fill: #1f77b4; stroke: #000000; stroke-linejoin: miter"/>
   </g>
   <g id="patch_98">
    <path d="M 385.249869 242.918125 
L 388.569097 242.918125 
L 388.569097 242.918125 
L 385.249869 242.918125 
z
" clip-path="url(#p36d9ab5d04)" style="fill: #1f77b4; stroke: #000000; stroke-linejoin: miter"/>
   </g>
   <g id="patch_99">
    <path d="M 388.569097 242.918125 
L 391.888307 242.918125 
L 391.888307 242.918125 
L 388.569097 242.918125 
z
" clip-path="url(#p36d9ab5d04)" style="fill: #1f77b4; stroke: #000000; stroke-linejoin: miter"/>
   </g>
   <g id="patch_100">
    <path d="M 391.888307 242.918125 
L 395.207517 242.918125 
L 395.207517 242.918125 
L 391.888307 242.918125 
z
" clip-path="url(#p36d9ab5d04)" style="fill: #1f77b4; stroke: #000000; stroke-linejoin: miter"/>
   </g>
   <g id="patch_101">
    <path d="M 395.207517 242.918125 
L 398.526726 242.918125 
L 398.526726 242.918125 
L 395.207517 242.918125 
z
" clip-path="url(#p36d9ab5d04)" style="fill: #1f77b4; stroke: #000000; stroke-linejoin: miter"/>
   </g>
   <g id="patch_102">
    <path d="M 398.526726 242.918125 
L 401.845936 242.918125 
L 401.845936 242.850418 
L 398.526726 242.850418 
z
" clip-path="url(#p36d9ab5d04)" style="fill: #1f77b4; stroke: #000000; stroke-linejoin: miter"/>
   </g>
   <g id="matplotlib.axis_1">
    <g id="xtick_1">
     <g id="line2d_1">
      <defs>
       <path id="mf9e905cf28" d="M 0 0 
L 0 3.5 
" style="stroke: #000000; stroke-width: 0.8"/>
      </defs>
      <g>
       <use xlink:href="#mf9e905cf28" x="69.924211" y="242.918125" style="stroke: #000000; stroke-width: 0.8"/>
      </g>
     </g>
     <g id="text_1">
      <!-- 0 -->
      <g transform="translate(66.742961 257.516563) scale(0.1 -0.1)">
       <defs>
        <path id="DejaVuSans-30" d="M 2034 4250 
Q 1547 4250 1301 3770 
Q 1056 3291 1056 2328 
Q 1056 1369 1301 889 
Q 1547 409 2034 409 
Q 2525 409 2770 889 
Q 3016 1369 3016 2328 
Q 3016 3291 2770 3770 
Q 2525 4250 2034 4250 
z
M 2034 4750 
Q 2819 4750 3233 4129 
Q 3647 3509 3647 2328 
Q 3647 1150 3233 529 
Q 2819 -91 2034 -91 
Q 1250 -91 836 529 
Q 422 1150 422 2328 
Q 422 3509 836 4129 
Q 1250 4750 2034 4750 
z
" transform="scale(0.015625)"/>
       </defs>
       <use xlink:href="#DejaVuSans-30"/>
      </g>
     </g>
    </g>
    <g id="xtick_2">
     <g id="line2d_2">
      <g>
       <use xlink:href="#mf9e905cf28" x="147.521342" y="242.918125" style="stroke: #000000; stroke-width: 0.8"/>
      </g>
     </g>
     <g id="text_2">
      <!-- 2000 -->
      <g transform="translate(134.796342 257.516563) scale(0.1 -0.1)">
       <defs>
        <path id="DejaVuSans-32" d="M 1228 531 
L 3431 531 
L 3431 0 
L 469 0 
L 469 531 
Q 828 903 1448 1529 
Q 2069 2156 2228 2338 
Q 2531 2678 2651 2914 
Q 2772 3150 2772 3378 
Q 2772 3750 2511 3984 
Q 2250 4219 1831 4219 
Q 1534 4219 1204 4116 
Q 875 4013 500 3803 
L 500 4441 
Q 881 4594 1212 4672 
Q 1544 4750 1819 4750 
Q 2544 4750 2975 4387 
Q 3406 4025 3406 3419 
Q 3406 3131 3298 2873 
Q 3191 2616 2906 2266 
Q 2828 2175 2409 1742 
Q 1991 1309 1228 531 
z
" transform="scale(0.015625)"/>
       </defs>
       <use xlink:href="#DejaVuSans-32"/>
       <use xlink:href="#DejaVuSans-30" transform="translate(63.623047 0)"/>
       <use xlink:href="#DejaVuSans-30" transform="translate(127.246094 0)"/>
       <use xlink:href="#DejaVuSans-30" transform="translate(190.869141 0)"/>
      </g>
     </g>
    </g>
    <g id="xtick_3">
     <g id="line2d_3">
      <g>
       <use xlink:href="#mf9e905cf28" x="225.118472" y="242.918125" style="stroke: #000000; stroke-width: 0.8"/>
      </g>
     </g>
     <g id="text_3">
      <!-- 4000 -->
      <g transform="translate(212.393472 257.516563) scale(0.1 -0.1)">
       <defs>
        <path id="DejaVuSans-34" d="M 2419 4116 
L 825 1625 
L 2419 1625 
L 2419 4116 
z
M 2253 4666 
L 3047 4666 
L 3047 1625 
L 3713 1625 
L 3713 1100 
L 3047 1100 
L 3047 0 
L 2419 0 
L 2419 1100 
L 313 1100 
L 313 1709 
L 2253 4666 
z
" transform="scale(0.015625)"/>
       </defs>
       <use xlink:href="#DejaVuSans-34"/>
       <use xlink:href="#DejaVuSans-30" transform="translate(63.623047 0)"/>
       <use xlink:href="#DejaVuSans-30" transform="translate(127.246094 0)"/>
       <use xlink:href="#DejaVuSans-30" transform="translate(190.869141 0)"/>
      </g>
     </g>
    </g>
    <g id="xtick_4">
     <g id="line2d_4">
      <g>
       <use xlink:href="#mf9e905cf28" x="302.715602" y="242.918125" style="stroke: #000000; stroke-width: 0.8"/>
      </g>
     </g>
     <g id="text_4">
      <!-- 6000 -->
      <g transform="translate(289.990602 257.516563) scale(0.1 -0.1)">
       <defs>
        <path id="DejaVuSans-36" d="M 2113 2584 
Q 1688 2584 1439 2293 
Q 1191 2003 1191 1497 
Q 1191 994 1439 701 
Q 1688 409 2113 409 
Q 2538 409 2786 701 
Q 3034 994 3034 1497 
Q 3034 2003 2786 2293 
Q 2538 2584 2113 2584 
z
M 3366 4563 
L 3366 3988 
Q 3128 4100 2886 4159 
Q 2644 4219 2406 4219 
Q 1781 4219 1451 3797 
Q 1122 3375 1075 2522 
Q 1259 2794 1537 2939 
Q 1816 3084 2150 3084 
Q 2853 3084 3261 2657 
Q 3669 2231 3669 1497 
Q 3669 778 3244 343 
Q 2819 -91 2113 -91 
Q 1303 -91 875 529 
Q 447 1150 447 2328 
Q 447 3434 972 4092 
Q 1497 4750 2381 4750 
Q 2619 4750 2861 4703 
Q 3103 4656 3366 4563 
z
" transform="scale(0.015625)"/>
       </defs>
       <use xlink:href="#DejaVuSans-36"/>
       <use xlink:href="#DejaVuSans-30" transform="translate(63.623047 0)"/>
       <use xlink:href="#DejaVuSans-30" transform="translate(127.246094 0)"/>
       <use xlink:href="#DejaVuSans-30" transform="translate(190.869141 0)"/>
      </g>
     </g>
    </g>
    <g id="xtick_5">
     <g id="line2d_5">
      <g>
       <use xlink:href="#mf9e905cf28" x="380.312732" y="242.918125" style="stroke: #000000; stroke-width: 0.8"/>
      </g>
     </g>
     <g id="text_5">
      <!-- 8000 -->
      <g transform="translate(367.587732 257.516563) scale(0.1 -0.1)">
       <defs>
        <path id="DejaVuSans-38" d="M 2034 2216 
Q 1584 2216 1326 1975 
Q 1069 1734 1069 1313 
Q 1069 891 1326 650 
Q 1584 409 2034 409 
Q 2484 409 2743 651 
Q 3003 894 3003 1313 
Q 3003 1734 2745 1975 
Q 2488 2216 2034 2216 
z
M 1403 2484 
Q 997 2584 770 2862 
Q 544 3141 544 3541 
Q 544 4100 942 4425 
Q 1341 4750 2034 4750 
Q 2731 4750 3128 4425 
Q 3525 4100 3525 3541 
Q 3525 3141 3298 2862 
Q 3072 2584 2669 2484 
Q 3125 2378 3379 2068 
Q 3634 1759 3634 1313 
Q 3634 634 3220 271 
Q 2806 -91 2034 -91 
Q 1263 -91 848 271 
Q 434 634 434 1313 
Q 434 1759 690 2068 
Q 947 2378 1403 2484 
z
M 1172 3481 
Q 1172 3119 1398 2916 
Q 1625 2713 2034 2713 
Q 2441 2713 2670 2916 
Q 2900 3119 2900 3481 
Q 2900 3844 2670 4047 
Q 2441 4250 2034 4250 
Q 1625 4250 1398 4047 
Q 1172 3844 1172 3481 
z
" transform="scale(0.015625)"/>
       </defs>
       <use xlink:href="#DejaVuSans-38"/>
       <use xlink:href="#DejaVuSans-30" transform="translate(63.623047 0)"/>
       <use xlink:href="#DejaVuSans-30" transform="translate(127.246094 0)"/>
       <use xlink:href="#DejaVuSans-30" transform="translate(190.869141 0)"/>
      </g>
     </g>
    </g>
    <g id="text_6">
     <!-- Total counts -->
     <g transform="translate(205.908511 271.194687) scale(0.1 -0.1)">
      <defs>
       <path id="DejaVuSans-54" d="M -19 4666 
L 3928 4666 
L 3928 4134 
L 2272 4134 
L 2272 0 
L 1638 0 
L 1638 4134 
L -19 4134 
L -19 4666 
z
" transform="scale(0.015625)"/>
       <path id="DejaVuSans-6f" d="M 1959 3097 
Q 1497 3097 1228 2736 
Q 959 2375 959 1747 
Q 959 1119 1226 758 
Q 1494 397 1959 397 
Q 2419 397 2687 759 
Q 2956 1122 2956 1747 
Q 2956 2369 2687 2733 
Q 2419 3097 1959 3097 
z
M 1959 3584 
Q 2709 3584 3137 3096 
Q 3566 2609 3566 1747 
Q 3566 888 3137 398 
Q 2709 -91 1959 -91 
Q 1206 -91 779 398 
Q 353 888 353 1747 
Q 353 2609 779 3096 
Q 1206 3584 1959 3584 
z
" transform="scale(0.015625)"/>
       <path id="DejaVuSans-74" d="M 1172 4494 
L 1172 3500 
L 2356 3500 
L 2356 3053 
L 1172 3053 
L 1172 1153 
Q 1172 725 1289 603 
Q 1406 481 1766 481 
L 2356 481 
L 2356 0 
L 1766 0 
Q 1100 0 847 248 
Q 594 497 594 1153 
L 594 3053 
L 172 3053 
L 172 3500 
L 594 3500 
L 594 4494 
L 1172 4494 
z
" transform="scale(0.015625)"/>
       <path id="DejaVuSans-61" d="M 2194 1759 
Q 1497 1759 1228 1600 
Q 959 1441 959 1056 
Q 959 750 1161 570 
Q 1363 391 1709 391 
Q 2188 391 2477 730 
Q 2766 1069 2766 1631 
L 2766 1759 
L 2194 1759 
z
M 3341 1997 
L 3341 0 
L 2766 0 
L 2766 531 
Q 2569 213 2275 61 
Q 1981 -91 1556 -91 
Q 1019 -91 701 211 
Q 384 513 384 1019 
Q 384 1609 779 1909 
Q 1175 2209 1959 2209 
L 2766 2209 
L 2766 2266 
Q 2766 2663 2505 2880 
Q 2244 3097 1772 3097 
Q 1472 3097 1187 3025 
Q 903 2953 641 2809 
L 641 3341 
Q 956 3463 1253 3523 
Q 1550 3584 1831 3584 
Q 2591 3584 2966 3190 
Q 3341 2797 3341 1997 
z
" transform="scale(0.015625)"/>
       <path id="DejaVuSans-6c" d="M 603 4863 
L 1178 4863 
L 1178 0 
L 603 0 
L 603 4863 
z
" transform="scale(0.015625)"/>
       <path id="DejaVuSans-20" transform="scale(0.015625)"/>
       <path id="DejaVuSans-63" d="M 3122 3366 
L 3122 2828 
Q 2878 2963 2633 3030 
Q 2388 3097 2138 3097 
Q 1578 3097 1268 2742 
Q 959 2388 959 1747 
Q 959 1106 1268 751 
Q 1578 397 2138 397 
Q 2388 397 2633 464 
Q 2878 531 3122 666 
L 3122 134 
Q 2881 22 2623 -34 
Q 2366 -91 2075 -91 
Q 1284 -91 818 406 
Q 353 903 353 1747 
Q 353 2603 823 3093 
Q 1294 3584 2113 3584 
Q 2378 3584 2631 3529 
Q 2884 3475 3122 3366 
z
" transform="scale(0.015625)"/>
       <path id="DejaVuSans-75" d="M 544 1381 
L 544 3500 
L 1119 3500 
L 1119 1403 
Q 1119 906 1312 657 
Q 1506 409 1894 409 
Q 2359 409 2629 706 
Q 2900 1003 2900 1516 
L 2900 3500 
L 3475 3500 
L 3475 0 
L 2900 0 
L 2900 538 
Q 2691 219 2414 64 
Q 2138 -91 1772 -91 
Q 1169 -91 856 284 
Q 544 659 544 1381 
z
M 1991 3584 
L 1991 3584 
z
" transform="scale(0.015625)"/>
       <path id="DejaVuSans-6e" d="M 3513 2113 
L 3513 0 
L 2938 0 
L 2938 2094 
Q 2938 2591 2744 2837 
Q 2550 3084 2163 3084 
Q 1697 3084 1428 2787 
Q 1159 2491 1159 1978 
L 1159 0 
L 581 0 
L 581 3500 
L 1159 3500 
L 1159 2956 
Q 1366 3272 1645 3428 
Q 1925 3584 2291 3584 
Q 2894 3584 3203 3211 
Q 3513 2838 3513 2113 
z
" transform="scale(0.015625)"/>
       <path id="DejaVuSans-73" d="M 2834 3397 
L 2834 2853 
Q 2591 2978 2328 3040 
Q 2066 3103 1784 3103 
Q 1356 3103 1142 2972 
Q 928 2841 928 2578 
Q 928 2378 1081 2264 
Q 1234 2150 1697 2047 
L 1894 2003 
Q 2506 1872 2764 1633 
Q 3022 1394 3022 966 
Q 3022 478 2636 193 
Q 2250 -91 1575 -91 
Q 1294 -91 989 -36 
Q 684 19 347 128 
L 347 722 
Q 666 556 975 473 
Q 1284 391 1588 391 
Q 1994 391 2212 530 
Q 2431 669 2431 922 
Q 2431 1156 2273 1281 
Q 2116 1406 1581 1522 
L 1381 1569 
Q 847 1681 609 1914 
Q 372 2147 372 2553 
Q 372 3047 722 3315 
Q 1072 3584 1716 3584 
Q 2034 3584 2315 3537 
Q 2597 3491 2834 3397 
z
" transform="scale(0.015625)"/>
      </defs>
      <use xlink:href="#DejaVuSans-54"/>
      <use xlink:href="#DejaVuSans-6f" transform="translate(44.083984 0)"/>
      <use xlink:href="#DejaVuSans-74" transform="translate(105.265625 0)"/>
      <use xlink:href="#DejaVuSans-61" transform="translate(144.474609 0)"/>
      <use xlink:href="#DejaVuSans-6c" transform="translate(205.753906 0)"/>
      <use xlink:href="#DejaVuSans-20" transform="translate(233.537109 0)"/>
      <use xlink:href="#DejaVuSans-63" transform="translate(265.324219 0)"/>
      <use xlink:href="#DejaVuSans-6f" transform="translate(320.304688 0)"/>
      <use xlink:href="#DejaVuSans-75" transform="translate(381.486328 0)"/>
      <use xlink:href="#DejaVuSans-6e" transform="translate(444.865234 0)"/>
      <use xlink:href="#DejaVuSans-74" transform="translate(508.244141 0)"/>
      <use xlink:href="#DejaVuSans-73" transform="translate(547.453125 0)"/>
     </g>
    </g>
   </g>
   <g id="matplotlib.axis_2">
    <g id="ytick_1">
     <g id="line2d_6">
      <defs>
       <path id="m859b94a65a" d="M 0 0 
L -3.5 0 
" style="stroke: #000000; stroke-width: 0.8"/>
      </defs>
      <g>
       <use xlink:href="#m859b94a65a" x="53.328125" y="242.918125" style="stroke: #000000; stroke-width: 0.8"/>
      </g>
     </g>
     <g id="text_7">
      <!-- 0 -->
      <g transform="translate(39.965625 246.717344) scale(0.1 -0.1)">
       <use xlink:href="#DejaVuSans-30"/>
      </g>
     </g>
    </g>
    <g id="ytick_2">
     <g id="line2d_7">
      <g>
       <use xlink:href="#m859b94a65a" x="53.328125" y="209.064558" style="stroke: #000000; stroke-width: 0.8"/>
      </g>
     </g>
     <g id="text_8">
      <!-- 500 -->
      <g transform="translate(27.240625 212.863777) scale(0.1 -0.1)">
       <defs>
        <path id="DejaVuSans-35" d="M 691 4666 
L 3169 4666 
L 3169 4134 
L 1269 4134 
L 1269 2991 
Q 1406 3038 1543 3061 
Q 1681 3084 1819 3084 
Q 2600 3084 3056 2656 
Q 3513 2228 3513 1497 
Q 3513 744 3044 326 
Q 2575 -91 1722 -91 
Q 1428 -91 1123 -41 
Q 819 9 494 109 
L 494 744 
Q 775 591 1075 516 
Q 1375 441 1709 441 
Q 2250 441 2565 725 
Q 2881 1009 2881 1497 
Q 2881 1984 2565 2268 
Q 2250 2553 1709 2553 
Q 1456 2553 1204 2497 
Q 953 2441 691 2322 
L 691 4666 
z
" transform="scale(0.015625)"/>
       </defs>
       <use xlink:href="#DejaVuSans-35"/>
       <use xlink:href="#DejaVuSans-30" transform="translate(63.623047 0)"/>
       <use xlink:href="#DejaVuSans-30" transform="translate(127.246094 0)"/>
      </g>
     </g>
    </g>
    <g id="ytick_3">
     <g id="line2d_8">
      <g>
       <use xlink:href="#m859b94a65a" x="53.328125" y="175.210991" style="stroke: #000000; stroke-width: 0.8"/>
      </g>
     </g>
     <g id="text_9">
      <!-- 1000 -->
      <g transform="translate(20.878125 179.010209) scale(0.1 -0.1)">
       <defs>
        <path id="DejaVuSans-31" d="M 794 531 
L 1825 531 
L 1825 4091 
L 703 3866 
L 703 4441 
L 1819 4666 
L 2450 4666 
L 2450 531 
L 3481 531 
L 3481 0 
L 794 0 
L 794 531 
z
" transform="scale(0.015625)"/>
       </defs>
       <use xlink:href="#DejaVuSans-31"/>
       <use xlink:href="#DejaVuSans-30" transform="translate(63.623047 0)"/>
       <use xlink:href="#DejaVuSans-30" transform="translate(127.246094 0)"/>
       <use xlink:href="#DejaVuSans-30" transform="translate(190.869141 0)"/>
      </g>
     </g>
    </g>
    <g id="ytick_4">
     <g id="line2d_9">
      <g>
       <use xlink:href="#m859b94a65a" x="53.328125" y="141.357423" style="stroke: #000000; stroke-width: 0.8"/>
      </g>
     </g>
     <g id="text_10">
      <!-- 1500 -->
      <g transform="translate(20.878125 145.156642) scale(0.1 -0.1)">
       <use xlink:href="#DejaVuSans-31"/>
       <use xlink:href="#DejaVuSans-35" transform="translate(63.623047 0)"/>
       <use xlink:href="#DejaVuSans-30" transform="translate(127.246094 0)"/>
       <use xlink:href="#DejaVuSans-30" transform="translate(190.869141 0)"/>
      </g>
     </g>
    </g>
    <g id="ytick_5">
     <g id="line2d_10">
      <g>
       <use xlink:href="#m859b94a65a" x="53.328125" y="107.503856" style="stroke: #000000; stroke-width: 0.8"/>
      </g>
     </g>
     <g id="text_11">
      <!-- 2000 -->
      <g transform="translate(20.878125 111.303075) scale(0.1 -0.1)">
       <use xlink:href="#DejaVuSans-32"/>
       <use xlink:href="#DejaVuSans-30" transform="translate(63.623047 0)"/>
       <use xlink:href="#DejaVuSans-30" transform="translate(127.246094 0)"/>
       <use xlink:href="#DejaVuSans-30" transform="translate(190.869141 0)"/>
      </g>
     </g>
    </g>
    <g id="ytick_6">
     <g id="line2d_11">
      <g>
       <use xlink:href="#m859b94a65a" x="53.328125" y="73.650289" style="stroke: #000000; stroke-width: 0.8"/>
      </g>
     </g>
     <g id="text_12">
      <!-- 2500 -->
      <g transform="translate(20.878125 77.449508) scale(0.1 -0.1)">
       <use xlink:href="#DejaVuSans-32"/>
       <use xlink:href="#DejaVuSans-35" transform="translate(63.623047 0)"/>
       <use xlink:href="#DejaVuSans-30" transform="translate(127.246094 0)"/>
       <use xlink:href="#DejaVuSans-30" transform="translate(190.869141 0)"/>
      </g>
     </g>
    </g>
    <g id="ytick_7">
     <g id="line2d_12">
      <g>
       <use xlink:href="#m859b94a65a" x="53.328125" y="39.796722" style="stroke: #000000; stroke-width: 0.8"/>
      </g>
     </g>
     <g id="text_13">
      <!-- 3000 -->
      <g transform="translate(20.878125 43.59594) scale(0.1 -0.1)">
       <defs>
        <path id="DejaVuSans-33" d="M 2597 2516 
Q 3050 2419 3304 2112 
Q 3559 1806 3559 1356 
Q 3559 666 3084 287 
Q 2609 -91 1734 -91 
Q 1441 -91 1130 -33 
Q 819 25 488 141 
L 488 750 
Q 750 597 1062 519 
Q 1375 441 1716 441 
Q 2309 441 2620 675 
Q 2931 909 2931 1356 
Q 2931 1769 2642 2001 
Q 2353 2234 1838 2234 
L 1294 2234 
L 1294 2753 
L 1863 2753 
Q 2328 2753 2575 2939 
Q 2822 3125 2822 3475 
Q 2822 3834 2567 4026 
Q 2313 4219 1838 4219 
Q 1578 4219 1281 4162 
Q 984 4106 628 3988 
L 628 4550 
Q 988 4650 1302 4700 
Q 1616 4750 1894 4750 
Q 2613 4750 3031 4423 
Q 3450 4097 3450 3541 
Q 3450 3153 3228 2886 
Q 3006 2619 2597 2516 
z
" transform="scale(0.015625)"/>
       </defs>
       <use xlink:href="#DejaVuSans-33"/>
       <use xlink:href="#DejaVuSans-30" transform="translate(63.623047 0)"/>
       <use xlink:href="#DejaVuSans-30" transform="translate(127.246094 0)"/>
       <use xlink:href="#DejaVuSans-30" transform="translate(190.869141 0)"/>
      </g>
     </g>
    </g>
    <g id="text_14">
     <!-- Number of cells -->
     <g transform="translate(14.798438 171.910313) rotate(-90) scale(0.1 -0.1)">
      <defs>
       <path id="DejaVuSans-4e" d="M 628 4666 
L 1478 4666 
L 3547 763 
L 3547 4666 
L 4159 4666 
L 4159 0 
L 3309 0 
L 1241 3903 
L 1241 0 
L 628 0 
L 628 4666 
z
" transform="scale(0.015625)"/>
       <path id="DejaVuSans-6d" d="M 3328 2828 
Q 3544 3216 3844 3400 
Q 4144 3584 4550 3584 
Q 5097 3584 5394 3201 
Q 5691 2819 5691 2113 
L 5691 0 
L 5113 0 
L 5113 2094 
Q 5113 2597 4934 2840 
Q 4756 3084 4391 3084 
Q 3944 3084 3684 2787 
Q 3425 2491 3425 1978 
L 3425 0 
L 2847 0 
L 2847 2094 
Q 2847 2600 2669 2842 
Q 2491 3084 2119 3084 
Q 1678 3084 1418 2786 
Q 1159 2488 1159 1978 
L 1159 0 
L 581 0 
L 581 3500 
L 1159 3500 
L 1159 2956 
Q 1356 3278 1631 3431 
Q 1906 3584 2284 3584 
Q 2666 3584 2933 3390 
Q 3200 3197 3328 2828 
z
" transform="scale(0.015625)"/>
       <path id="DejaVuSans-62" d="M 3116 1747 
Q 3116 2381 2855 2742 
Q 2594 3103 2138 3103 
Q 1681 3103 1420 2742 
Q 1159 2381 1159 1747 
Q 1159 1113 1420 752 
Q 1681 391 2138 391 
Q 2594 391 2855 752 
Q 3116 1113 3116 1747 
z
M 1159 2969 
Q 1341 3281 1617 3432 
Q 1894 3584 2278 3584 
Q 2916 3584 3314 3078 
Q 3713 2572 3713 1747 
Q 3713 922 3314 415 
Q 2916 -91 2278 -91 
Q 1894 -91 1617 61 
Q 1341 213 1159 525 
L 1159 0 
L 581 0 
L 581 4863 
L 1159 4863 
L 1159 2969 
z
" transform="scale(0.015625)"/>
       <path id="DejaVuSans-65" d="M 3597 1894 
L 3597 1613 
L 953 1613 
Q 991 1019 1311 708 
Q 1631 397 2203 397 
Q 2534 397 2845 478 
Q 3156 559 3463 722 
L 3463 178 
Q 3153 47 2828 -22 
Q 2503 -91 2169 -91 
Q 1331 -91 842 396 
Q 353 884 353 1716 
Q 353 2575 817 3079 
Q 1281 3584 2069 3584 
Q 2775 3584 3186 3129 
Q 3597 2675 3597 1894 
z
M 3022 2063 
Q 3016 2534 2758 2815 
Q 2500 3097 2075 3097 
Q 1594 3097 1305 2825 
Q 1016 2553 972 2059 
L 3022 2063 
z
" transform="scale(0.015625)"/>
       <path id="DejaVuSans-72" d="M 2631 2963 
Q 2534 3019 2420 3045 
Q 2306 3072 2169 3072 
Q 1681 3072 1420 2755 
Q 1159 2438 1159 1844 
L 1159 0 
L 581 0 
L 581 3500 
L 1159 3500 
L 1159 2956 
Q 1341 3275 1631 3429 
Q 1922 3584 2338 3584 
Q 2397 3584 2469 3576 
Q 2541 3569 2628 3553 
L 2631 2963 
z
" transform="scale(0.015625)"/>
       <path id="DejaVuSans-66" d="M 2375 4863 
L 2375 4384 
L 1825 4384 
Q 1516 4384 1395 4259 
Q 1275 4134 1275 3809 
L 1275 3500 
L 2222 3500 
L 2222 3053 
L 1275 3053 
L 1275 0 
L 697 0 
L 697 3053 
L 147 3053 
L 147 3500 
L 697 3500 
L 697 3744 
Q 697 4328 969 4595 
Q 1241 4863 1831 4863 
L 2375 4863 
z
" transform="scale(0.015625)"/>
      </defs>
      <use xlink:href="#DejaVuSans-4e"/>
      <use xlink:href="#DejaVuSans-75" transform="translate(74.804688 0)"/>
      <use xlink:href="#DejaVuSans-6d" transform="translate(138.183594 0)"/>
      <use xlink:href="#DejaVuSans-62" transform="translate(235.595703 0)"/>
      <use xlink:href="#DejaVuSans-65" transform="translate(299.072266 0)"/>
      <use xlink:href="#DejaVuSans-72" transform="translate(360.595703 0)"/>
      <use xlink:href="#DejaVuSans-20" transform="translate(401.708984 0)"/>
      <use xlink:href="#DejaVuSans-6f" transform="translate(433.496094 0)"/>
      <use xlink:href="#DejaVuSans-66" transform="translate(494.677734 0)"/>
      <use xlink:href="#DejaVuSans-20" transform="translate(529.882812 0)"/>
      <use xlink:href="#DejaVuSans-63" transform="translate(561.669922 0)"/>
      <use xlink:href="#DejaVuSans-65" transform="translate(616.650391 0)"/>
      <use xlink:href="#DejaVuSans-6c" transform="translate(678.173828 0)"/>
      <use xlink:href="#DejaVuSans-6c" transform="translate(705.957031 0)"/>
      <use xlink:href="#DejaVuSans-73" transform="translate(733.740234 0)"/>
     </g>
    </g>
   </g>
   <g id="patch_103">
    <path d="M 53.328125 242.918125 
L 53.328125 22.318125 
" style="fill: none; stroke: #000000; stroke-width: 0.8; stroke-linejoin: miter; stroke-linecap: square"/>
   </g>
   <g id="patch_104">
    <path d="M 418.442022 242.918125 
L 418.442022 22.318125 
" style="fill: none; stroke: #000000; stroke-width: 0.8; stroke-linejoin: miter; stroke-linecap: square"/>
   </g>
   <g id="patch_105">
    <path d="M 53.328125 242.918125 
L 418.442022 242.918125 
" style="fill: none; stroke: #000000; stroke-width: 0.8; stroke-linejoin: miter; stroke-linecap: square"/>
   </g>
   <g id="patch_106">
    <path d="M 53.328125 22.318125 
L 418.442022 22.318125 
" style="fill: none; stroke: #000000; stroke-width: 0.8; stroke-linejoin: miter; stroke-linecap: square"/>
   </g>
   <g id="text_15">
    <!-- mouse_brain_healthy - Total counts per cell -->
    <g transform="translate(105.727261 16.318125) scale(0.12 -0.12)">
     <defs>
      <path id="DejaVuSans-5f" d="M 3263 -1063 
L 3263 -1509 
L -63 -1509 
L -63 -1063 
L 3263 -1063 
z
" transform="scale(0.015625)"/>
      <path id="DejaVuSans-69" d="M 603 3500 
L 1178 3500 
L 1178 0 
L 603 0 
L 603 3500 
z
M 603 4863 
L 1178 4863 
L 1178 4134 
L 603 4134 
L 603 4863 
z
" transform="scale(0.015625)"/>
      <path id="DejaVuSans-68" d="M 3513 2113 
L 3513 0 
L 2938 0 
L 2938 2094 
Q 2938 2591 2744 2837 
Q 2550 3084 2163 3084 
Q 1697 3084 1428 2787 
Q 1159 2491 1159 1978 
L 1159 0 
L 581 0 
L 581 4863 
L 1159 4863 
L 1159 2956 
Q 1366 3272 1645 3428 
Q 1925 3584 2291 3584 
Q 2894 3584 3203 3211 
Q 3513 2838 3513 2113 
z
" transform="scale(0.015625)"/>
      <path id="DejaVuSans-79" d="M 2059 -325 
Q 1816 -950 1584 -1140 
Q 1353 -1331 966 -1331 
L 506 -1331 
L 506 -850 
L 844 -850 
Q 1081 -850 1212 -737 
Q 1344 -625 1503 -206 
L 1606 56 
L 191 3500 
L 800 3500 
L 1894 763 
L 2988 3500 
L 3597 3500 
L 2059 -325 
z
" transform="scale(0.015625)"/>
      <path id="DejaVuSans-2d" d="M 313 2009 
L 1997 2009 
L 1997 1497 
L 313 1497 
L 313 2009 
z
" transform="scale(0.015625)"/>
      <path id="DejaVuSans-70" d="M 1159 525 
L 1159 -1331 
L 581 -1331 
L 581 3500 
L 1159 3500 
L 1159 2969 
Q 1341 3281 1617 3432 
Q 1894 3584 2278 3584 
Q 2916 3584 3314 3078 
Q 3713 2572 3713 1747 
Q 3713 922 3314 415 
Q 2916 -91 2278 -91 
Q 1894 -91 1617 61 
Q 1341 213 1159 525 
z
M 3116 1747 
Q 3116 2381 2855 2742 
Q 2594 3103 2138 3103 
Q 1681 3103 1420 2742 
Q 1159 2381 1159 1747 
Q 1159 1113 1420 752 
Q 1681 391 2138 391 
Q 2594 391 2855 752 
Q 3116 1113 3116 1747 
z
" transform="scale(0.015625)"/>
     </defs>
     <use xlink:href="#DejaVuSans-6d"/>
     <use xlink:href="#DejaVuSans-6f" transform="translate(97.412109 0)"/>
     <use xlink:href="#DejaVuSans-75" transform="translate(158.59375 0)"/>
     <use xlink:href="#DejaVuSans-73" transform="translate(221.972656 0)"/>
     <use xlink:href="#DejaVuSans-65" transform="translate(274.072266 0)"/>
     <use xlink:href="#DejaVuSans-5f" transform="translate(335.595703 0)"/>
     <use xlink:href="#DejaVuSans-62" transform="translate(385.595703 0)"/>
     <use xlink:href="#DejaVuSans-72" transform="translate(449.072266 0)"/>
     <use xlink:href="#DejaVuSans-61" transform="translate(490.185547 0)"/>
     <use xlink:href="#DejaVuSans-69" transform="translate(551.464844 0)"/>
     <use xlink:href="#DejaVuSans-6e" transform="translate(579.248047 0)"/>
     <use xlink:href="#DejaVuSans-5f" transform="translate(642.626953 0)"/>
     <use xlink:href="#DejaVuSans-68" transform="translate(692.626953 0)"/>
     <use xlink:href="#DejaVuSans-65" transform="translate(756.005859 0)"/>
     <use xlink:href="#DejaVuSans-61" transform="translate(817.529297 0)"/>
     <use xlink:href="#DejaVuSans-6c" transform="translate(878.808594 0)"/>
     <use xlink:href="#DejaVuSans-74" transform="translate(906.591797 0)"/>
     <use xlink:href="#DejaVuSans-68" transform="translate(945.800781 0)"/>
     <use xlink:href="#DejaVuSans-79" transform="translate(1009.179688 0)"/>
     <use xlink:href="#DejaVuSans-20" transform="translate(1068.359375 0)"/>
     <use xlink:href="#DejaVuSans-2d" transform="translate(1100.146484 0)"/>
     <use xlink:href="#DejaVuSans-20" transform="translate(1136.230469 0)"/>
     <use xlink:href="#DejaVuSans-54" transform="translate(1168.017578 0)"/>
     <use xlink:href="#DejaVuSans-6f" transform="translate(1212.101562 0)"/>
     <use xlink:href="#DejaVuSans-74" transform="translate(1273.283203 0)"/>
     <use xlink:href="#DejaVuSans-61" transform="translate(1312.492188 0)"/>
     <use xlink:href="#DejaVuSans-6c" transform="translate(1373.771484 0)"/>
     <use xlink:href="#DejaVuSans-20" transform="translate(1401.554688 0)"/>
     <use xlink:href="#DejaVuSans-63" transform="translate(1433.341797 0)"/>
     <use xlink:href="#DejaVuSans-6f" transform="translate(1488.322266 0)"/>
     <use xlink:href="#DejaVuSans-75" transform="translate(1549.503906 0)"/>
     <use xlink:href="#DejaVuSans-6e" transform="translate(1612.882812 0)"/>
     <use xlink:href="#DejaVuSans-74" transform="translate(1676.261719 0)"/>
     <use xlink:href="#DejaVuSans-73" transform="translate(1715.470703 0)"/>
     <use xlink:href="#DejaVuSans-20" transform="translate(1767.570312 0)"/>
     <use xlink:href="#DejaVuSans-70" transform="translate(1799.357422 0)"/>
     <use xlink:href="#DejaVuSans-65" transform="translate(1862.833984 0)"/>
     <use xlink:href="#DejaVuSans-72" transform="translate(1924.357422 0)"/>
     <use xlink:href="#DejaVuSans-20" transform="translate(1965.470703 0)"/>
     <use xlink:href="#DejaVuSans-63" transform="translate(1997.257812 0)"/>
     <use xlink:href="#DejaVuSans-65" transform="translate(2052.238281 0)"/>
     <use xlink:href="#DejaVuSans-6c" transform="translate(2113.761719 0)"/>
     <use xlink:href="#DejaVuSans-6c" transform="translate(2141.544922 0)"/>
    </g>
   </g>
  </g>
  <g id="axes_2">
   <g id="patch_107">
    <path d="M 475.882022 242.918125 
L 840.99592 242.918125 
L 840.99592 22.318125 
L 475.882022 22.318125 
z
" style="fill: #ffffff"/>
   </g>
   <g id="patch_108">
    <path d="M 492.478109 242.918125 
L 495.797326 242.918125 
L 495.797326 237.158146 
L 492.478109 237.158146 
z
" clip-path="url(#p4a61fb938e)" style="fill: #1f77b4; stroke: #000000; stroke-linejoin: miter"/>
   </g>
   <g id="patch_109">
    <path d="M 495.797326 242.918125 
L 499.116543 242.918125 
L 499.116543 231.110168 
L 495.797326 231.110168 
z
" clip-path="url(#p4a61fb938e)" style="fill: #1f77b4; stroke: #000000; stroke-linejoin: miter"/>
   </g>
   <g id="patch_110">
    <path d="M 499.116543 242.918125 
L 502.43576 242.918125 
L 502.43576 221.750202 
L 499.116543 221.750202 
z
" clip-path="url(#p4a61fb938e)" style="fill: #1f77b4; stroke: #000000; stroke-linejoin: miter"/>
   </g>
   <g id="patch_111">
    <path d="M 502.43576 242.918125 
L 505.754978 242.918125 
L 505.754978 208.35825 
L 502.43576 208.35825 
z
" clip-path="url(#p4a61fb938e)" style="fill: #1f77b4; stroke: #000000; stroke-linejoin: miter"/>
   </g>
   <g id="patch_112">
    <path d="M 505.754978 242.918125 
L 509.074195 242.918125 
L 509.074195 186.182331 
L 505.754978 186.182331 
z
" clip-path="url(#p4a61fb938e)" style="fill: #1f77b4; stroke: #000000; stroke-linejoin: miter"/>
   </g>
   <g id="patch_113">
    <path d="M 509.074195 242.918125 
L 512.393412 242.918125 
L 512.393412 174.086375 
L 509.074195 174.086375 
z
" clip-path="url(#p4a61fb938e)" style="fill: #1f77b4; stroke: #000000; stroke-linejoin: miter"/>
   </g>
   <g id="patch_114">
    <path d="M 512.393412 242.918125 
L 515.712629 242.918125 
L 515.712629 164.726409 
L 512.393412 164.726409 
z
" clip-path="url(#p4a61fb938e)" style="fill: #1f77b4; stroke: #000000; stroke-linejoin: miter"/>
   </g>
   <g id="patch_115">
    <path d="M 515.712629 242.918125 
L 519.031846 242.918125 
L 519.031846 158.102433 
L 515.712629 158.102433 
z
" clip-path="url(#p4a61fb938e)" style="fill: #1f77b4; stroke: #000000; stroke-linejoin: miter"/>
   </g>
   <g id="patch_116">
    <path d="M 519.031846 242.918125 
L 522.351064 242.918125 
L 522.351064 142.118491 
L 519.031846 142.118491 
z
" clip-path="url(#p4a61fb938e)" style="fill: #1f77b4; stroke: #000000; stroke-linejoin: miter"/>
   </g>
   <g id="patch_117">
    <path d="M 522.351064 242.918125 
L 525.670281 242.918125 
L 525.670281 139.958498 
L 522.351064 139.958498 
z
" clip-path="url(#p4a61fb938e)" style="fill: #1f77b4; stroke: #000000; stroke-linejoin: miter"/>
   </g>
   <g id="patch_118">
    <path d="M 525.670281 242.918125 
L 528.989498 242.918125 
L 528.989498 130.742532 
L 525.670281 130.742532 
z
" clip-path="url(#p4a61fb938e)" style="fill: #1f77b4; stroke: #000000; stroke-linejoin: miter"/>
   </g>
   <g id="patch_119">
    <path d="M 528.989498 242.918125 
L 532.308715 242.918125 
L 532.308715 116.342584 
L 528.989498 116.342584 
z
" clip-path="url(#p4a61fb938e)" style="fill: #1f77b4; stroke: #000000; stroke-linejoin: miter"/>
   </g>
   <g id="patch_120">
    <path d="M 532.308715 242.918125 
L 535.627933 242.918125 
L 535.627933 118.214577 
L 532.308715 118.214577 
z
" clip-path="url(#p4a61fb938e)" style="fill: #1f77b4; stroke: #000000; stroke-linejoin: miter"/>
   </g>
   <g id="patch_121">
    <path d="M 535.627933 242.918125 
L 538.94715 242.918125 
L 538.94715 106.40662 
L 535.627933 106.40662 
z
" clip-path="url(#p4a61fb938e)" style="fill: #1f77b4; stroke: #000000; stroke-linejoin: miter"/>
   </g>
   <g id="patch_122">
    <path d="M 538.94715 242.918125 
L 542.266367 242.918125 
L 542.266367 107.270617 
L 538.94715 107.270617 
z
" clip-path="url(#p4a61fb938e)" style="fill: #1f77b4; stroke: #000000; stroke-linejoin: miter"/>
   </g>
   <g id="patch_123">
    <path d="M 542.266367 242.918125 
L 545.585584 242.918125 
L 545.585584 103.52663 
L 542.266367 103.52663 
z
" clip-path="url(#p4a61fb938e)" style="fill: #1f77b4; stroke: #000000; stroke-linejoin: miter"/>
   </g>
   <g id="patch_124">
    <path d="M 545.585584 242.918125 
L 548.904802 242.918125 
L 548.904802 88.262686 
L 545.585584 88.262686 
z
" clip-path="url(#p4a61fb938e)" style="fill: #1f77b4; stroke: #000000; stroke-linejoin: miter"/>
   </g>
   <g id="patch_125">
    <path d="M 548.904802 242.918125 
L 552.224019 242.918125 
L 552.224019 88.838684 
L 548.904802 88.838684 
z
" clip-path="url(#p4a61fb938e)" style="fill: #1f77b4; stroke: #000000; stroke-linejoin: miter"/>
   </g>
   <g id="patch_126">
    <path d="M 552.224019 242.918125 
L 555.543236 242.918125 
L 555.543236 81.49471 
L 552.224019 81.49471 
z
" clip-path="url(#p4a61fb938e)" style="fill: #1f77b4; stroke: #000000; stroke-linejoin: miter"/>
   </g>
   <g id="patch_127">
    <path d="M 555.543236 242.918125 
L 558.862453 242.918125 
L 558.862453 67.81476 
L 555.543236 67.81476 
z
" clip-path="url(#p4a61fb938e)" style="fill: #1f77b4; stroke: #000000; stroke-linejoin: miter"/>
   </g>
   <g id="patch_128">
    <path d="M 558.862453 242.918125 
L 562.181671 242.918125 
L 562.181671 78.614721 
L 558.862453 78.614721 
z
" clip-path="url(#p4a61fb938e)" style="fill: #1f77b4; stroke: #000000; stroke-linejoin: miter"/>
   </g>
   <g id="patch_129">
    <path d="M 562.181671 242.918125 
L 565.500888 242.918125 
L 565.500888 66.518765 
L 562.181671 66.518765 
z
" clip-path="url(#p4a61fb938e)" style="fill: #1f77b4; stroke: #000000; stroke-linejoin: miter"/>
   </g>
   <g id="patch_130">
    <path d="M 565.500888 242.918125 
L 568.820105 242.918125 
L 568.820105 47.078835 
L 565.500888 47.078835 
z
" clip-path="url(#p4a61fb938e)" style="fill: #1f77b4; stroke: #000000; stroke-linejoin: miter"/>
   </g>
   <g id="patch_131">
    <path d="M 568.820105 242.918125 
L 572.139322 242.918125 
L 572.139322 58.454794 
L 568.820105 58.454794 
z
" clip-path="url(#p4a61fb938e)" style="fill: #1f77b4; stroke: #000000; stroke-linejoin: miter"/>
   </g>
   <g id="patch_132">
    <path d="M 572.139322 242.918125 
L 575.45854 242.918125 
L 575.45854 57.590797 
L 572.139322 57.590797 
z
" clip-path="url(#p4a61fb938e)" style="fill: #1f77b4; stroke: #000000; stroke-linejoin: miter"/>
   </g>
   <g id="patch_133">
    <path d="M 575.45854 242.918125 
L 578.777757 242.918125 
L 578.777757 32.822887 
L 575.45854 32.822887 
z
" clip-path="url(#p4a61fb938e)" style="fill: #1f77b4; stroke: #000000; stroke-linejoin: miter"/>
   </g>
   <g id="patch_134">
    <path d="M 578.777757 242.918125 
L 582.096974 242.918125 
L 582.096974 51.686818 
L 578.777757 51.686818 
z
" clip-path="url(#p4a61fb938e)" style="fill: #1f77b4; stroke: #000000; stroke-linejoin: miter"/>
   </g>
   <g id="patch_135">
    <path d="M 582.096974 242.918125 
L 585.416191 242.918125 
L 585.416191 40.454859 
L 582.096974 40.454859 
z
" clip-path="url(#p4a61fb938e)" style="fill: #1f77b4; stroke: #000000; stroke-linejoin: miter"/>
   </g>
   <g id="patch_136">
    <path d="M 585.416191 242.918125 
L 588.735409 242.918125 
L 588.735409 54.13481 
L 585.416191 54.13481 
z
" clip-path="url(#p4a61fb938e)" style="fill: #1f77b4; stroke: #000000; stroke-linejoin: miter"/>
   </g>
   <g id="patch_137">
    <path d="M 588.735409 242.918125 
L 592.054626 242.918125 
L 592.054626 53.558812 
L 588.735409 53.558812 
z
" clip-path="url(#p4a61fb938e)" style="fill: #1f77b4; stroke: #000000; stroke-linejoin: miter"/>
   </g>
   <g id="patch_138">
    <path d="M 592.054626 242.918125 
L 595.373843 242.918125 
L 595.373843 52.982814 
L 592.054626 52.982814 
z
" clip-path="url(#p4a61fb938e)" style="fill: #1f77b4; stroke: #000000; stroke-linejoin: miter"/>
   </g>
   <g id="patch_139">
    <path d="M 595.373843 242.918125 
L 598.69306 242.918125 
L 598.69306 71.558746 
L 595.373843 71.558746 
z
" clip-path="url(#p4a61fb938e)" style="fill: #1f77b4; stroke: #000000; stroke-linejoin: miter"/>
   </g>
   <g id="patch_140">
    <path d="M 598.69306 242.918125 
L 602.012278 242.918125 
L 602.012278 86.534692 
L 598.69306 86.534692 
z
" clip-path="url(#p4a61fb938e)" style="fill: #1f77b4; stroke: #000000; stroke-linejoin: miter"/>
   </g>
   <g id="patch_141">
    <path d="M 602.012278 242.918125 
L 605.331495 242.918125 
L 605.331495 68.102759 
L 602.012278 68.102759 
z
" clip-path="url(#p4a61fb938e)" style="fill: #1f77b4; stroke: #000000; stroke-linejoin: miter"/>
   </g>
   <g id="patch_142">
    <path d="M 605.331495 242.918125 
L 608.650712 242.918125 
L 608.650712 92.72667 
L 605.331495 92.72667 
z
" clip-path="url(#p4a61fb938e)" style="fill: #1f77b4; stroke: #000000; stroke-linejoin: miter"/>
   </g>
   <g id="patch_143">
    <path d="M 608.650712 242.918125 
L 611.969929 242.918125 
L 611.969929 97.334653 
L 608.650712 97.334653 
z
" clip-path="url(#p4a61fb938e)" style="fill: #1f77b4; stroke: #000000; stroke-linejoin: miter"/>
   </g>
   <g id="patch_144">
    <path d="M 611.969929 242.918125 
L 615.289147 242.918125 
L 615.289147 86.102694 
L 611.969929 86.102694 
z
" clip-path="url(#p4a61fb938e)" style="fill: #1f77b4; stroke: #000000; stroke-linejoin: miter"/>
   </g>
   <g id="patch_145">
    <path d="M 615.289147 242.918125 
L 618.608364 242.918125 
L 618.608364 103.52663 
L 615.289147 103.52663 
z
" clip-path="url(#p4a61fb938e)" style="fill: #1f77b4; stroke: #000000; stroke-linejoin: miter"/>
   </g>
   <g id="patch_146">
    <path d="M 618.608364 242.918125 
L 621.927581 242.918125 
L 621.927581 94.454663 
L 618.608364 94.454663 
z
" clip-path="url(#p4a61fb938e)" style="fill: #1f77b4; stroke: #000000; stroke-linejoin: miter"/>
   </g>
   <g id="patch_147">
    <path d="M 621.927581 242.918125 
L 625.246798 242.918125 
L 625.246798 108.134614 
L 621.927581 108.134614 
z
" clip-path="url(#p4a61fb938e)" style="fill: #1f77b4; stroke: #000000; stroke-linejoin: miter"/>
   </g>
   <g id="patch_148">
    <path d="M 625.246798 242.918125 
L 628.566016 242.918125 
L 628.566016 105.974622 
L 625.246798 105.974622 
z
" clip-path="url(#p4a61fb938e)" style="fill: #1f77b4; stroke: #000000; stroke-linejoin: miter"/>
   </g>
   <g id="patch_149">
    <path d="M 628.566016 242.918125 
L 631.885233 242.918125 
L 631.885233 94.742662 
L 628.566016 94.742662 
z
" clip-path="url(#p4a61fb938e)" style="fill: #1f77b4; stroke: #000000; stroke-linejoin: miter"/>
   </g>
   <g id="patch_150">
    <path d="M 631.885233 242.918125 
L 635.20445 242.918125 
L 635.20445 103.238632 
L 631.885233 103.238632 
z
" clip-path="url(#p4a61fb938e)" style="fill: #1f77b4; stroke: #000000; stroke-linejoin: miter"/>
   </g>
   <g id="patch_151">
    <path d="M 635.20445 242.918125 
L 638.523667 242.918125 
L 638.523667 109.718608 
L 635.20445 109.718608 
z
" clip-path="url(#p4a61fb938e)" style="fill: #1f77b4; stroke: #000000; stroke-linejoin: miter"/>
   </g>
   <g id="patch_152">
    <path d="M 638.523667 242.918125 
L 641.842885 242.918125 
L 641.842885 104.102628 
L 638.523667 104.102628 
z
" clip-path="url(#p4a61fb938e)" style="fill: #1f77b4; stroke: #000000; stroke-linejoin: miter"/>
   </g>
   <g id="patch_153">
    <path d="M 641.842885 242.918125 
L 645.162102 242.918125 
L 645.162102 111.446602 
L 641.842885 111.446602 
z
" clip-path="url(#p4a61fb938e)" style="fill: #1f77b4; stroke: #000000; stroke-linejoin: miter"/>
   </g>
   <g id="patch_154">
    <path d="M 645.162102 242.918125 
L 648.481319 242.918125 
L 648.481319 107.702615 
L 645.162102 107.702615 
z
" clip-path="url(#p4a61fb938e)" style="fill: #1f77b4; stroke: #000000; stroke-linejoin: miter"/>
   </g>
   <g id="patch_155">
    <path d="M 648.481319 242.918125 
L 651.800536 242.918125 
L 651.800536 96.902655 
L 648.481319 96.902655 
z
" clip-path="url(#p4a61fb938e)" style="fill: #1f77b4; stroke: #000000; stroke-linejoin: miter"/>
   </g>
   <g id="patch_156">
    <path d="M 651.800536 242.918125 
L 655.119754 242.918125 
L 655.119754 112.598598 
L 651.800536 112.598598 
z
" clip-path="url(#p4a61fb938e)" style="fill: #1f77b4; stroke: #000000; stroke-linejoin: miter"/>
   </g>
   <g id="patch_157">
    <path d="M 655.119754 242.918125 
L 658.438971 242.918125 
L 658.438971 114.182592 
L 655.119754 114.182592 
z
" clip-path="url(#p4a61fb938e)" style="fill: #1f77b4; stroke: #000000; stroke-linejoin: miter"/>
   </g>
   <g id="patch_158">
    <path d="M 658.438971 242.918125 
L 661.758188 242.918125 
L 661.758188 109.430609 
L 658.438971 109.430609 
z
" clip-path="url(#p4a61fb938e)" style="fill: #1f77b4; stroke: #000000; stroke-linejoin: miter"/>
   </g>
   <g id="patch_159">
    <path d="M 661.758188 242.918125 
L 665.077405 242.918125 
L 665.077405 118.934575 
L 661.758188 118.934575 
z
" clip-path="url(#p4a61fb938e)" style="fill: #1f77b4; stroke: #000000; stroke-linejoin: miter"/>
   </g>
   <g id="patch_160">
    <path d="M 665.077405 242.918125 
L 668.396623 242.918125 
L 668.396623 100.79064 
L 665.077405 100.79064 
z
" clip-path="url(#p4a61fb938e)" style="fill: #1f77b4; stroke: #000000; stroke-linejoin: miter"/>
   </g>
   <g id="patch_161">
    <path d="M 668.396623 242.918125 
L 671.71584 242.918125 
L 671.71584 105.830622 
L 668.396623 105.830622 
z
" clip-path="url(#p4a61fb938e)" style="fill: #1f77b4; stroke: #000000; stroke-linejoin: miter"/>
   </g>
   <g id="patch_162">
    <path d="M 671.71584 242.918125 
L 675.035057 242.918125 
L 675.035057 121.238566 
L 671.71584 121.238566 
z
" clip-path="url(#p4a61fb938e)" style="fill: #1f77b4; stroke: #000000; stroke-linejoin: miter"/>
   </g>
   <g id="patch_163">
    <path d="M 675.035057 242.918125 
L 678.354274 242.918125 
L 678.354274 116.054585 
L 675.035057 116.054585 
z
" clip-path="url(#p4a61fb938e)" style="fill: #1f77b4; stroke: #000000; stroke-linejoin: miter"/>
   </g>
   <g id="patch_164">
    <path d="M 678.354274 242.918125 
L 681.673492 242.918125 
L 681.673492 116.918582 
L 678.354274 116.918582 
z
" clip-path="url(#p4a61fb938e)" style="fill: #1f77b4; stroke: #000000; stroke-linejoin: miter"/>
   </g>
   <g id="patch_165">
    <path d="M 681.673492 242.918125 
L 684.992709 242.918125 
L 684.992709 127.430544 
L 681.673492 127.430544 
z
" clip-path="url(#p4a61fb938e)" style="fill: #1f77b4; stroke: #000000; stroke-linejoin: miter"/>
   </g>
   <g id="patch_166">
    <path d="M 684.992709 242.918125 
L 688.311926 242.918125 
L 688.311926 122.534562 
L 684.992709 122.534562 
z
" clip-path="url(#p4a61fb938e)" style="fill: #1f77b4; stroke: #000000; stroke-linejoin: miter"/>
   </g>
   <g id="patch_167">
    <path d="M 688.311926 242.918125 
L 691.631143 242.918125 
L 691.631143 137.366508 
L 688.311926 137.366508 
z
" clip-path="url(#p4a61fb938e)" style="fill: #1f77b4; stroke: #000000; stroke-linejoin: miter"/>
   </g>
   <g id="patch_168">
    <path d="M 691.631143 242.918125 
L 694.950361 242.918125 
L 694.950361 134.774517 
L 691.631143 134.774517 
z
" clip-path="url(#p4a61fb938e)" style="fill: #1f77b4; stroke: #000000; stroke-linejoin: miter"/>
   </g>
   <g id="patch_169">
    <path d="M 694.950361 242.918125 
L 698.269578 242.918125 
L 698.269578 140.966495 
L 694.950361 140.966495 
z
" clip-path="url(#p4a61fb938e)" style="fill: #1f77b4; stroke: #000000; stroke-linejoin: miter"/>
   </g>
   <g id="patch_170">
    <path d="M 698.269578 242.918125 
L 701.588795 242.918125 
L 701.588795 153.494449 
L 698.269578 153.494449 
z
" clip-path="url(#p4a61fb938e)" style="fill: #1f77b4; stroke: #000000; stroke-linejoin: miter"/>
   </g>
   <g id="patch_171">
    <path d="M 701.588795 242.918125 
L 704.908012 242.918125 
L 704.908012 159.110429 
L 701.588795 159.110429 
z
" clip-path="url(#p4a61fb938e)" style="fill: #1f77b4; stroke: #000000; stroke-linejoin: miter"/>
   </g>
   <g id="patch_172">
    <path d="M 704.908012 242.918125 
L 708.22723 242.918125 
L 708.22723 169.190392 
L 704.908012 169.190392 
z
" clip-path="url(#p4a61fb938e)" style="fill: #1f77b4; stroke: #000000; stroke-linejoin: miter"/>
   </g>
   <g id="patch_173">
    <path d="M 708.22723 242.918125 
L 711.546447 242.918125 
L 711.546447 173.942375 
L 708.22723 173.942375 
z
" clip-path="url(#p4a61fb938e)" style="fill: #1f77b4; stroke: #000000; stroke-linejoin: miter"/>
   </g>
   <g id="patch_174">
    <path d="M 711.546447 242.918125 
L 714.865664 242.918125 
L 714.865664 173.654376 
L 711.546447 173.654376 
z
" clip-path="url(#p4a61fb938e)" style="fill: #1f77b4; stroke: #000000; stroke-linejoin: miter"/>
   </g>
   <g id="patch_175">
    <path d="M 714.865664 242.918125 
L 718.184881 242.918125 
L 718.184881 188.054324 
L 714.865664 188.054324 
z
" clip-path="url(#p4a61fb938e)" style="fill: #1f77b4; stroke: #000000; stroke-linejoin: miter"/>
   </g>
   <g id="patch_176">
    <path d="M 718.184881 242.918125 
L 721.504099 242.918125 
L 721.504099 196.262294 
L 718.184881 196.262294 
z
" clip-path="url(#p4a61fb938e)" style="fill: #1f77b4; stroke: #000000; stroke-linejoin: miter"/>
   </g>
   <g id="patch_177">
    <path d="M 721.504099 242.918125 
L 724.823316 242.918125 
L 724.823316 188.774321 
L 721.504099 188.774321 
z
" clip-path="url(#p4a61fb938e)" style="fill: #1f77b4; stroke: #000000; stroke-linejoin: miter"/>
   </g>
   <g id="patch_178">
    <path d="M 724.823316 242.918125 
L 728.142533 242.918125 
L 728.142533 208.214251 
L 724.823316 208.214251 
z
" clip-path="url(#p4a61fb938e)" style="fill: #1f77b4; stroke: #000000; stroke-linejoin: miter"/>
   </g>
   <g id="patch_179">
    <path d="M 728.142533 242.918125 
L 731.46175 242.918125 
L 731.46175 208.790249 
L 728.142533 208.790249 
z
" clip-path="url(#p4a61fb938e)" style="fill: #1f77b4; stroke: #000000; stroke-linejoin: miter"/>
   </g>
   <g id="patch_180">
    <path d="M 731.46175 242.918125 
L 734.780968 242.918125 
L 734.780968 207.782252 
L 731.46175 207.782252 
z
" clip-path="url(#p4a61fb938e)" style="fill: #1f77b4; stroke: #000000; stroke-linejoin: miter"/>
   </g>
   <g id="patch_181">
    <path d="M 734.780968 242.918125 
L 738.100185 242.918125 
L 738.100185 210.374243 
L 734.780968 210.374243 
z
" clip-path="url(#p4a61fb938e)" style="fill: #1f77b4; stroke: #000000; stroke-linejoin: miter"/>
   </g>
   <g id="patch_182">
    <path d="M 738.100185 242.918125 
L 741.419402 242.918125 
L 741.419402 217.430217 
L 738.100185 217.430217 
z
" clip-path="url(#p4a61fb938e)" style="fill: #1f77b4; stroke: #000000; stroke-linejoin: miter"/>
   </g>
   <g id="patch_183">
    <path d="M 741.419402 242.918125 
L 744.738619 242.918125 
L 744.738619 220.454206 
L 741.419402 220.454206 
z
" clip-path="url(#p4a61fb938e)" style="fill: #1f77b4; stroke: #000000; stroke-linejoin: miter"/>
   </g>
   <g id="patch_184">
    <path d="M 744.738619 242.918125 
L 748.057837 242.918125 
L 748.057837 225.494188 
L 744.738619 225.494188 
z
" clip-path="url(#p4a61fb938e)" style="fill: #1f77b4; stroke: #000000; stroke-linejoin: miter"/>
   </g>
   <g id="patch_185">
    <path d="M 748.057837 242.918125 
L 751.377054 242.918125 
L 751.377054 226.502185 
L 748.057837 226.502185 
z
" clip-path="url(#p4a61fb938e)" style="fill: #1f77b4; stroke: #000000; stroke-linejoin: miter"/>
   </g>
   <g id="patch_186">
    <path d="M 751.377054 242.918125 
L 754.696271 242.918125 
L 754.696271 229.958172 
L 751.377054 229.958172 
z
" clip-path="url(#p4a61fb938e)" style="fill: #1f77b4; stroke: #000000; stroke-linejoin: miter"/>
   </g>
   <g id="patch_187">
    <path d="M 754.696271 242.918125 
L 758.015488 242.918125 
L 758.015488 232.694162 
L 754.696271 232.694162 
z
" clip-path="url(#p4a61fb938e)" style="fill: #1f77b4; stroke: #000000; stroke-linejoin: miter"/>
   </g>
   <g id="patch_188">
    <path d="M 758.015488 242.918125 
L 761.334706 242.918125 
L 761.334706 234.422156 
L 758.015488 234.422156 
z
" clip-path="url(#p4a61fb938e)" style="fill: #1f77b4; stroke: #000000; stroke-linejoin: miter"/>
   </g>
   <g id="patch_189">
    <path d="M 761.334706 242.918125 
L 764.653923 242.918125 
L 764.653923 236.870147 
L 761.334706 236.870147 
z
" clip-path="url(#p4a61fb938e)" style="fill: #1f77b4; stroke: #000000; stroke-linejoin: miter"/>
   </g>
   <g id="patch_190">
    <path d="M 764.653923 242.918125 
L 767.97314 242.918125 
L 767.97314 236.870147 
L 764.653923 236.870147 
z
" clip-path="url(#p4a61fb938e)" style="fill: #1f77b4; stroke: #000000; stroke-linejoin: miter"/>
   </g>
   <g id="patch_191">
    <path d="M 767.97314 242.918125 
L 771.292357 242.918125 
L 771.292357 237.590144 
L 767.97314 237.590144 
z
" clip-path="url(#p4a61fb938e)" style="fill: #1f77b4; stroke: #000000; stroke-linejoin: miter"/>
   </g>
   <g id="patch_192">
    <path d="M 771.292357 242.918125 
L 774.611575 242.918125 
L 774.611575 239.030139 
L 771.292357 239.030139 
z
" clip-path="url(#p4a61fb938e)" style="fill: #1f77b4; stroke: #000000; stroke-linejoin: miter"/>
   </g>
   <g id="patch_193">
    <path d="M 774.611575 242.918125 
L 777.930792 242.918125 
L 777.930792 239.606137 
L 774.611575 239.606137 
z
" clip-path="url(#p4a61fb938e)" style="fill: #1f77b4; stroke: #000000; stroke-linejoin: miter"/>
   </g>
   <g id="patch_194">
    <path d="M 777.930792 242.918125 
L 781.250009 242.918125 
L 781.250009 240.470134 
L 777.930792 240.470134 
z
" clip-path="url(#p4a61fb938e)" style="fill: #1f77b4; stroke: #000000; stroke-linejoin: miter"/>
   </g>
   <g id="patch_195">
    <path d="M 781.250009 242.918125 
L 784.569226 242.918125 
L 784.569226 242.054128 
L 781.250009 242.054128 
z
" clip-path="url(#p4a61fb938e)" style="fill: #1f77b4; stroke: #000000; stroke-linejoin: miter"/>
   </g>
   <g id="patch_196">
    <path d="M 784.569226 242.918125 
L 787.888444 242.918125 
L 787.888444 241.766129 
L 784.569226 241.766129 
z
" clip-path="url(#p4a61fb938e)" style="fill: #1f77b4; stroke: #000000; stroke-linejoin: miter"/>
   </g>
   <g id="patch_197">
    <path d="M 787.888444 242.918125 
L 791.207661 242.918125 
L 791.207661 241.190131 
L 787.888444 241.190131 
z
" clip-path="url(#p4a61fb938e)" style="fill: #1f77b4; stroke: #000000; stroke-linejoin: miter"/>
   </g>
   <g id="patch_198">
    <path d="M 791.207661 242.918125 
L 794.526878 242.918125 
L 794.526878 242.774126 
L 791.207661 242.774126 
z
" clip-path="url(#p4a61fb938e)" style="fill: #1f77b4; stroke: #000000; stroke-linejoin: miter"/>
   </g>
   <g id="patch_199">
    <path d="M 794.526878 242.918125 
L 797.846095 242.918125 
L 797.846095 242.486127 
L 794.526878 242.486127 
z
" clip-path="url(#p4a61fb938e)" style="fill: #1f77b4; stroke: #000000; stroke-linejoin: miter"/>
   </g>
   <g id="patch_200">
    <path d="M 797.846095 242.918125 
L 801.165313 242.918125 
L 801.165313 242.630126 
L 797.846095 242.630126 
z
" clip-path="url(#p4a61fb938e)" style="fill: #1f77b4; stroke: #000000; stroke-linejoin: miter"/>
   </g>
   <g id="patch_201">
    <path d="M 801.165313 242.918125 
L 804.48453 242.918125 
L 804.48453 242.486127 
L 801.165313 242.486127 
z
" clip-path="url(#p4a61fb938e)" style="fill: #1f77b4; stroke: #000000; stroke-linejoin: miter"/>
   </g>
   <g id="patch_202">
    <path d="M 804.48453 242.918125 
L 807.803747 242.918125 
L 807.803747 242.630126 
L 804.48453 242.630126 
z
" clip-path="url(#p4a61fb938e)" style="fill: #1f77b4; stroke: #000000; stroke-linejoin: miter"/>
   </g>
   <g id="patch_203">
    <path d="M 807.803747 242.918125 
L 811.122964 242.918125 
L 811.122964 242.774126 
L 807.803747 242.774126 
z
" clip-path="url(#p4a61fb938e)" style="fill: #1f77b4; stroke: #000000; stroke-linejoin: miter"/>
   </g>
   <g id="patch_204">
    <path d="M 811.122964 242.918125 
L 814.442182 242.918125 
L 814.442182 242.918125 
L 811.122964 242.918125 
z
" clip-path="url(#p4a61fb938e)" style="fill: #1f77b4; stroke: #000000; stroke-linejoin: miter"/>
   </g>
   <g id="patch_205">
    <path d="M 814.442182 242.918125 
L 817.761399 242.918125 
L 817.761399 242.918125 
L 814.442182 242.918125 
z
" clip-path="url(#p4a61fb938e)" style="fill: #1f77b4; stroke: #000000; stroke-linejoin: miter"/>
   </g>
   <g id="patch_206">
    <path d="M 817.761399 242.918125 
L 821.080616 242.918125 
L 821.080616 242.918125 
L 817.761399 242.918125 
z
" clip-path="url(#p4a61fb938e)" style="fill: #1f77b4; stroke: #000000; stroke-linejoin: miter"/>
   </g>
   <g id="patch_207">
    <path d="M 821.080616 242.918125 
L 824.399833 242.918125 
L 824.399833 242.630126 
L 821.080616 242.630126 
z
" clip-path="url(#p4a61fb938e)" style="fill: #1f77b4; stroke: #000000; stroke-linejoin: miter"/>
   </g>
   <g id="matplotlib.axis_3">
    <g id="xtick_6">
     <g id="line2d_13">
      <g>
       <use xlink:href="#mf9e905cf28" x="492.478109" y="242.918125" style="stroke: #000000; stroke-width: 0.8"/>
      </g>
     </g>
     <g id="text_16">
      <!-- 0 -->
      <g transform="translate(489.296859 257.516563) scale(0.1 -0.1)">
       <use xlink:href="#DejaVuSans-30"/>
      </g>
     </g>
    </g>
    <g id="xtick_7">
     <g id="line2d_14">
      <g>
       <use xlink:href="#mf9e905cf28" x="535.339901" y="242.918125" style="stroke: #000000; stroke-width: 0.8"/>
      </g>
     </g>
     <g id="text_17">
      <!-- 250 -->
      <g transform="translate(525.796151 257.516563) scale(0.1 -0.1)">
       <use xlink:href="#DejaVuSans-32"/>
       <use xlink:href="#DejaVuSans-35" transform="translate(63.623047 0)"/>
       <use xlink:href="#DejaVuSans-30" transform="translate(127.246094 0)"/>
      </g>
     </g>
    </g>
    <g id="xtick_8">
     <g id="line2d_15">
      <g>
       <use xlink:href="#mf9e905cf28" x="578.201694" y="242.918125" style="stroke: #000000; stroke-width: 0.8"/>
      </g>
     </g>
     <g id="text_18">
      <!-- 500 -->
      <g transform="translate(568.657944 257.516563) scale(0.1 -0.1)">
       <use xlink:href="#DejaVuSans-35"/>
       <use xlink:href="#DejaVuSans-30" transform="translate(63.623047 0)"/>
       <use xlink:href="#DejaVuSans-30" transform="translate(127.246094 0)"/>
      </g>
     </g>
    </g>
    <g id="xtick_9">
     <g id="line2d_16">
      <g>
       <use xlink:href="#mf9e905cf28" x="621.063487" y="242.918125" style="stroke: #000000; stroke-width: 0.8"/>
      </g>
     </g>
     <g id="text_19">
      <!-- 750 -->
      <g transform="translate(611.519737 257.516563) scale(0.1 -0.1)">
       <defs>
        <path id="DejaVuSans-37" d="M 525 4666 
L 3525 4666 
L 3525 4397 
L 1831 0 
L 1172 0 
L 2766 4134 
L 525 4134 
L 525 4666 
z
" transform="scale(0.015625)"/>
       </defs>
       <use xlink:href="#DejaVuSans-37"/>
       <use xlink:href="#DejaVuSans-35" transform="translate(63.623047 0)"/>
       <use xlink:href="#DejaVuSans-30" transform="translate(127.246094 0)"/>
      </g>
     </g>
    </g>
    <g id="xtick_10">
     <g id="line2d_17">
      <g>
       <use xlink:href="#mf9e905cf28" x="663.92528" y="242.918125" style="stroke: #000000; stroke-width: 0.8"/>
      </g>
     </g>
     <g id="text_20">
      <!-- 1000 -->
      <g transform="translate(651.20028 257.516563) scale(0.1 -0.1)">
       <use xlink:href="#DejaVuSans-31"/>
       <use xlink:href="#DejaVuSans-30" transform="translate(63.623047 0)"/>
       <use xlink:href="#DejaVuSans-30" transform="translate(127.246094 0)"/>
       <use xlink:href="#DejaVuSans-30" transform="translate(190.869141 0)"/>
      </g>
     </g>
    </g>
    <g id="xtick_11">
     <g id="line2d_18">
      <g>
       <use xlink:href="#mf9e905cf28" x="706.787073" y="242.918125" style="stroke: #000000; stroke-width: 0.8"/>
      </g>
     </g>
     <g id="text_21">
      <!-- 1250 -->
      <g transform="translate(694.062073 257.516563) scale(0.1 -0.1)">
       <use xlink:href="#DejaVuSans-31"/>
       <use xlink:href="#DejaVuSans-32" transform="translate(63.623047 0)"/>
       <use xlink:href="#DejaVuSans-35" transform="translate(127.246094 0)"/>
       <use xlink:href="#DejaVuSans-30" transform="translate(190.869141 0)"/>
      </g>
     </g>
    </g>
    <g id="xtick_12">
     <g id="line2d_19">
      <g>
       <use xlink:href="#mf9e905cf28" x="749.648866" y="242.918125" style="stroke: #000000; stroke-width: 0.8"/>
      </g>
     </g>
     <g id="text_22">
      <!-- 1500 -->
      <g transform="translate(736.923866 257.516563) scale(0.1 -0.1)">
       <use xlink:href="#DejaVuSans-31"/>
       <use xlink:href="#DejaVuSans-35" transform="translate(63.623047 0)"/>
       <use xlink:href="#DejaVuSans-30" transform="translate(127.246094 0)"/>
       <use xlink:href="#DejaVuSans-30" transform="translate(190.869141 0)"/>
      </g>
     </g>
    </g>
    <g id="xtick_13">
     <g id="line2d_20">
      <g>
       <use xlink:href="#mf9e905cf28" x="792.510659" y="242.918125" style="stroke: #000000; stroke-width: 0.8"/>
      </g>
     </g>
     <g id="text_23">
      <!-- 1750 -->
      <g transform="translate(779.785659 257.516563) scale(0.1 -0.1)">
       <use xlink:href="#DejaVuSans-31"/>
       <use xlink:href="#DejaVuSans-37" transform="translate(63.623047 0)"/>
       <use xlink:href="#DejaVuSans-35" transform="translate(127.246094 0)"/>
       <use xlink:href="#DejaVuSans-30" transform="translate(190.869141 0)"/>
      </g>
     </g>
    </g>
    <g id="xtick_14">
     <g id="line2d_21">
      <g>
       <use xlink:href="#mf9e905cf28" x="835.372452" y="242.918125" style="stroke: #000000; stroke-width: 0.8"/>
      </g>
     </g>
     <g id="text_24">
      <!-- 2000 -->
      <g transform="translate(822.647452 257.516563) scale(0.1 -0.1)">
       <use xlink:href="#DejaVuSans-32"/>
       <use xlink:href="#DejaVuSans-30" transform="translate(63.623047 0)"/>
       <use xlink:href="#DejaVuSans-30" transform="translate(127.246094 0)"/>
       <use xlink:href="#DejaVuSans-30" transform="translate(190.869141 0)"/>
      </g>
     </g>
    </g>
    <g id="text_25">
     <!-- Number of genes -->
     <g transform="translate(615.254596 271.194687) scale(0.1 -0.1)">
      <defs>
       <path id="DejaVuSans-67" d="M 2906 1791 
Q 2906 2416 2648 2759 
Q 2391 3103 1925 3103 
Q 1463 3103 1205 2759 
Q 947 2416 947 1791 
Q 947 1169 1205 825 
Q 1463 481 1925 481 
Q 2391 481 2648 825 
Q 2906 1169 2906 1791 
z
M 3481 434 
Q 3481 -459 3084 -895 
Q 2688 -1331 1869 -1331 
Q 1566 -1331 1297 -1286 
Q 1028 -1241 775 -1147 
L 775 -588 
Q 1028 -725 1275 -790 
Q 1522 -856 1778 -856 
Q 2344 -856 2625 -561 
Q 2906 -266 2906 331 
L 2906 616 
Q 2728 306 2450 153 
Q 2172 0 1784 0 
Q 1141 0 747 490 
Q 353 981 353 1791 
Q 353 2603 747 3093 
Q 1141 3584 1784 3584 
Q 2172 3584 2450 3431 
Q 2728 3278 2906 2969 
L 2906 3500 
L 3481 3500 
L 3481 434 
z
" transform="scale(0.015625)"/>
      </defs>
      <use xlink:href="#DejaVuSans-4e"/>
      <use xlink:href="#DejaVuSans-75" transform="translate(74.804688 0)"/>
      <use xlink:href="#DejaVuSans-6d" transform="translate(138.183594 0)"/>
      <use xlink:href="#DejaVuSans-62" transform="translate(235.595703 0)"/>
      <use xlink:href="#DejaVuSans-65" transform="translate(299.072266 0)"/>
      <use xlink:href="#DejaVuSans-72" transform="translate(360.595703 0)"/>
      <use xlink:href="#DejaVuSans-20" transform="translate(401.708984 0)"/>
      <use xlink:href="#DejaVuSans-6f" transform="translate(433.496094 0)"/>
      <use xlink:href="#DejaVuSans-66" transform="translate(494.677734 0)"/>
      <use xlink:href="#DejaVuSans-20" transform="translate(529.882812 0)"/>
      <use xlink:href="#DejaVuSans-67" transform="translate(561.669922 0)"/>
      <use xlink:href="#DejaVuSans-65" transform="translate(625.146484 0)"/>
      <use xlink:href="#DejaVuSans-6e" transform="translate(686.669922 0)"/>
      <use xlink:href="#DejaVuSans-65" transform="translate(750.048828 0)"/>
      <use xlink:href="#DejaVuSans-73" transform="translate(811.572266 0)"/>
     </g>
    </g>
   </g>
   <g id="matplotlib.axis_4">
    <g id="ytick_8">
     <g id="line2d_22">
      <g>
       <use xlink:href="#m859b94a65a" x="475.882022" y="242.918125" style="stroke: #000000; stroke-width: 0.8"/>
      </g>
     </g>
     <g id="text_26">
      <!-- 0 -->
      <g transform="translate(462.519522 246.717344) scale(0.1 -0.1)">
       <use xlink:href="#DejaVuSans-30"/>
      </g>
     </g>
    </g>
    <g id="ytick_9">
     <g id="line2d_23">
      <g>
       <use xlink:href="#m859b94a65a" x="475.882022" y="214.118229" style="stroke: #000000; stroke-width: 0.8"/>
      </g>
     </g>
     <g id="text_27">
      <!-- 200 -->
      <g transform="translate(449.794522 217.917448) scale(0.1 -0.1)">
       <use xlink:href="#DejaVuSans-32"/>
       <use xlink:href="#DejaVuSans-30" transform="translate(63.623047 0)"/>
       <use xlink:href="#DejaVuSans-30" transform="translate(127.246094 0)"/>
      </g>
     </g>
    </g>
    <g id="ytick_10">
     <g id="line2d_24">
      <g>
       <use xlink:href="#m859b94a65a" x="475.882022" y="185.318334" style="stroke: #000000; stroke-width: 0.8"/>
      </g>
     </g>
     <g id="text_28">
      <!-- 400 -->
      <g transform="translate(449.794522 189.117553) scale(0.1 -0.1)">
       <use xlink:href="#DejaVuSans-34"/>
       <use xlink:href="#DejaVuSans-30" transform="translate(63.623047 0)"/>
       <use xlink:href="#DejaVuSans-30" transform="translate(127.246094 0)"/>
      </g>
     </g>
    </g>
    <g id="ytick_11">
     <g id="line2d_25">
      <g>
       <use xlink:href="#m859b94a65a" x="475.882022" y="156.518438" style="stroke: #000000; stroke-width: 0.8"/>
      </g>
     </g>
     <g id="text_29">
      <!-- 600 -->
      <g transform="translate(449.794522 160.317657) scale(0.1 -0.1)">
       <use xlink:href="#DejaVuSans-36"/>
       <use xlink:href="#DejaVuSans-30" transform="translate(63.623047 0)"/>
       <use xlink:href="#DejaVuSans-30" transform="translate(127.246094 0)"/>
      </g>
     </g>
    </g>
    <g id="ytick_12">
     <g id="line2d_26">
      <g>
       <use xlink:href="#m859b94a65a" x="475.882022" y="127.718543" style="stroke: #000000; stroke-width: 0.8"/>
      </g>
     </g>
     <g id="text_30">
      <!-- 800 -->
      <g transform="translate(449.794522 131.517762) scale(0.1 -0.1)">
       <use xlink:href="#DejaVuSans-38"/>
       <use xlink:href="#DejaVuSans-30" transform="translate(63.623047 0)"/>
       <use xlink:href="#DejaVuSans-30" transform="translate(127.246094 0)"/>
      </g>
     </g>
    </g>
    <g id="ytick_13">
     <g id="line2d_27">
      <g>
       <use xlink:href="#m859b94a65a" x="475.882022" y="98.918647" style="stroke: #000000; stroke-width: 0.8"/>
      </g>
     </g>
     <g id="text_31">
      <!-- 1000 -->
      <g transform="translate(443.432022 102.717866) scale(0.1 -0.1)">
       <use xlink:href="#DejaVuSans-31"/>
       <use xlink:href="#DejaVuSans-30" transform="translate(63.623047 0)"/>
       <use xlink:href="#DejaVuSans-30" transform="translate(127.246094 0)"/>
       <use xlink:href="#DejaVuSans-30" transform="translate(190.869141 0)"/>
      </g>
     </g>
    </g>
    <g id="ytick_14">
     <g id="line2d_28">
      <g>
       <use xlink:href="#m859b94a65a" x="475.882022" y="70.118752" style="stroke: #000000; stroke-width: 0.8"/>
      </g>
     </g>
     <g id="text_32">
      <!-- 1200 -->
      <g transform="translate(443.432022 73.91797) scale(0.1 -0.1)">
       <use xlink:href="#DejaVuSans-31"/>
       <use xlink:href="#DejaVuSans-32" transform="translate(63.623047 0)"/>
       <use xlink:href="#DejaVuSans-30" transform="translate(127.246094 0)"/>
       <use xlink:href="#DejaVuSans-30" transform="translate(190.869141 0)"/>
      </g>
     </g>
    </g>
    <g id="ytick_15">
     <g id="line2d_29">
      <g>
       <use xlink:href="#m859b94a65a" x="475.882022" y="41.318856" style="stroke: #000000; stroke-width: 0.8"/>
      </g>
     </g>
     <g id="text_33">
      <!-- 1400 -->
      <g transform="translate(443.432022 45.118075) scale(0.1 -0.1)">
       <use xlink:href="#DejaVuSans-31"/>
       <use xlink:href="#DejaVuSans-34" transform="translate(63.623047 0)"/>
       <use xlink:href="#DejaVuSans-30" transform="translate(127.246094 0)"/>
       <use xlink:href="#DejaVuSans-30" transform="translate(190.869141 0)"/>
      </g>
     </g>
    </g>
    <g id="text_34">
     <!-- Number of cells -->
     <g transform="translate(437.352335 171.910313) rotate(-90) scale(0.1 -0.1)">
      <use xlink:href="#DejaVuSans-4e"/>
      <use xlink:href="#DejaVuSans-75" transform="translate(74.804688 0)"/>
      <use xlink:href="#DejaVuSans-6d" transform="translate(138.183594 0)"/>
      <use xlink:href="#DejaVuSans-62" transform="translate(235.595703 0)"/>
      <use xlink:href="#DejaVuSans-65" transform="translate(299.072266 0)"/>
      <use xlink:href="#DejaVuSans-72" transform="translate(360.595703 0)"/>
      <use xlink:href="#DejaVuSans-20" transform="translate(401.708984 0)"/>
      <use xlink:href="#DejaVuSans-6f" transform="translate(433.496094 0)"/>
      <use xlink:href="#DejaVuSans-66" transform="translate(494.677734 0)"/>
      <use xlink:href="#DejaVuSans-20" transform="translate(529.882812 0)"/>
      <use xlink:href="#DejaVuSans-63" transform="translate(561.669922 0)"/>
      <use xlink:href="#DejaVuSans-65" transform="translate(616.650391 0)"/>
      <use xlink:href="#DejaVuSans-6c" transform="translate(678.173828 0)"/>
      <use xlink:href="#DejaVuSans-6c" transform="translate(705.957031 0)"/>
      <use xlink:href="#DejaVuSans-73" transform="translate(733.740234 0)"/>
     </g>
    </g>
   </g>
   <g id="patch_208">
    <path d="M 475.882022 242.918125 
L 475.882022 22.318125 
" style="fill: none; stroke: #000000; stroke-width: 0.8; stroke-linejoin: miter; stroke-linecap: square"/>
   </g>
   <g id="patch_209">
    <path d="M 840.99592 242.918125 
L 840.99592 22.318125 
" style="fill: none; stroke: #000000; stroke-width: 0.8; stroke-linejoin: miter; stroke-linecap: square"/>
   </g>
   <g id="patch_210">
    <path d="M 475.882022 242.918125 
L 840.99592 242.918125 
" style="fill: none; stroke: #000000; stroke-width: 0.8; stroke-linejoin: miter; stroke-linecap: square"/>
   </g>
   <g id="patch_211">
    <path d="M 475.882022 22.318125 
L 840.99592 22.318125 
" style="fill: none; stroke: #000000; stroke-width: 0.8; stroke-linejoin: miter; stroke-linecap: square"/>
   </g>
   <g id="text_35">
    <!-- mouse_brain_healthy - Genes detected per cell -->
    <g transform="translate(516.688033 16.318125) scale(0.12 -0.12)">
     <defs>
      <path id="DejaVuSans-47" d="M 3809 666 
L 3809 1919 
L 2778 1919 
L 2778 2438 
L 4434 2438 
L 4434 434 
Q 4069 175 3628 42 
Q 3188 -91 2688 -91 
Q 1594 -91 976 548 
Q 359 1188 359 2328 
Q 359 3472 976 4111 
Q 1594 4750 2688 4750 
Q 3144 4750 3555 4637 
Q 3966 4525 4313 4306 
L 4313 3634 
Q 3963 3931 3569 4081 
Q 3175 4231 2741 4231 
Q 1884 4231 1454 3753 
Q 1025 3275 1025 2328 
Q 1025 1384 1454 906 
Q 1884 428 2741 428 
Q 3075 428 3337 486 
Q 3600 544 3809 666 
z
" transform="scale(0.015625)"/>
      <path id="DejaVuSans-64" d="M 2906 2969 
L 2906 4863 
L 3481 4863 
L 3481 0 
L 2906 0 
L 2906 525 
Q 2725 213 2448 61 
Q 2172 -91 1784 -91 
Q 1150 -91 751 415 
Q 353 922 353 1747 
Q 353 2572 751 3078 
Q 1150 3584 1784 3584 
Q 2172 3584 2448 3432 
Q 2725 3281 2906 2969 
z
M 947 1747 
Q 947 1113 1208 752 
Q 1469 391 1925 391 
Q 2381 391 2643 752 
Q 2906 1113 2906 1747 
Q 2906 2381 2643 2742 
Q 2381 3103 1925 3103 
Q 1469 3103 1208 2742 
Q 947 2381 947 1747 
z
" transform="scale(0.015625)"/>
     </defs>
     <use xlink:href="#DejaVuSans-6d"/>
     <use xlink:href="#DejaVuSans-6f" transform="translate(97.412109 0)"/>
     <use xlink:href="#DejaVuSans-75" transform="translate(158.59375 0)"/>
     <use xlink:href="#DejaVuSans-73" transform="translate(221.972656 0)"/>
     <use xlink:href="#DejaVuSans-65" transform="translate(274.072266 0)"/>
     <use xlink:href="#DejaVuSans-5f" transform="translate(335.595703 0)"/>
     <use xlink:href="#DejaVuSans-62" transform="translate(385.595703 0)"/>
     <use xlink:href="#DejaVuSans-72" transform="translate(449.072266 0)"/>
     <use xlink:href="#DejaVuSans-61" transform="translate(490.185547 0)"/>
     <use xlink:href="#DejaVuSans-69" transform="translate(551.464844 0)"/>
     <use xlink:href="#DejaVuSans-6e" transform="translate(579.248047 0)"/>
     <use xlink:href="#DejaVuSans-5f" transform="translate(642.626953 0)"/>
     <use xlink:href="#DejaVuSans-68" transform="translate(692.626953 0)"/>
     <use xlink:href="#DejaVuSans-65" transform="translate(756.005859 0)"/>
     <use xlink:href="#DejaVuSans-61" transform="translate(817.529297 0)"/>
     <use xlink:href="#DejaVuSans-6c" transform="translate(878.808594 0)"/>
     <use xlink:href="#DejaVuSans-74" transform="translate(906.591797 0)"/>
     <use xlink:href="#DejaVuSans-68" transform="translate(945.800781 0)"/>
     <use xlink:href="#DejaVuSans-79" transform="translate(1009.179688 0)"/>
     <use xlink:href="#DejaVuSans-20" transform="translate(1068.359375 0)"/>
     <use xlink:href="#DejaVuSans-2d" transform="translate(1100.146484 0)"/>
     <use xlink:href="#DejaVuSans-20" transform="translate(1136.230469 0)"/>
     <use xlink:href="#DejaVuSans-47" transform="translate(1168.017578 0)"/>
     <use xlink:href="#DejaVuSans-65" transform="translate(1245.507812 0)"/>
     <use xlink:href="#DejaVuSans-6e" transform="translate(1307.03125 0)"/>
     <use xlink:href="#DejaVuSans-65" transform="translate(1370.410156 0)"/>
     <use xlink:href="#DejaVuSans-73" transform="translate(1431.933594 0)"/>
     <use xlink:href="#DejaVuSans-20" transform="translate(1484.033203 0)"/>
     <use xlink:href="#DejaVuSans-64" transform="translate(1515.820312 0)"/>
     <use xlink:href="#DejaVuSans-65" transform="translate(1579.296875 0)"/>
     <use xlink:href="#DejaVuSans-74" transform="translate(1640.820312 0)"/>
     <use xlink:href="#DejaVuSans-65" transform="translate(1680.029297 0)"/>
     <use xlink:href="#DejaVuSans-63" transform="translate(1741.552734 0)"/>
     <use xlink:href="#DejaVuSans-74" transform="translate(1796.533203 0)"/>
     <use xlink:href="#DejaVuSans-65" transform="translate(1835.742188 0)"/>
     <use xlink:href="#DejaVuSans-64" transform="translate(1897.265625 0)"/>
     <use xlink:href="#DejaVuSans-20" transform="translate(1960.742188 0)"/>
     <use xlink:href="#DejaVuSans-70" transform="translate(1992.529297 0)"/>
     <use xlink:href="#DejaVuSans-65" transform="translate(2056.005859 0)"/>
     <use xlink:href="#DejaVuSans-72" transform="translate(2117.529297 0)"/>
     <use xlink:href="#DejaVuSans-20" transform="translate(2158.642578 0)"/>
     <use xlink:href="#DejaVuSans-63" transform="translate(2190.429688 0)"/>
     <use xlink:href="#DejaVuSans-65" transform="translate(2245.410156 0)"/>
     <use xlink:href="#DejaVuSans-6c" transform="translate(2306.933594 0)"/>
     <use xlink:href="#DejaVuSans-6c" transform="translate(2334.716797 0)"/>
    </g>
   </g>
  </g>
 </g>
 <defs>
  <clipPath id="p36d9ab5d04">
   <rect x="53.328125" y="22.318125" width="365.113897" height="220.6"/>
  </clipPath>
  <clipPath id="p4a61fb938e">
   <rect x="475.882022" y="22.318125" width="365.113897" height="220.6"/>
  </clipPath>
 </defs>
</svg>
